<svg width="371" height="347" viewBox="0 0 371 347" fill="none" xmlns="http://www.w3.org/2000/svg">
<circle cx="308" cy="167" r="141" fill="#F520A0"/>
<rect y="256" width="128" height="128" fill="#3372B0"/>
<path d="M50 180H53.5556V183.556H50V180Z" fill="white"/>
<path d="M67.7778 180H71.3333V183.556H67.7778V180Z" fill="white"/>
<path d="M85.5556 180H89.1111V183.556H85.5556V180Z" fill="white"/>
<path d="M103.333 180H106.889V183.556H103.333V180Z" fill="white"/>
<path d="M121.111 180H124.667V183.556H121.111V180Z" fill="white"/>
<path d="M138.889 180H142.444V183.556H138.889V180Z" fill="white"/>
<path d="M156.667 180H160.222V183.556H156.667V180Z" fill="white"/>
<path d="M174.444 180H178V183.556H174.444V180Z" fill="white"/>
<path d="M50 197.778H53.5556V201.333H50V197.778Z" fill="white"/>
<path d="M67.7778 197.778H71.3333V201.333H67.7778V197.778Z" fill="white"/>
<path d="M85.5556 197.778H89.1111V201.333H85.5556V197.778Z" fill="white"/>
<path d="M103.333 197.778H106.889V201.333H103.333V197.778Z" fill="white"/>
<path d="M121.111 197.778H124.667V201.333H121.111V197.778Z" fill="white"/>
<path d="M138.889 197.778H142.444V201.333H138.889V197.778Z" fill="white"/>
<path d="M156.667 197.778H160.222V201.333H156.667V197.778Z" fill="white"/>
<path d="M174.444 197.778H178V201.333H174.444V197.778Z" fill="white"/>
<path d="M50 215.556H53.5556V219.111H50V215.556Z" fill="white"/>
<path d="M67.7778 215.556H71.3333V219.111H67.7778V215.556Z" fill="white"/>
<path d="M85.5556 215.556H89.1111V219.111H85.5556V215.556Z" fill="white"/>
<path d="M103.333 215.556H106.889V219.111H103.333V215.556Z" fill="white"/>
<path d="M121.111 215.556H124.667V219.111H121.111V215.556Z" fill="white"/>
<path d="M138.889 215.556H142.444V219.111H138.889V215.556Z" fill="white"/>
<path d="M156.667 215.556H160.222V219.111H156.667V215.556Z" fill="white"/>
<path d="M174.444 215.556H178V219.111H174.444V215.556Z" fill="white"/>
<path d="M50 233.333H53.5556V236.889H50V233.333Z" fill="white"/>
<path d="M67.7778 233.333H71.3333V236.889H67.7778V233.333Z" fill="white"/>
<path d="M85.5556 233.333H89.1111V236.889H85.5556V233.333Z" fill="white"/>
<path d="M103.333 233.333H106.889V236.889H103.333V233.333Z" fill="white"/>
<path d="M121.111 233.333H124.667V236.889H121.111V233.333Z" fill="white"/>
<path d="M138.889 233.333H142.444V236.889H138.889V233.333Z" fill="white"/>
<path d="M156.667 233.333H160.222V236.889H156.667V233.333Z" fill="white"/>
<path d="M174.444 233.333H178V236.889H174.444V233.333Z" fill="white"/>
<path d="M50 251.111H53.5556V254.667H50V251.111Z" fill="white"/>
<path d="M67.7778 251.111H71.3333V254.667H67.7778V251.111Z" fill="white"/>
<path d="M85.5556 251.111H89.1111V254.667H85.5556V251.111Z" fill="white"/>
<path d="M103.333 251.111H106.889V254.667H103.333V251.111Z" fill="white"/>
<path d="M121.111 251.111H124.667V254.667H121.111V251.111Z" fill="white"/>
<path d="M138.889 251.111H142.444V254.667H138.889V251.111Z" fill="white"/>
<path d="M156.667 251.111H160.222V254.667H156.667V251.111Z" fill="white"/>
<path d="M174.444 251.111H178V254.667H174.444V251.111Z" fill="white"/>
<path d="M50 268.889H53.5556V272.444H50V268.889Z" fill="white"/>
<path d="M67.7778 268.889H71.3333V272.444H67.7778V268.889Z" fill="white"/>
<path d="M85.5556 268.889H89.1111V272.444H85.5556V268.889Z" fill="white"/>
<path d="M103.333 268.889H106.889V272.444H103.333V268.889Z" fill="white"/>
<path d="M121.111 268.889H124.667V272.444H121.111V268.889Z" fill="white"/>
<path d="M138.889 268.889H142.444V272.444H138.889V268.889Z" fill="white"/>
<path d="M156.667 268.889H160.222V272.444H156.667V268.889Z" fill="white"/>
<path d="M174.444 268.889H178V272.444H174.444V268.889Z" fill="white"/>
<path d="M50 286.667H53.5556V290.222H50V286.667Z" fill="white"/>
<path d="M67.7778 286.667H71.3333V290.222H67.7778V286.667Z" fill="white"/>
<path d="M85.5556 286.667H89.1111V290.222H85.5556V286.667Z" fill="white"/>
<path d="M103.333 286.667H106.889V290.222H103.333V286.667Z" fill="white"/>
<path d="M121.111 286.667H124.667V290.222H121.111V286.667Z" fill="white"/>
<path d="M138.889 286.667H142.444V290.222H138.889V286.667Z" fill="white"/>
<path d="M156.667 286.667H160.222V290.222H156.667V286.667Z" fill="white"/>
<path d="M174.444 286.667H178V290.222H174.444V286.667Z" fill="white"/>
<path d="M50 304.444H53.5556V308H50V304.444Z" fill="white"/>
<path d="M67.7778 304.444H71.3333V308H67.7778V304.444Z" fill="white"/>
<path d="M85.5556 304.444H89.1111V308H85.5556V304.444Z" fill="white"/>
<path d="M103.333 304.444H106.889V308H103.333V304.444Z" fill="white"/>
<path d="M121.111 304.444H124.667V308H121.111V304.444Z" fill="white"/>
<path d="M138.889 304.444H142.444V308H138.889V304.444Z" fill="white"/>
<path d="M156.667 304.444H160.222V308H156.667V304.444Z" fill="white"/>
<path d="M174.444 304.444H178V308H174.444V304.444Z" fill="white"/>
<path d="M244 -53C141.275 -53 58 30.275 58 133H244V-53Z" fill="#6FC6EC"/>
</svg>
