<svg width="287" height="264" viewBox="0 0 287 264" fill="none" xmlns="http://www.w3.org/2000/svg">
<rect y="-16" width="253" height="253" fill="#5842AD"/>
<path d="M111 88H115.889V92.8889H111V88Z" fill="white"/>
<path d="M135.444 88H140.333V92.8889H135.444V88Z" fill="white"/>
<path d="M159.889 88H164.778V92.8889H159.889V88Z" fill="white"/>
<path d="M184.333 88H189.222V92.8889H184.333V88Z" fill="white"/>
<path d="M208.778 88H213.667V92.8889H208.778V88Z" fill="white"/>
<path d="M233.222 88H238.111V92.8889H233.222V88Z" fill="white"/>
<path d="M257.667 88H262.556V92.8889H257.667V88Z" fill="white"/>
<path d="M282.111 88H287V92.8889H282.111V88Z" fill="white"/>
<path d="M111 112.444H115.889V117.333H111V112.444Z" fill="white"/>
<path d="M135.444 112.444H140.333V117.333H135.444V112.444Z" fill="white"/>
<path d="M159.889 112.444H164.778V117.333H159.889V112.444Z" fill="white"/>
<path d="M184.333 112.444H189.222V117.333H184.333V112.444Z" fill="white"/>
<path d="M208.778 112.444H213.667V117.333H208.778V112.444Z" fill="white"/>
<path d="M233.222 112.444H238.111V117.333H233.222V112.444Z" fill="white"/>
<path d="M257.667 112.444H262.556V117.333H257.667V112.444Z" fill="white"/>
<path d="M282.111 112.444H287V117.333H282.111V112.444Z" fill="white"/>
<path d="M111 136.889H115.889V141.778H111V136.889Z" fill="white"/>
<path d="M135.444 136.889H140.333V141.778H135.444V136.889Z" fill="white"/>
<path d="M159.889 136.889H164.778V141.778H159.889V136.889Z" fill="white"/>
<path d="M184.333 136.889H189.222V141.778H184.333V136.889Z" fill="white"/>
<path d="M208.778 136.889H213.667V141.778H208.778V136.889Z" fill="white"/>
<path d="M233.222 136.889H238.111V141.778H233.222V136.889Z" fill="white"/>
<path d="M257.667 136.889H262.556V141.778H257.667V136.889Z" fill="white"/>
<path d="M282.111 136.889H287V141.778H282.111V136.889Z" fill="white"/>
<path d="M111 161.333H115.889V166.222H111V161.333Z" fill="white"/>
<path d="M135.444 161.333H140.333V166.222H135.444V161.333Z" fill="white"/>
<path d="M159.889 161.333H164.778V166.222H159.889V161.333Z" fill="white"/>
<path d="M184.333 161.333H189.222V166.222H184.333V161.333Z" fill="white"/>
<path d="M208.778 161.333H213.667V166.222H208.778V161.333Z" fill="white"/>
<path d="M233.222 161.333H238.111V166.222H233.222V161.333Z" fill="white"/>
<path d="M257.667 161.333H262.556V166.222H257.667V161.333Z" fill="white"/>
<path d="M282.111 161.333H287V166.222H282.111V161.333Z" fill="white"/>
<path d="M111 185.778H115.889V190.667H111V185.778Z" fill="white"/>
<path d="M135.444 185.778H140.333V190.667H135.444V185.778Z" fill="white"/>
<path d="M159.889 185.778H164.778V190.667H159.889V185.778Z" fill="white"/>
<path d="M184.333 185.778H189.222V190.667H184.333V185.778Z" fill="white"/>
<path d="M208.778 185.778H213.667V190.667H208.778V185.778Z" fill="white"/>
<path d="M233.222 185.778H238.111V190.667H233.222V185.778Z" fill="white"/>
<path d="M257.667 185.778H262.556V190.667H257.667V185.778Z" fill="white"/>
<path d="M282.111 185.778H287V190.667H282.111V185.778Z" fill="white"/>
<path d="M111 210.222H115.889V215.111H111V210.222Z" fill="white"/>
<path d="M135.444 210.222H140.333V215.111H135.444V210.222Z" fill="white"/>
<path d="M159.889 210.222H164.778V215.111H159.889V210.222Z" fill="white"/>
<path d="M184.333 210.222H189.222V215.111H184.333V210.222Z" fill="white"/>
<path d="M208.778 210.222H213.667V215.111H208.778V210.222Z" fill="white"/>
<path d="M233.222 210.222H238.111V215.111H233.222V210.222Z" fill="white"/>
<path d="M257.667 210.222H262.556V215.111H257.667V210.222Z" fill="white"/>
<path d="M282.111 210.222H287V215.111H282.111V210.222Z" fill="white"/>
<path d="M111 234.667H115.889V239.556H111V234.667Z" fill="white"/>
<path d="M135.444 234.667H140.333V239.556H135.444V234.667Z" fill="white"/>
<path d="M159.889 234.667H164.778V239.556H159.889V234.667Z" fill="white"/>
<path d="M184.333 234.667H189.222V239.556H184.333V234.667Z" fill="white"/>
<path d="M208.778 234.667H213.667V239.556H208.778V234.667Z" fill="white"/>
<path d="M233.222 234.667H238.111V239.556H233.222V234.667Z" fill="white"/>
<path d="M257.667 234.667H262.556V239.556H257.667V234.667Z" fill="white"/>
<path d="M282.111 234.667H287V239.556H282.111V234.667Z" fill="white"/>
<path d="M111 259.111H115.889V264H111V259.111Z" fill="white"/>
<path d="M135.444 259.111H140.333V264H135.444V259.111Z" fill="white"/>
<path d="M159.889 259.111H164.778V264H159.889V259.111Z" fill="white"/>
<path d="M184.333 259.111H189.222V264H184.333V259.111Z" fill="white"/>
<path d="M208.778 259.111H213.667V264H208.778V259.111Z" fill="white"/>
<path d="M233.222 259.111H238.111V264H233.222V259.111Z" fill="white"/>
<path d="M257.667 259.111H262.556V264H257.667V259.111Z" fill="white"/>
<path d="M282.111 259.111H287V264H282.111V259.111Z" fill="white"/>
</svg>
