<svg width="309" height="201" viewBox="0 0 309 201" fill="none" xmlns="http://www.w3.org/2000/svg">
<circle cx="237" cy="218" r="192" fill="#F520A0"/>
<circle cx="206.5" cy="63.5" r="63.5" fill="#05329A"/>
<path d="M0 123H3.55556V126.556H0V123Z" fill="white"/>
<path d="M17.7778 123H21.3333V126.556H17.7778V123Z" fill="white"/>
<path d="M35.5556 123H39.1111V126.556H35.5556V123Z" fill="white"/>
<path d="M53.3333 123H56.8889V126.556H53.3333V123Z" fill="white"/>
<path d="M71.1111 123H74.6667V126.556H71.1111V123Z" fill="white"/>
<path d="M88.8889 123H92.4444V126.556H88.8889V123Z" fill="white"/>
<path d="M106.667 123H110.222V126.556H106.667V123Z" fill="white"/>
<path d="M124.444 123H128V126.556H124.444V123Z" fill="white"/>
<path d="M0 140.778H3.55556V144.333H0V140.778Z" fill="white"/>
<path d="M17.7778 140.778H21.3333V144.333H17.7778V140.778Z" fill="white"/>
<path d="M35.5556 140.778H39.1111V144.333H35.5556V140.778Z" fill="white"/>
<path d="M53.3333 140.778H56.8889V144.333H53.3333V140.778Z" fill="white"/>
<path d="M71.1111 140.778H74.6667V144.333H71.1111V140.778Z" fill="white"/>
<path d="M88.8889 140.778H92.4444V144.333H88.8889V140.778Z" fill="white"/>
<path d="M106.667 140.778H110.222V144.333H106.667V140.778Z" fill="white"/>
<path d="M124.444 140.778H128V144.333H124.444V140.778Z" fill="white"/>
<path d="M0 158.556H3.55556V162.111H0V158.556Z" fill="white"/>
<path d="M17.7778 158.556H21.3333V162.111H17.7778V158.556Z" fill="white"/>
<path d="M35.5556 158.556H39.1111V162.111H35.5556V158.556Z" fill="white"/>
<path d="M53.3333 158.556H56.8889V162.111H53.3333V158.556Z" fill="white"/>
<path d="M71.1111 158.556H74.6667V162.111H71.1111V158.556Z" fill="white"/>
<path d="M88.8889 158.556H92.4444V162.111H88.8889V158.556Z" fill="white"/>
<path d="M106.667 158.556H110.222V162.111H106.667V158.556Z" fill="white"/>
<path d="M124.444 158.556H128V162.111H124.444V158.556Z" fill="white"/>
<path d="M0 176.333H3.55556V179.889H0V176.333Z" fill="white"/>
<path d="M17.7778 176.333H21.3333V179.889H17.7778V176.333Z" fill="white"/>
<path d="M35.5556 176.333H39.1111V179.889H35.5556V176.333Z" fill="white"/>
<path d="M53.3333 176.333H56.8889V179.889H53.3333V176.333Z" fill="white"/>
<path d="M71.1111 176.333H74.6667V179.889H71.1111V176.333Z" fill="white"/>
<path d="M88.8889 176.333H92.4444V179.889H88.8889V176.333Z" fill="white"/>
<path d="M106.667 176.333H110.222V179.889H106.667V176.333Z" fill="white"/>
<path d="M124.444 176.333H128V179.889H124.444V176.333Z" fill="white"/>
<path d="M0 194.111H3.55556V197.667H0V194.111Z" fill="white"/>
<path d="M17.7778 194.111H21.3333V197.667H17.7778V194.111Z" fill="white"/>
<path d="M35.5556 194.111H39.1111V197.667H35.5556V194.111Z" fill="white"/>
<path d="M53.3333 194.111H56.8889V197.667H53.3333V194.111Z" fill="white"/>
<path d="M71.1111 194.111H74.6667V197.667H71.1111V194.111Z" fill="white"/>
<path d="M88.8889 194.111H92.4444V197.667H88.8889V194.111Z" fill="white"/>
<path d="M106.667 194.111H110.222V197.667H106.667V194.111Z" fill="white"/>
<path d="M124.444 194.111H128V197.667H124.444V194.111Z" fill="white"/>
<path d="M0 211.889H3.55556V215.444H0V211.889Z" fill="white"/>
<path d="M17.7778 211.889H21.3333V215.444H17.7778V211.889Z" fill="white"/>
<path d="M35.5556 211.889H39.1111V215.444H35.5556V211.889Z" fill="white"/>
<path d="M53.3333 211.889H56.8889V215.444H53.3333V211.889Z" fill="white"/>
<path d="M71.1111 211.889H74.6667V215.444H71.1111V211.889Z" fill="white"/>
<path d="M88.8889 211.889H92.4444V215.444H88.8889V211.889Z" fill="white"/>
<path d="M106.667 211.889H110.222V215.444H106.667V211.889Z" fill="white"/>
<path d="M124.444 211.889H128V215.444H124.444V211.889Z" fill="white"/>
<path d="M0 229.667H3.55556V233.222H0V229.667Z" fill="white"/>
<path d="M17.7778 229.667H21.3333V233.222H17.7778V229.667Z" fill="white"/>
<path d="M35.5556 229.667H39.1111V233.222H35.5556V229.667Z" fill="white"/>
<path d="M53.3333 229.667H56.8889V233.222H53.3333V229.667Z" fill="white"/>
<path d="M71.1111 229.667H74.6667V233.222H71.1111V229.667Z" fill="white"/>
<path d="M88.8889 229.667H92.4444V233.222H88.8889V229.667Z" fill="white"/>
<path d="M106.667 229.667H110.222V233.222H106.667V229.667Z" fill="white"/>
<path d="M124.444 229.667H128V233.222H124.444V229.667Z" fill="white"/>
<path d="M0 247.444H3.55556V251H0V247.444Z" fill="white"/>
<path d="M17.7778 247.444H21.3333V251H17.7778V247.444Z" fill="white"/>
<path d="M35.5556 247.444H39.1111V251H35.5556V247.444Z" fill="white"/>
<path d="M53.3333 247.444H56.8889V251H53.3333V247.444Z" fill="white"/>
<path d="M71.1111 247.444H74.6667V251H71.1111V247.444Z" fill="white"/>
<path d="M88.8889 247.444H92.4444V251H88.8889V247.444Z" fill="white"/>
<path d="M106.667 247.444H110.222V251H106.667V247.444Z" fill="white"/>
<path d="M124.444 247.444H128V251H124.444V247.444Z" fill="white"/>
</svg>
