<svg width="209" height="292" viewBox="0 0 209 292" fill="none" xmlns="http://www.w3.org/2000/svg">
<circle cx="17" cy="94" r="192" fill="#3372B0"/>
<rect y="189" width="93" height="103" fill="#F9CC14"/>
<path d="M45 125H48.5556V128.556H45V125Z" fill="white"/>
<path d="M62.7778 125H66.3333V128.556H62.7778V125Z" fill="white"/>
<path d="M80.5556 125H84.1111V128.556H80.5556V125Z" fill="white"/>
<path d="M98.3333 125H101.889V128.556H98.3333V125Z" fill="white"/>
<path d="M116.111 125H119.667V128.556H116.111V125Z" fill="white"/>
<path d="M133.889 125H137.444V128.556H133.889V125Z" fill="white"/>
<path d="M151.667 125H155.222V128.556H151.667V125Z" fill="white"/>
<path d="M169.444 125H173V128.556H169.444V125Z" fill="white"/>
<path d="M45 142.778H48.5556V146.333H45V142.778Z" fill="white"/>
<path d="M62.7778 142.778H66.3333V146.333H62.7778V142.778Z" fill="white"/>
<path d="M80.5556 142.778H84.1111V146.333H80.5556V142.778Z" fill="white"/>
<path d="M98.3333 142.778H101.889V146.333H98.3333V142.778Z" fill="white"/>
<path d="M116.111 142.778H119.667V146.333H116.111V142.778Z" fill="white"/>
<path d="M133.889 142.778H137.444V146.333H133.889V142.778Z" fill="white"/>
<path d="M151.667 142.778H155.222V146.333H151.667V142.778Z" fill="white"/>
<path d="M169.444 142.778H173V146.333H169.444V142.778Z" fill="white"/>
<path d="M45 160.556H48.5556V164.111H45V160.556Z" fill="white"/>
<path d="M62.7778 160.556H66.3333V164.111H62.7778V160.556Z" fill="white"/>
<path d="M80.5556 160.556H84.1111V164.111H80.5556V160.556Z" fill="white"/>
<path d="M98.3333 160.556H101.889V164.111H98.3333V160.556Z" fill="white"/>
<path d="M116.111 160.556H119.667V164.111H116.111V160.556Z" fill="white"/>
<path d="M133.889 160.556H137.444V164.111H133.889V160.556Z" fill="white"/>
<path d="M151.667 160.556H155.222V164.111H151.667V160.556Z" fill="white"/>
<path d="M169.444 160.556H173V164.111H169.444V160.556Z" fill="white"/>
<path d="M45 178.333H48.5556V181.889H45V178.333Z" fill="white"/>
<path d="M62.7778 178.333H66.3333V181.889H62.7778V178.333Z" fill="white"/>
<path d="M80.5556 178.333H84.1111V181.889H80.5556V178.333Z" fill="white"/>
<path d="M98.3333 178.333H101.889V181.889H98.3333V178.333Z" fill="white"/>
<path d="M116.111 178.333H119.667V181.889H116.111V178.333Z" fill="white"/>
<path d="M133.889 178.333H137.444V181.889H133.889V178.333Z" fill="white"/>
<path d="M151.667 178.333H155.222V181.889H151.667V178.333Z" fill="white"/>
<path d="M169.444 178.333H173V181.889H169.444V178.333Z" fill="white"/>
<path d="M45 196.111H48.5556V199.667H45V196.111Z" fill="white"/>
<path d="M62.7778 196.111H66.3333V199.667H62.7778V196.111Z" fill="white"/>
<path d="M80.5556 196.111H84.1111V199.667H80.5556V196.111Z" fill="white"/>
<path d="M98.3333 196.111H101.889V199.667H98.3333V196.111Z" fill="white"/>
<path d="M116.111 196.111H119.667V199.667H116.111V196.111Z" fill="white"/>
<path d="M133.889 196.111H137.444V199.667H133.889V196.111Z" fill="white"/>
<path d="M151.667 196.111H155.222V199.667H151.667V196.111Z" fill="white"/>
<path d="M169.444 196.111H173V199.667H169.444V196.111Z" fill="white"/>
<path d="M45 213.889H48.5556V217.444H45V213.889Z" fill="white"/>
<path d="M62.7778 213.889H66.3333V217.444H62.7778V213.889Z" fill="white"/>
<path d="M80.5556 213.889H84.1111V217.444H80.5556V213.889Z" fill="white"/>
<path d="M98.3333 213.889H101.889V217.444H98.3333V213.889Z" fill="white"/>
<path d="M116.111 213.889H119.667V217.444H116.111V213.889Z" fill="white"/>
<path d="M133.889 213.889H137.444V217.444H133.889V213.889Z" fill="white"/>
<path d="M151.667 213.889H155.222V217.444H151.667V213.889Z" fill="white"/>
<path d="M169.444 213.889H173V217.444H169.444V213.889Z" fill="white"/>
<path d="M45 231.667H48.5556V235.222H45V231.667Z" fill="white"/>
<path d="M62.7778 231.667H66.3333V235.222H62.7778V231.667Z" fill="white"/>
<path d="M80.5556 231.667H84.1111V235.222H80.5556V231.667Z" fill="white"/>
<path d="M98.3333 231.667H101.889V235.222H98.3333V231.667Z" fill="white"/>
<path d="M116.111 231.667H119.667V235.222H116.111V231.667Z" fill="white"/>
<path d="M133.889 231.667H137.444V235.222H133.889V231.667Z" fill="white"/>
<path d="M151.667 231.667H155.222V235.222H151.667V231.667Z" fill="white"/>
<path d="M169.444 231.667H173V235.222H169.444V231.667Z" fill="white"/>
<path d="M45 249.444H48.5556V253H45V249.444Z" fill="white"/>
<path d="M62.7778 249.444H66.3333V253H62.7778V249.444Z" fill="white"/>
<path d="M80.5556 249.444H84.1111V253H80.5556V249.444Z" fill="white"/>
<path d="M98.3333 249.444H101.889V253H98.3333V249.444Z" fill="white"/>
<path d="M116.111 249.444H119.667V253H116.111V249.444Z" fill="white"/>
<path d="M133.889 249.444H137.444V253H133.889V249.444Z" fill="white"/>
<path d="M151.667 249.444H155.222V253H151.667V249.444Z" fill="white"/>
<path d="M169.444 249.444H173V253H169.444V249.444Z" fill="white"/>
</svg>
