<svg width="140" height="74" viewBox="0 0 140 74" fill="none" xmlns="http://www.w3.org/2000/svg">
<path d="M12 0H15.5556V3.55556H12V0Z" fill="white"/>
<path d="M29.7778 0H33.3333V3.55556H29.7778V0Z" fill="white"/>
<path d="M47.5556 0H51.1111V3.55556H47.5556V0Z" fill="white"/>
<path d="M65.3333 0H68.8889V3.55556H65.3333V0Z" fill="white"/>
<path d="M83.1111 0H86.6667V3.55556H83.1111V0Z" fill="white"/>
<path d="M100.889 0H104.444V3.55556H100.889V0Z" fill="white"/>
<path d="M118.667 0H122.222V3.55556H118.667V0Z" fill="white"/>
<path d="M136.444 0H140V3.55556H136.444V0Z" fill="white"/>
<path d="M12 17.7778H15.5556V21.3333H12V17.7778Z" fill="white"/>
<path d="M29.7778 17.7778H33.3333V21.3333H29.7778V17.7778Z" fill="white"/>
<path d="M47.5556 17.7778H51.1111V21.3333H47.5556V17.7778Z" fill="white"/>
<path d="M65.3333 17.7778H68.8889V21.3333H65.3333V17.7778Z" fill="white"/>
<path d="M83.1111 17.7778H86.6667V21.3333H83.1111V17.7778Z" fill="white"/>
<path d="M100.889 17.7778H104.444V21.3333H100.889V17.7778Z" fill="white"/>
<path d="M118.667 17.7778H122.222V21.3333H118.667V17.7778Z" fill="white"/>
<path d="M136.444 17.7778H140V21.3333H136.444V17.7778Z" fill="white"/>
<path d="M12 35.5556H15.5556V39.1111H12V35.5556Z" fill="white"/>
<path d="M29.7778 35.5556H33.3333V39.1111H29.7778V35.5556Z" fill="white"/>
<path d="M47.5556 35.5556H51.1111V39.1111H47.5556V35.5556Z" fill="white"/>
<path d="M65.3333 35.5556H68.8889V39.1111H65.3333V35.5556Z" fill="white"/>
<path d="M83.1111 35.5556H86.6667V39.1111H83.1111V35.5556Z" fill="white"/>
<path d="M100.889 35.5556H104.444V39.1111H100.889V35.5556Z" fill="white"/>
<path d="M118.667 35.5556H122.222V39.1111H118.667V35.5556Z" fill="white"/>
<path d="M136.444 35.5556H140V39.1111H136.444V35.5556Z" fill="white"/>
<path d="M12 53.3333H15.5556V56.8889H12V53.3333Z" fill="white"/>
<path d="M29.7778 53.3333H33.3333V56.8889H29.7778V53.3333Z" fill="white"/>
<path d="M47.5556 53.3333H51.1111V56.8889H47.5556V53.3333Z" fill="white"/>
<path d="M65.3333 53.3333H68.8889V56.8889H65.3333V53.3333Z" fill="white"/>
<path d="M83.1111 53.3333H86.6667V56.8889H83.1111V53.3333Z" fill="white"/>
<path d="M100.889 53.3333H104.444V56.8889H100.889V53.3333Z" fill="white"/>
<path d="M118.667 53.3333H122.222V56.8889H118.667V53.3333Z" fill="white"/>
<path d="M136.444 53.3333H140V56.8889H136.444V53.3333Z" fill="white"/>
<path d="M12 71.1111H15.5556V74.6667H12V71.1111Z" fill="white"/>
<path d="M29.7778 71.1111H33.3333V74.6667H29.7778V71.1111Z" fill="white"/>
<path d="M47.5556 71.1111H51.1111V74.6667H47.5556V71.1111Z" fill="white"/>
<path d="M65.3333 71.1111H68.8889V74.6667H65.3333V71.1111Z" fill="white"/>
<path d="M83.1111 71.1111H86.6667V74.6667H83.1111V71.1111Z" fill="white"/>
<path d="M100.889 71.1111H104.444V74.6667H100.889V71.1111Z" fill="white"/>
<path d="M118.667 71.1111H122.222V74.6667H118.667V71.1111Z" fill="white"/>
<path d="M136.444 71.1111H140V74.6667H136.444V71.1111Z" fill="white"/>
<path d="M12 88.8889H15.5556V92.4444H12V88.8889Z" fill="white"/>
<path d="M29.7778 88.8889H33.3333V92.4444H29.7778V88.8889Z" fill="white"/>
<path d="M47.5556 88.8889H51.1111V92.4444H47.5556V88.8889Z" fill="white"/>
<path d="M65.3333 88.8889H68.8889V92.4444H65.3333V88.8889Z" fill="white"/>
<path d="M83.1111 88.8889H86.6667V92.4444H83.1111V88.8889Z" fill="white"/>
<path d="M100.889 88.8889H104.444V92.4444H100.889V88.8889Z" fill="white"/>
<path d="M118.667 88.8889H122.222V92.4444H118.667V88.8889Z" fill="white"/>
<path d="M136.444 88.8889H140V92.4444H136.444V88.8889Z" fill="white"/>
<path d="M12 106.667H15.5556V110.222H12V106.667Z" fill="white"/>
<path d="M29.7778 106.667H33.3333V110.222H29.7778V106.667Z" fill="white"/>
<path d="M47.5556 106.667H51.1111V110.222H47.5556V106.667Z" fill="white"/>
<path d="M65.3333 106.667H68.8889V110.222H65.3333V106.667Z" fill="white"/>
<path d="M83.1111 106.667H86.6667V110.222H83.1111V106.667Z" fill="white"/>
<path d="M100.889 106.667H104.444V110.222H100.889V106.667Z" fill="white"/>
<path d="M118.667 106.667H122.222V110.222H118.667V106.667Z" fill="white"/>
<path d="M136.444 106.667H140V110.222H136.444V106.667Z" fill="white"/>
<path d="M12 124.444H15.5556V128H12V124.444Z" fill="white"/>
<path d="M29.7778 124.444H33.3333V128H29.7778V124.444Z" fill="white"/>
<path d="M47.5556 124.444H51.1111V128H47.5556V124.444Z" fill="white"/>
<path d="M65.3333 124.444H68.8889V128H65.3333V124.444Z" fill="white"/>
<path d="M83.1111 124.444H86.6667V128H83.1111V124.444Z" fill="white"/>
<path d="M100.889 124.444H104.444V128H100.889V124.444Z" fill="white"/>
<path d="M118.667 124.444H122.222V128H118.667V124.444Z" fill="white"/>
<path d="M136.444 124.444H140V128H136.444V124.444Z" fill="white"/>
<rect x="30" y="35" width="32" height="107" fill="#05329A"/>
<rect y="14" width="16" height="110" fill="#05329A"/>
<rect x="76" y="65" width="64" height="88" fill="#05329A"/>
</svg>
