<svg width="92" height="93" viewBox="0 0 92 93" fill="none" xmlns="http://www.w3.org/2000/svg">
<rect x="45.293" y="47.104" width="45.8961" height="45.8961" fill="#E76C59"/>
<path d="M0 0H2.14719V2.14719H0V0Z" fill="white"/>
<path d="M10.7359 0H12.8831V2.14719H10.7359V0Z" fill="white"/>
<path d="M21.4719 0H23.619V2.14719H21.4719V0Z" fill="white"/>
<path d="M32.2078 0H34.355V2.14719H32.2078V0Z" fill="white"/>
<path d="M42.9437 0H45.0909V2.14719H42.9437V0Z" fill="white"/>
<path d="M53.6796 0H55.8268V2.14719H53.6796V0Z" fill="white"/>
<path d="M64.4156 0H66.5627V2.14719H64.4156V0Z" fill="white"/>
<path d="M75.1515 0H77.2987V2.14719H75.1515V0Z" fill="white"/>
<path d="M0 10.7359H2.14719V12.8831H0V10.7359Z" fill="white"/>
<path d="M10.7359 10.7359H12.8831V12.8831H10.7359V10.7359Z" fill="white"/>
<path d="M21.4719 10.7359H23.619V12.8831H21.4719V10.7359Z" fill="white"/>
<path d="M32.2078 10.7359H34.355V12.8831H32.2078V10.7359Z" fill="white"/>
<path d="M42.9437 10.7359H45.0909V12.8831H42.9437V10.7359Z" fill="white"/>
<path d="M53.6796 10.7359H55.8268V12.8831H53.6796V10.7359Z" fill="white"/>
<path d="M64.4156 10.7359H66.5627V12.8831H64.4156V10.7359Z" fill="white"/>
<path d="M75.1515 10.7359H77.2987V12.8831H75.1515V10.7359Z" fill="white"/>
<path d="M0 21.4719H2.14719V23.619H0V21.4719Z" fill="white"/>
<path d="M10.7359 21.4719H12.8831V23.619H10.7359V21.4719Z" fill="white"/>
<path d="M21.4719 21.4719H23.619V23.619H21.4719V21.4719Z" fill="white"/>
<path d="M32.2078 21.4719H34.355V23.619H32.2078V21.4719Z" fill="white"/>
<path d="M42.9437 21.4719H45.0909V23.619H42.9437V21.4719Z" fill="white"/>
<path d="M53.6796 21.4719H55.8268V23.619H53.6796V21.4719Z" fill="white"/>
<path d="M64.4156 21.4719H66.5627V23.619H64.4156V21.4719Z" fill="white"/>
<path d="M75.1515 21.4719H77.2987V23.619H75.1515V21.4719Z" fill="white"/>
<path d="M0 32.2078H2.14719V34.355H0V32.2078Z" fill="white"/>
<path d="M10.7359 32.2078H12.8831V34.355H10.7359V32.2078Z" fill="white"/>
<path d="M21.4719 32.2078H23.619V34.355H21.4719V32.2078Z" fill="white"/>
<path d="M32.2078 32.2078H34.355V34.355H32.2078V32.2078Z" fill="white"/>
<path d="M42.9437 32.2078H45.0909V34.355H42.9437V32.2078Z" fill="white"/>
<path d="M53.6796 32.2078H55.8268V34.355H53.6796V32.2078Z" fill="white"/>
<path d="M64.4156 32.2078H66.5627V34.355H64.4156V32.2078Z" fill="white"/>
<path d="M75.1515 32.2078H77.2987V34.355H75.1515V32.2078Z" fill="white"/>
<path d="M0 42.9437H2.14719V45.0909H0V42.9437Z" fill="white"/>
<path d="M10.7359 42.9437H12.8831V45.0909H10.7359V42.9437Z" fill="white"/>
<path d="M21.4719 42.9437H23.619V45.0909H21.4719V42.9437Z" fill="white"/>
<path d="M32.2078 42.9437H34.355V45.0909H32.2078V42.9437Z" fill="white"/>
<path d="M42.9437 42.9437H45.0909V45.0909H42.9437V42.9437Z" fill="white"/>
<path d="M53.6796 42.9437H55.8268V45.0909H53.6796V42.9437Z" fill="white"/>
<path d="M64.4156 42.9437H66.5627V45.0909H64.4156V42.9437Z" fill="white"/>
<path d="M75.1515 42.9437H77.2987V45.0909H75.1515V42.9437Z" fill="white"/>
<path d="M0 53.6796H2.14719V55.8268H0V53.6796Z" fill="white"/>
<path d="M10.7359 53.6796H12.8831V55.8268H10.7359V53.6796Z" fill="white"/>
<path d="M21.4719 53.6796H23.619V55.8268H21.4719V53.6796Z" fill="white"/>
<path d="M32.2078 53.6796H34.355V55.8268H32.2078V53.6796Z" fill="white"/>
<path d="M42.9437 53.6796H45.0909V55.8268H42.9437V53.6796Z" fill="white"/>
<path d="M53.6796 53.6796H55.8268V55.8268H53.6796V53.6796Z" fill="white"/>
<path d="M64.4156 53.6796H66.5627V55.8268H64.4156V53.6796Z" fill="white"/>
<path d="M75.1515 53.6796H77.2987V55.8268H75.1515V53.6796Z" fill="white"/>
<path d="M0 64.4156H2.14719V66.5627H0V64.4156Z" fill="white"/>
<path d="M10.7359 64.4156H12.8831V66.5627H10.7359V64.4156Z" fill="white"/>
<path d="M21.4719 64.4156H23.619V66.5627H21.4719V64.4156Z" fill="white"/>
<path d="M32.2078 64.4156H34.355V66.5627H32.2078V64.4156Z" fill="white"/>
<path d="M42.9437 64.4156H45.0909V66.5627H42.9437V64.4156Z" fill="white"/>
<path d="M53.6796 64.4156H55.8268V66.5627H53.6796V64.4156Z" fill="white"/>
<path d="M64.4156 64.4156H66.5627V66.5627H64.4156V64.4156Z" fill="white"/>
<path d="M75.1515 64.4156H77.2987V66.5627H75.1515V64.4156Z" fill="white"/>
<path d="M0 75.1515H2.14719V77.2987H0V75.1515Z" fill="white"/>
<path d="M10.7359 75.1515H12.8831V77.2987H10.7359V75.1515Z" fill="white"/>
<path d="M21.4719 75.1515H23.619V77.2987H21.4719V75.1515Z" fill="white"/>
<path d="M32.2078 75.1515H34.355V77.2987H32.2078V75.1515Z" fill="white"/>
<path d="M42.9437 75.1515H45.0909V77.2987H42.9437V75.1515Z" fill="white"/>
<path d="M53.6796 75.1515H55.8268V77.2987H53.6796V75.1515Z" fill="white"/>
<path d="M64.4156 75.1515H66.5627V77.2987H64.4156V75.1515Z" fill="white"/>
<path d="M75.1515 75.1515H77.2987V77.2987H75.1515V75.1515Z" fill="white"/>
</svg>
