<svg width="160" height="206" viewBox="0 0 160 206" fill="none" xmlns="http://www.w3.org/2000/svg">
<rect x="32" width="128" height="128" fill="#F9CC14"/>
<path d="M0 78H3.55556V81.5556H0V78Z" fill="black"/>
<path d="M17.7778 78H21.3333V81.5556H17.7778V78Z" fill="black"/>
<path d="M35.5556 78H39.1111V81.5556H35.5556V78Z" fill="black"/>
<path d="M53.3333 78H56.8889V81.5556H53.3333V78Z" fill="black"/>
<path d="M71.1111 78H74.6667V81.5556H71.1111V78Z" fill="black"/>
<path d="M88.8889 78H92.4444V81.5556H88.8889V78Z" fill="black"/>
<path d="M106.667 78H110.222V81.5556H106.667V78Z" fill="black"/>
<path d="M124.444 78H128V81.5556H124.444V78Z" fill="black"/>
<path d="M0 95.7778H3.55556V99.3333H0V95.7778Z" fill="black"/>
<path d="M17.7778 95.7778H21.3333V99.3333H17.7778V95.7778Z" fill="black"/>
<path d="M35.5556 95.7778H39.1111V99.3333H35.5556V95.7778Z" fill="black"/>
<path d="M53.3333 95.7778H56.8889V99.3333H53.3333V95.7778Z" fill="black"/>
<path d="M71.1111 95.7778H74.6667V99.3333H71.1111V95.7778Z" fill="black"/>
<path d="M88.8889 95.7778H92.4444V99.3333H88.8889V95.7778Z" fill="black"/>
<path d="M106.667 95.7778H110.222V99.3333H106.667V95.7778Z" fill="black"/>
<path d="M124.444 95.7778H128V99.3333H124.444V95.7778Z" fill="black"/>
<path d="M0 113.556H3.55556V117.111H0V113.556Z" fill="black"/>
<path d="M17.7778 113.556H21.3333V117.111H17.7778V113.556Z" fill="black"/>
<path d="M35.5556 113.556H39.1111V117.111H35.5556V113.556Z" fill="black"/>
<path d="M53.3333 113.556H56.8889V117.111H53.3333V113.556Z" fill="black"/>
<path d="M71.1111 113.556H74.6667V117.111H71.1111V113.556Z" fill="black"/>
<path d="M88.8889 113.556H92.4444V117.111H88.8889V113.556Z" fill="black"/>
<path d="M106.667 113.556H110.222V117.111H106.667V113.556Z" fill="black"/>
<path d="M124.444 113.556H128V117.111H124.444V113.556Z" fill="black"/>
<path d="M0 131.333H3.55556V134.889H0V131.333Z" fill="black"/>
<path d="M17.7778 131.333H21.3333V134.889H17.7778V131.333Z" fill="black"/>
<path d="M35.5556 131.333H39.1111V134.889H35.5556V131.333Z" fill="black"/>
<path d="M53.3333 131.333H56.8889V134.889H53.3333V131.333Z" fill="black"/>
<path d="M71.1111 131.333H74.6667V134.889H71.1111V131.333Z" fill="black"/>
<path d="M88.8889 131.333H92.4444V134.889H88.8889V131.333Z" fill="black"/>
<path d="M106.667 131.333H110.222V134.889H106.667V131.333Z" fill="black"/>
<path d="M124.444 131.333H128V134.889H124.444V131.333Z" fill="black"/>
<path d="M0 149.111H3.55556V152.667H0V149.111Z" fill="black"/>
<path d="M17.7778 149.111H21.3333V152.667H17.7778V149.111Z" fill="black"/>
<path d="M35.5556 149.111H39.1111V152.667H35.5556V149.111Z" fill="black"/>
<path d="M53.3333 149.111H56.8889V152.667H53.3333V149.111Z" fill="black"/>
<path d="M71.1111 149.111H74.6667V152.667H71.1111V149.111Z" fill="black"/>
<path d="M88.8889 149.111H92.4444V152.667H88.8889V149.111Z" fill="black"/>
<path d="M106.667 149.111H110.222V152.667H106.667V149.111Z" fill="black"/>
<path d="M124.444 149.111H128V152.667H124.444V149.111Z" fill="black"/>
<path d="M0 166.889H3.55556V170.444H0V166.889Z" fill="black"/>
<path d="M17.7778 166.889H21.3333V170.444H17.7778V166.889Z" fill="black"/>
<path d="M35.5556 166.889H39.1111V170.444H35.5556V166.889Z" fill="black"/>
<path d="M53.3333 166.889H56.8889V170.444H53.3333V166.889Z" fill="black"/>
<path d="M71.1111 166.889H74.6667V170.444H71.1111V166.889Z" fill="black"/>
<path d="M88.8889 166.889H92.4444V170.444H88.8889V166.889Z" fill="black"/>
<path d="M106.667 166.889H110.222V170.444H106.667V166.889Z" fill="black"/>
<path d="M124.444 166.889H128V170.444H124.444V166.889Z" fill="black"/>
<path d="M0 184.667H3.55556V188.222H0V184.667Z" fill="black"/>
<path d="M17.7778 184.667H21.3333V188.222H17.7778V184.667Z" fill="black"/>
<path d="M35.5556 184.667H39.1111V188.222H35.5556V184.667Z" fill="black"/>
<path d="M53.3333 184.667H56.8889V188.222H53.3333V184.667Z" fill="black"/>
<path d="M71.1111 184.667H74.6667V188.222H71.1111V184.667Z" fill="black"/>
<path d="M88.8889 184.667H92.4444V188.222H88.8889V184.667Z" fill="black"/>
<path d="M106.667 184.667H110.222V188.222H106.667V184.667Z" fill="black"/>
<path d="M124.444 184.667H128V188.222H124.444V184.667Z" fill="black"/>
<path d="M0 202.444H3.55556V206H0V202.444Z" fill="black"/>
<path d="M17.7778 202.444H21.3333V206H17.7778V202.444Z" fill="black"/>
<path d="M35.5556 202.444H39.1111V206H35.5556V202.444Z" fill="black"/>
<path d="M53.3333 202.444H56.8889V206H53.3333V202.444Z" fill="black"/>
<path d="M71.1111 202.444H74.6667V206H71.1111V202.444Z" fill="black"/>
<path d="M88.8889 202.444H92.4444V206H88.8889V202.444Z" fill="black"/>
<path d="M106.667 202.444H110.222V206H106.667V202.444Z" fill="black"/>
<path d="M124.444 202.444H128V206H124.444V202.444Z" fill="black"/>
</svg>
