<svg width="222" height="186" viewBox="0 0 222 186" fill="none" xmlns="http://www.w3.org/2000/svg">
<path d="M0.817383 88.1351C0.817383 136.534 40.0527 175.77 88.4519 175.77L88.4519 0.500595C40.0527 0.500595 0.817383 39.7359 0.817383 88.1351Z" fill="#4F89BE"/>
<path d="M55.1611 19H59.7773V23.6161H55.1611V19Z" fill="black"/>
<path d="M78.2418 19H82.858V23.6161H78.2418V19Z" fill="black"/>
<path d="M101.323 19H105.939V23.6161H101.323V19Z" fill="black"/>
<path d="M124.403 19H129.019V23.6161H124.403V19Z" fill="black"/>
<path d="M147.484 19H152.1V23.6161H147.484V19Z" fill="black"/>
<path d="M170.565 19H175.181V23.6161H170.565V19Z" fill="black"/>
<path d="M193.645 19H198.261V23.6161H193.645V19Z" fill="black"/>
<path d="M216.726 19H221.342V23.6161H216.726V19Z" fill="black"/>
<path d="M55.1611 42.0807H59.7773V46.6968H55.1611V42.0807Z" fill="black"/>
<path d="M78.2418 42.0807H82.858V46.6968H78.2418V42.0807Z" fill="black"/>
<path d="M101.323 42.0807H105.939V46.6968H101.323V42.0807Z" fill="black"/>
<path d="M124.403 42.0807H129.019V46.6968H124.403V42.0807Z" fill="black"/>
<path d="M147.484 42.0807H152.1V46.6968H147.484V42.0807Z" fill="black"/>
<path d="M170.565 42.0807H175.181V46.6968H170.565V42.0807Z" fill="black"/>
<path d="M193.645 42.0807H198.261V46.6968H193.645V42.0807Z" fill="black"/>
<path d="M216.726 42.0807H221.342V46.6968H216.726V42.0807Z" fill="black"/>
<path d="M55.1611 65.1614H59.7773V69.7775H55.1611V65.1614Z" fill="black"/>
<path d="M78.2418 65.1614H82.858V69.7775H78.2418V65.1614Z" fill="black"/>
<path d="M101.323 65.1614H105.939V69.7775H101.323V65.1614Z" fill="black"/>
<path d="M124.403 65.1614H129.019V69.7775H124.403V65.1614Z" fill="black"/>
<path d="M147.484 65.1614H152.1V69.7775H147.484V65.1614Z" fill="black"/>
<path d="M170.565 65.1614H175.181V69.7775H170.565V65.1614Z" fill="black"/>
<path d="M193.645 65.1614H198.261V69.7775H193.645V65.1614Z" fill="black"/>
<path d="M216.726 65.1614H221.342V69.7775H216.726V65.1614Z" fill="black"/>
<path d="M55.1611 88.2421H59.7773V92.8582H55.1611V88.2421Z" fill="black"/>
<path d="M78.2418 88.2421H82.858V92.8582H78.2418V88.2421Z" fill="black"/>
<path d="M101.323 88.2421H105.939V92.8582H101.323V88.2421Z" fill="black"/>
<path d="M124.403 88.2421H129.019V92.8582H124.403V88.2421Z" fill="black"/>
<path d="M147.484 88.2421H152.1V92.8582H147.484V88.2421Z" fill="black"/>
<path d="M170.565 88.2421H175.181V92.8582H170.565V88.2421Z" fill="black"/>
<path d="M193.645 88.2421H198.261V92.8582H193.645V88.2421Z" fill="black"/>
<path d="M216.726 88.2421H221.342V92.8582H216.726V88.2421Z" fill="black"/>
<path d="M55.1611 111.323H59.7773V115.939H55.1611V111.323Z" fill="black"/>
<path d="M78.2418 111.323H82.858V115.939H78.2418V111.323Z" fill="black"/>
<path d="M101.323 111.323H105.939V115.939H101.323V111.323Z" fill="black"/>
<path d="M124.403 111.323H129.019V115.939H124.403V111.323Z" fill="black"/>
<path d="M147.484 111.323H152.1V115.939H147.484V111.323Z" fill="black"/>
<path d="M170.565 111.323H175.181V115.939H170.565V111.323Z" fill="black"/>
<path d="M193.645 111.323H198.261V115.939H193.645V111.323Z" fill="black"/>
<path d="M216.726 111.323H221.342V115.939H216.726V111.323Z" fill="black"/>
<path d="M55.1611 134.403H59.7773V139.02H55.1611V134.403Z" fill="black"/>
<path d="M78.2418 134.403H82.858V139.02H78.2418V134.403Z" fill="black"/>
<path d="M101.323 134.403H105.939V139.02H101.323V134.403Z" fill="black"/>
<path d="M124.403 134.403H129.019V139.02H124.403V134.403Z" fill="black"/>
<path d="M147.484 134.403H152.1V139.02H147.484V134.403Z" fill="black"/>
<path d="M170.565 134.403H175.181V139.02H170.565V134.403Z" fill="black"/>
<path d="M193.645 134.403H198.261V139.02H193.645V134.403Z" fill="black"/>
<path d="M216.726 134.403H221.342V139.02H216.726V134.403Z" fill="black"/>
<path d="M55.1611 157.484H59.7773V162.1H55.1611V157.484Z" fill="black"/>
<path d="M78.2418 157.484H82.858V162.1H78.2418V157.484Z" fill="black"/>
<path d="M101.323 157.484H105.939V162.1H101.323V157.484Z" fill="black"/>
<path d="M124.403 157.484H129.019V162.1H124.403V157.484Z" fill="black"/>
<path d="M147.484 157.484H152.1V162.1H147.484V157.484Z" fill="black"/>
<path d="M170.565 157.484H175.181V162.1H170.565V157.484Z" fill="black"/>
<path d="M193.645 157.484H198.261V162.1H193.645V157.484Z" fill="black"/>
<path d="M216.726 157.484H221.342V162.1H216.726V157.484Z" fill="black"/>
<path d="M55.1611 180.565H59.7773V185.181H55.1611V180.565Z" fill="black"/>
<path d="M78.2418 180.565H82.858V185.181H78.2418V180.565Z" fill="black"/>
<path d="M101.323 180.565H105.939V185.181H101.323V180.565Z" fill="black"/>
<path d="M124.403 180.565H129.019V185.181H124.403V180.565Z" fill="black"/>
<path d="M147.484 180.565H152.1V185.181H147.484V180.565Z" fill="black"/>
<path d="M170.565 180.565H175.181V185.181H170.565V180.565Z" fill="black"/>
<path d="M193.645 180.565H198.261V185.181H193.645V180.565Z" fill="black"/>
<path d="M216.726 180.565H221.342V185.181H216.726V180.565Z" fill="black"/>
</svg>
