<svg width="96" height="96" viewBox="0 0 96 96" fill="none" xmlns="http://www.w3.org/2000/svg">
<path opacity="0.3" d="M65.802 16.7033C67.7213 17.7971 68.3905 20.2397 67.2967 22.1591C66.2029 24.0784 63.7602 24.7476 61.8409 23.6538C57.6592 21.2706 52.9268 20 48 20C32.536 20 20 32.536 20 48C20 63.464 32.536 76 48 76C52.8774 76 57.5645 74.7548 61.7162 72.4169C63.6411 71.3329 66.0803 72.0146 67.1643 73.9395C68.2483 75.8644 67.5665 78.3036 65.6416 79.3876C60.2994 82.396 54.2616 84 48 84C28.1178 84 12 67.8823 12 48C12 28.1177 28.1178 12 48 12C54.3251 12 60.4213 13.6367 65.802 16.7033Z" fill="#1C1C1E"/>
<path fill-rule="evenodd" clip-rule="evenodd" d="M74 24C79.5228 24 84 28.4772 84 34V62C84 67.5228 79.5228 72 74 72C68.4772 72 64 67.5228 64 62V34C64 28.4772 68.4772 24 74 24ZM74 48C77.3137 48 80 45.3137 80 42C80 38.6863 77.3137 36 74 36C70.6863 36 68 38.6863 68 42C68 45.3137 70.6863 48 74 48Z" fill="#1C1C1E"/>
</svg>
