<svg width="96" height="96" viewBox="0 0 96 96" fill="none" xmlns="http://www.w3.org/2000/svg">
<path opacity="0.3" d="M19.8125 57.2103L12.1875 54.7897C18.604 34.5776 30.6927 24 48 24C65.3073 24 77.396 34.5776 83.8125 54.7897L76.1875 57.2103C70.7522 40.0891 61.5075 32 48 32C34.4925 32 25.2478 40.0891 19.8125 57.2103ZM48 32C50.2091 32 52 30.2091 52 28C52 25.7909 50.2091 24 48 24C45.7909 24 44 25.7909 44 28C44 30.2091 45.7909 32 48 32Z" fill="#1C1C1E"/>
<path fill-rule="evenodd" clip-rule="evenodd" d="M22.9297 24H36.6828C38.3302 19.3392 42.7751 16 48 16C53.2249 16 57.6698 19.3392 59.3172 24H73.0703C74.4535 21.6088 77.0389 20 80 20C84.4183 20 88 23.5817 88 28C88 32.4183 84.4183 36 80 36C77.0389 36 74.4535 34.3912 73.0703 32H59.3172C57.6698 36.6608 53.2249 40 48 40C42.7751 40 38.3302 36.6608 36.6828 32H22.9297C21.5465 34.3912 18.9611 36 16 36C11.5817 36 8 32.4183 8 28C8 23.5817 11.5817 20 16 20C18.9611 20 21.5465 21.6088 22.9297 24ZM48 32C50.2091 32 52 30.2091 52 28C52 25.7909 50.2091 24 48 24C45.7909 24 44 25.7909 44 28C44 30.2091 45.7909 32 48 32ZM16 76C9.37258 76 4 70.6274 4 64C4 57.3726 9.37258 52 16 52C22.6274 52 28 57.3726 28 64C28 70.6274 22.6274 76 16 76ZM16 68C18.2091 68 20 66.2091 20 64C20 61.7909 18.2091 60 16 60C13.7909 60 12 61.7909 12 64C12 66.2091 13.7909 68 16 68ZM80 76C73.3726 76 68 70.6274 68 64C68 57.3726 73.3726 52 80 52C86.6274 52 92 57.3726 92 64C92 70.6274 86.6274 76 80 76ZM80 68C82.2091 68 84 66.2091 84 64C84 61.7909 82.2091 60 80 60C77.7909 60 76 61.7909 76 64C76 66.2091 77.7909 68 80 68Z" fill="#1C1C1E"/>
</svg>
