<svg width="96" height="96" viewBox="0 0 96 96" fill="none" xmlns="http://www.w3.org/2000/svg">
<path d="M44.1392 12.8879L16.5522 41.1722C14.9111 42.8547 14.1538 45.1002 14.2804 47.3023C14.295 47.5581 14.3119 47.8069 14.3336 48.0496C14.3336 48.1152 64.9544 48.1152 64.9544 48.1152C66.2191 46.8185 68.4764 44.5041 71.7262 41.1722L44.1392 12.8879ZM49.6566 7.23107L77.2436 35.5153C80.2907 38.6395 80.2907 43.7049 77.2436 46.8291L49.6566 75.1133C43.5622 81.3617 33.6813 81.3617 27.587 75.1133L11.0348 58.1428C4.9404 51.8944 4.9404 41.7637 11.0348 35.5153L38.6218 7.23107C41.6689 4.10688 46.6094 4.10688 49.6566 7.23107Z" fill="#1C1C1E"/>
<path opacity="0.3" fill-rule="evenodd" clip-rule="evenodd" d="M80.3946 88C86.8586 88 92.0988 82.6274 92.0988 76C92.0988 71.5817 88.1974 64.9151 80.3946 56C72.5918 64.9151 68.6904 71.5817 68.6904 76C68.6904 82.6274 73.9306 88 80.3946 88Z" fill="#1C1C1E"/>
</svg>
