<svg width="30" height="30" viewBox="0 0 36 36" fill="none" xmlns="http://www.w3.org/2000/svg">
    <path d="M9 13.5V22.5C9 24.9853 11.0147 27 13.5 27H22.5V28.2273C22.5 30.3487 21.3487 31.5 19.2273 31.5H7.77273C5.65127 31.5 4.5 30.3487 4.5 28.2273V16.7727C4.5 14.6513 5.65127 13.5 7.77273 13.5H9Z" fill="#1C1C1E"/>
    <path opacity="0.3" fill-rule="evenodd" clip-rule="evenodd" d="M15.2727 6H26.7273C28.8487 6 30 7.15127 30 9.27273V20.7273C30 22.8487 28.8487 24 26.7273 24H15.2727C13.1513 24 12 22.8487 12 20.7273V9.27273C12 7.15127 13.1513 6 15.2727 6Z" fill="#1C1C1E"/>
</svg>