<svg width="190" height="219" viewBox="0 0 190 219" fill="none" xmlns="http://www.w3.org/2000/svg">
<path d="M241.68 0.963571C235.402 0.269631 229.491 1.53613 223.719 3.77097C216.649 6.50451 209.663 9.39381 203.094 13.2092C202.909 13.3147 202.733 13.4413 202.544 13.5231C192.123 17.853 183.579 25.1565 174.341 31.3676C168.419 35.3544 162.444 39.2624 156.498 43.2123C150.715 47.054 144.88 50.8137 139.174 54.7689C129.801 61.2677 119.659 66.4049 109.697 71.8667C99.0003 77.7349 88.1562 83.3576 78.5438 91.0226C74.0246 94.6269 70.2001 98.7167 67.8313 104.068C67.0654 105.801 65.9915 107.419 65.3729 109.197C62.4882 117.53 56.4844 123.427 50.0543 128.931C44.7796 133.443 39.2522 137.667 33.8907 142.079C32.6062 143.139 31.4428 144.382 30.3426 145.646C25.7839 150.881 21.1567 156.066 16.7769 161.448C13.3263 165.688 9.68872 169.91 7.05667 174.654C3.37701 181.282 0.676514 188.415 0.615967 196.248C0.573853 201.552 2.20575 206.227 5.66428 210.201C7.45935 212.259 9.39658 214.217 11.4233 216.048C13.8027 218.201 16.6058 218.75 19.638 217.486C30.9007 212.792 42.0264 208.029 51.644 200.074C62.675 190.95 74.7352 183.171 86.8112 175.475C93.0097 171.522 99.2109 167.559 105.404 163.596C106.115 163.143 106.773 162.596 107.523 162.227C114.701 158.715 121.794 155.026 129.103 151.812C134.281 149.538 139.745 147.913 145.08 146.002C146.665 145.435 148.339 145.047 149.82 144.274C155.224 141.443 160.565 138.49 165.916 135.567C168.5 134.155 170.98 132.519 173.649 131.295C181.695 127.611 189.457 123.44 197.079 118.949C203.599 115.113 210.384 111.727 217.107 108.258C224.29 104.556 230.138 99.0386 236.487 94.2021C237.49 93.4369 238.287 92.392 239.329 91.7007C250.047 84.5925 257.97 74.6636 265.574 64.6213C270.909 57.5763 274.915 49.3865 276.507 40.608C278.308 30.7161 277.984 20.8583 271.67 12.1009C268.698 7.9848 264.945 5.20906 260.22 3.63121C254.187 1.61798 248.044 0.274908 241.68 0.963571ZM31.3349 151.311C31.7561 151.992 32.2614 152.575 32.4614 153.248C32.522 153.451 31.7561 153.905 31.3718 154.242C30.9954 153.604 30.569 152.979 30.2821 152.303C30.2295 152.19 30.7743 151.823 31.3349 151.311Z" fill="#3755BE"></path>
</svg>