<svg width="32" height="32" viewBox="0 0 32 32" fill="none" xmlns="http://www.w3.org/2000/svg">
<g clip-path="url(#clip0)">
<path d="M9.52222 19.3656L6.67222 20.5896L9.31197 21.7181L12.3722 20.5896L9.52222 19.3656ZM5.23772 20.8956L5.14222 26.4041L9.31197 28.2403V22.5213L5.23772 20.8956ZM13.8067 20.8956L10.0385 22.3303V27.7241L13.8067 26.1938V20.8956ZM18.3015 3.75781L15.4325 4.98181L18.0912 6.11056L21.1515 4.98181L18.3015 3.75781ZM14.323 5.38356V10.8921L17.8807 11.9251L17.9955 6.91356L14.323 5.38356ZM22.28 5.68956L18.9135 7.12406V12.5371L22.28 11.0068V5.68956ZM4.82647 11.5108L1.97672 12.7351L4.61622 13.8636L7.67647 12.7351L4.82647 11.5108ZM0.541972 13.0411L0.446472 18.5496L4.61622 20.3858V14.6668L0.541972 13.0411ZM9.11072 13.0411L5.34297 14.4756V19.8691L9.11072 18.3391V13.0411ZM14.0075 11.3068L11.1575 12.5311L13.797 13.6596L16.8572 12.5311L14.0075 11.3068ZM9.72322 12.8371L9.62747 18.3458L13.7972 20.1821V14.4628L9.72322 12.8371ZM18.292 12.8371L14.524 14.2716V19.6656L18.292 18.1353V12.8371ZM27.269 3.75781L24.4192 4.98181L27.059 6.11056L30.1192 4.98181L27.269 3.75781ZM22.9847 5.28806L22.8892 10.7966L27.059 12.6326V6.91356L22.9847 5.28806ZM31.5535 5.28806L27.7857 6.72256V12.1163L31.5535 10.5863V5.28806Z" fill="#F7A80D"/>
</g>
<defs>
<clipPath id="clip0">
<rect width="32" height="32" fill="white"/>
</clipPath>
</defs>
</svg>
