<svg xmlns="http://www.w3.org/2000/svg" width="24" height="24" viewBox="0 0 24 24" fill="none" className="injected-svg icon bg-primary" data-src="http://54.255.146.92/wp-content/uploads/2020/06/Interselect.svg">
    <path opacity="0.3" d="M6 9V15C6 16.6569 7.34315 18 9 18H15V18.8182C15 20.2325 14.2325 21 12.8182 21H5.18182C3.76751 21 3 20.2325 3 18.8182V11.1818C3 9.76751 3.76751 9 5.18182 9H6ZM17 16V10C17 8.34315 15.6569 7 14 7H8V6.18182C8 4.76751 8.76751 4 10.1818 4H17.8182C19.2325 4 20 4.76751 20 6.18182V13.8182C20 15.2325 19.2325 16 17.8182 16H17Z" fill="#1C1C1E"></path>
    <path fillRule="evenodd" clipRule="evenodd" d="M9.27273 9H13.7273C14.5523 9 15 9.44771 15 10.2727V14.7273C15 15.5523 14.5523 16 13.7273 16H9.27273C8.44771 16 8 15.5523 8 14.7273V10.2727C8 9.44771 8.44771 9 9.27273 9Z" fill="#1C1C1E"></path>
</svg>