<svg width="15" height="14" viewBox="0 0 15 14" fill="none" xmlns="http://www.w3.org/2000/svg">
<g clip-path="url(#clip0)">
<path d="M7.44727 10.061C7.37111 10.061 7.29627 10.0411 7.23016 10.0033L3.40039 7.81446C3.36711 7.79525 3.32936 7.78514 3.29094 7.78516C3.25251 7.78517 3.21476 7.79531 3.1815 7.81454C3.14824 7.83378 3.12063 7.86144 3.10145 7.89474C3.08228 7.92804 3.07221 7.9658 3.07227 8.00423V10.061C3.0722 10.1391 3.09304 10.2158 3.13261 10.2831C3.17218 10.3504 3.22905 10.4059 3.29731 10.4438L7.23481 12.6313C7.2998 12.6674 7.37292 12.6864 7.44727 12.6864C7.52161 12.6864 7.59474 12.6674 7.65973 12.6313L11.5972 10.4438C11.6655 10.4059 11.7224 10.3504 11.7619 10.2831C11.8015 10.2158 11.8223 10.1391 11.8223 10.061V8.00423C11.8223 7.9658 11.8123 7.92804 11.7931 7.89474C11.7739 7.86144 11.7463 7.83378 11.713 7.81454C11.6798 7.79531 11.642 7.78517 11.6036 7.78516C11.5652 7.78514 11.5274 7.79525 11.4941 7.81446L7.66438 10.0033C7.59826 10.0411 7.52342 10.061 7.44727 10.061Z" fill="#48484A"/>
<path d="M14.0081 5.20896C14.0081 5.20896 14.0081 5.20677 14.0081 5.20595C14.001 5.1366 13.9775 5.06995 13.9394 5.01154C13.9014 4.95313 13.8499 4.90466 13.7893 4.87017L7.66433 1.37017C7.59822 1.33238 7.52338 1.3125 7.44722 1.3125C7.37107 1.3125 7.29623 1.33238 7.23011 1.37017L1.10511 4.87017C1.03817 4.90844 0.982537 4.96373 0.943841 5.03043C0.905146 5.09712 0.884766 5.17286 0.884766 5.24997C0.884766 5.32708 0.905146 5.40282 0.943841 5.46952C0.982537 5.53622 1.03817 5.59151 1.10511 5.62978L7.23011 9.12978C7.29623 9.16757 7.37107 9.18745 7.44722 9.18745C7.52338 9.18745 7.59822 9.16757 7.66433 9.12978L13.0532 6.0506C13.0616 6.04579 13.071 6.04326 13.0806 6.04327C13.0903 6.04328 13.0997 6.04583 13.108 6.05065C13.1163 6.05548 13.1232 6.06241 13.128 6.07076C13.1328 6.0791 13.1353 6.08856 13.1353 6.09818V10.0502C13.1353 10.2856 13.3163 10.4877 13.5517 10.4994C13.6109 10.5023 13.67 10.4931 13.7255 10.4724C13.781 10.4517 13.8317 10.42 13.8746 10.3792C13.9175 10.3383 13.9516 10.2892 13.9749 10.2347C13.9982 10.1803 14.0103 10.1217 14.0103 10.0625V5.24997C14.0102 5.23627 14.0095 5.22258 14.0081 5.20896Z" fill="#48484A"/>
</g>
<defs>
<clipPath id="clip0">
<rect width="14" height="14" fill="white" transform="translate(0.447266)"/>
</clipPath>
</defs>
</svg>
