<svg width="137" height="93" viewBox="0 0 137 93" fill="none" xmlns="http://www.w3.org/2000/svg">
<path d="M14.8382 28.3991L105.211 4.18376C108.941 11.3792 116.707 15.6903 124.831 14.9932L132.778 44.6551C125.15 48.2278 120.525 56.2387 121.245 64.6315L31.1763 88.7654C27.718 81.3813 20.1014 76.8113 12.0052 77.1791L3.97588 47.2132C10.9332 43.6071 15.1939 36.2273 14.8382 28.3991Z" fill="#F2F2F7"/>
<g clip-path="url(#clip0)">
<path d="M59.8349 35.8435C54.2526 36.2992 50.3207 38.4404 49.425 41.8085C48.7537 44.3106 49.883 47.0885 52.465 49.6875C52.5175 49.7402 52.5798 49.782 52.6484 49.8106C52.717 49.8392 52.7905 49.854 52.8648 49.8542C52.9392 49.8544 53.0128 49.8399 53.0815 49.8116C53.1503 49.7834 53.2127 49.7418 53.2654 49.6894C53.3181 49.637 53.3599 49.5747 53.3885 49.5061C53.4171 49.4375 53.432 49.3639 53.4321 49.2896C53.4323 49.2153 53.4178 49.1416 53.3896 49.0729C53.3613 49.0042 53.3197 48.9417 53.2673 48.889C50.9408 46.547 49.9647 44.1489 50.5113 42.0851C51.2579 39.3008 54.7627 37.3732 59.9254 36.9664C60.0748 36.9543 60.2133 36.8833 60.3103 36.7691C60.4074 36.6549 60.4551 36.5067 60.443 36.3573C60.4308 36.2079 60.3599 36.0695 60.2456 35.9724C60.1314 35.8753 59.9833 35.8276 59.8339 35.8398L59.8349 35.8435ZM56.2291 52.6684C59.2837 54.5758 62.6118 56.0053 66.0982 56.9074C75.0077 59.2837 83.5378 58.2883 86.8716 54.4336C86.9691 54.3201 87.0175 54.1725 87.0062 54.0233C86.9949 53.8741 86.9247 53.7355 86.8112 53.638C86.6977 53.5405 86.5501 53.4921 86.4009 53.5034C86.2517 53.5147 86.1131 53.5848 86.0156 53.6983C83.0276 57.1547 74.9033 58.1089 66.3775 55.8164C63.008 54.9422 59.7915 53.5592 56.839 51.7151C56.7121 51.6343 56.5583 51.6073 56.4115 51.6399C56.2646 51.6726 56.1368 51.7622 56.056 51.8891C55.9753 52.0161 55.9483 52.1698 55.9809 52.3167C56.0135 52.4635 56.1032 52.5914 56.2301 52.6721L56.2291 52.6684Z" fill="#47848F"/>
<path d="M82.8761 44.815C85.2587 39.7663 85.364 35.3 82.9139 32.8522C81.1126 31.0483 78.2071 30.6201 74.7359 31.5025C74.591 31.5414 74.4675 31.6362 74.3925 31.7661C74.3175 31.896 74.2972 32.0503 74.336 32.1952C74.3748 32.3401 74.4696 32.4636 74.5995 32.5386C74.7294 32.6136 74.8838 32.634 75.0287 32.5952C78.1508 31.8023 80.6515 32.1722 82.1311 33.6495C84.1651 35.6848 84.0693 39.6682 81.87 44.3343C81.8384 44.4014 81.8204 44.4741 81.8169 44.5482C81.8135 44.6222 81.8246 44.6962 81.8498 44.766C81.8749 44.8357 81.9135 44.8999 81.9635 44.9547C82.0134 45.0095 82.0736 45.054 82.1407 45.0855C82.2078 45.117 82.2805 45.1351 82.3545 45.1385C82.4286 45.142 82.5026 45.1308 82.5724 45.1057C82.6421 45.0806 82.7062 45.0419 82.7611 44.992C82.8159 44.9421 82.8603 44.8819 82.8919 44.8148L82.8761 44.815ZM70.1866 33.2654C66.9749 34.9577 64.0437 37.1357 61.4964 39.7224C54.7652 46.4682 51.3803 54.6357 53.4056 59.3648C53.4662 59.5065 53.5806 59.6183 53.7236 59.6756C53.8667 59.7329 54.0266 59.7311 54.1683 59.6705C54.31 59.6099 54.4218 59.4955 54.4792 59.3525C54.5365 59.2094 54.5347 59.0495 54.4741 58.9078C52.6484 54.7167 55.8526 46.9708 62.2949 40.5246C64.7572 38.0162 67.592 35.9029 70.6991 34.2594C70.7651 34.2256 70.8238 34.179 70.8718 34.1225C70.9198 34.066 70.9563 34.0006 70.979 33.93C71.0017 33.8594 71.0103 33.785 71.0043 33.7111C70.9983 33.6371 70.9778 33.5651 70.944 33.4991C70.9101 33.4331 70.8636 33.3744 70.8071 33.3264C70.7506 33.2784 70.6851 33.242 70.6145 33.2192C70.5439 33.1965 70.4695 33.1879 70.3956 33.1939C70.3217 33.1999 70.2497 33.2204 70.1837 33.2543L70.1866 33.2654Z" fill="#47848F"/>
<path d="M63.5795 60.2893C66.794 64.8783 70.5995 67.2289 73.9514 66.3307C76.3959 65.6757 78.2086 63.4037 79.1856 59.9979C79.2302 59.8538 79.2157 59.6979 79.1453 59.5646C79.075 59.4312 78.9545 59.3312 78.8104 59.2866C78.6663 59.2421 78.5105 59.2565 78.3771 59.3269C78.2437 59.3973 78.1437 59.5177 78.0991 59.6618C77.2205 62.7236 75.6611 64.6817 73.6574 65.2186C70.8722 65.9649 67.4683 63.8838 64.5227 59.6316C64.4372 59.5087 64.3063 59.4249 64.1589 59.3985C64.0115 59.3721 63.8596 59.4053 63.7367 59.4909C63.6139 59.5765 63.53 59.7074 63.5036 59.8548C63.4772 60.0022 63.5105 60.154 63.596 60.2769L63.5795 60.2893ZM79.9794 54.8271C80.0861 51.284 79.661 47.7449 78.7183 44.3278C76.2958 35.2869 71.0457 28.3455 66.0014 27.5495C65.853 27.5261 65.7014 27.5626 65.5799 27.651C65.4584 27.7394 65.377 27.8724 65.3536 28.0208C65.3302 28.1692 65.3667 28.3208 65.4551 28.4423C65.5435 28.5638 65.6765 28.6452 65.8249 28.6686C70.3218 29.377 75.3212 35.9609 77.6405 44.6166C78.5529 47.9234 78.9648 51.3482 78.8624 54.777C78.8562 54.9266 78.9096 55.0726 79.011 55.1828C79.1124 55.293 79.2534 55.3584 79.403 55.3646C79.5526 55.3708 79.6985 55.3174 79.8087 55.216C79.9189 55.1147 79.9843 54.9737 79.9905 54.8241L79.9794 54.8271Z" fill="#47848F"/>
<path d="M90.0997 51.5478C89.9613 51.0313 89.6729 50.5675 89.2709 50.215C88.8689 49.8625 88.3715 49.6371 87.8414 49.5673C87.3113 49.4975 86.7724 49.5865 86.2929 49.823C85.8134 50.0594 85.4148 50.4328 85.1474 50.8958C84.8801 51.3588 84.7561 51.8907 84.7911 52.4242C84.826 52.9577 85.0184 53.4689 85.3439 53.8931C85.6694 54.3172 86.1133 54.6354 86.6196 54.8072C87.1259 54.9791 87.6718 54.9969 88.1882 54.8586C88.5311 54.7667 88.8525 54.6082 89.1342 54.3921C89.4158 54.176 89.6521 53.9065 89.8296 53.5991C90.0071 53.2916 90.1223 52.9522 90.1687 52.6003C90.215 52.2483 90.1916 51.8907 90.0997 51.5478ZM89.0071 51.8405C89.0875 52.1409 89.0772 52.4583 88.9772 52.7528C88.8773 53.0472 88.6923 53.3054 88.4456 53.4947C88.1989 53.6839 87.9016 53.7958 87.5914 53.8162C87.2811 53.8365 86.9718 53.7644 86.7025 53.6089C86.4332 53.4534 86.2161 53.2216 86.0786 52.9428C85.941 52.6639 85.8893 52.3505 85.9299 52.0422C85.9705 51.734 86.1016 51.4446 86.3066 51.2109C86.5116 50.9771 86.7813 50.8094 87.0816 50.7289C87.4844 50.621 87.9135 50.6775 88.2746 50.8859C88.6357 51.0944 88.8992 51.4378 89.0071 51.8405Z" fill="#47848F"/>
<path d="M55.8464 63.5226C56.3628 63.3843 56.8266 63.0958 57.1792 62.6939C57.5317 62.2919 57.7571 61.7944 57.8269 61.2643C57.8967 60.7343 57.8077 60.1954 57.5712 59.7159C57.3347 59.2364 56.9614 58.8377 56.4984 58.5704C56.0353 58.3031 55.5034 58.1791 54.9699 58.214C54.4364 58.249 53.9253 58.4414 53.5011 58.7669C53.0769 59.0923 52.7588 59.5363 52.5869 60.0426C52.4151 60.5488 52.3972 61.0947 52.5356 61.6111C52.7212 62.3037 53.1742 62.8941 53.7951 63.2526C54.416 63.6111 55.1539 63.7082 55.8464 63.5226ZM55.5536 62.43C55.2533 62.5105 54.9358 62.5001 54.6414 62.4002C54.347 62.3002 54.0888 62.1152 53.8995 61.8685C53.7102 61.6218 53.5983 61.3246 53.578 61.0143C53.5577 60.704 53.6298 60.3947 53.7853 60.1254C53.9407 59.8562 54.1725 59.639 54.4514 59.5015C54.7303 59.364 55.0437 59.3122 55.3519 59.3528C55.6602 59.3934 55.9495 59.5245 56.1833 59.7295C56.4171 59.9345 56.5848 60.2043 56.6653 60.5046C56.7732 60.9073 56.7167 61.3365 56.5082 61.6975C56.2997 62.0586 55.9564 62.3221 55.5536 62.43Z" fill="#47848F"/>
<path d="M64.4372 30.8273C64.9536 30.6889 65.4175 30.4005 65.77 29.9986C66.1225 29.5966 66.3479 29.0991 66.4177 28.569C66.4875 28.0389 66.3985 27.5001 66.162 27.0206C65.9256 26.541 65.5522 26.1424 65.0892 25.8751C64.6262 25.6078 64.0943 25.4837 63.5608 25.5187C63.0272 25.5537 62.5161 25.7461 62.0919 26.0715C61.6678 26.397 61.3496 26.841 61.1778 27.3472C61.0059 27.8535 60.988 28.3994 61.1264 28.9158C61.312 29.6084 61.765 30.1988 62.3859 30.5573C63.0068 30.9157 63.7447 31.0129 64.4372 30.8273ZM64.1445 29.7347C63.8441 29.8152 63.5267 29.8048 63.2322 29.7049C62.9378 29.6049 62.6796 29.4199 62.4903 29.1732C62.301 28.9265 62.1892 28.6293 62.1688 28.319C62.1485 28.0087 62.2206 27.6994 62.3761 27.4301C62.5315 27.1609 62.7634 26.9437 63.0422 26.8062C63.3211 26.6687 63.6345 26.6169 63.9428 26.6575C64.251 26.6981 64.5403 26.8292 64.7741 27.0342C65.0079 27.2392 65.1756 27.5089 65.2561 27.8093C65.364 28.212 65.3075 28.6411 65.099 29.0022C64.8906 29.3633 64.5472 29.6268 64.1445 29.7347Z" fill="#47848F"/>
<path d="M69.6637 48.7328C69.3206 48.9123 68.9318 48.9858 68.5468 48.9441C68.1618 48.9024 67.7978 48.7474 67.501 48.4986C67.2042 48.2497 66.988 47.9184 66.8797 47.5466C66.7715 47.1747 66.7761 46.7791 66.893 46.4099C67.0098 46.0406 67.2337 45.7144 67.5362 45.4726C67.8387 45.2307 68.2061 45.0842 68.592 45.0514C68.9779 45.0187 69.3649 45.1013 69.7038 45.2887C70.0427 45.4761 70.3183 45.76 70.4957 46.1042C70.7323 46.5634 70.7776 47.0976 70.6217 47.5901C70.4659 48.0825 70.1215 48.4933 69.6637 48.7328Z" fill="#47848F"/>
</g>
<defs>
<clipPath id="clip0">
<rect width="49.0804" height="49.0804" fill="white" transform="translate(38.4189 28.6172) rotate(-15)"/>
</clipPath>
</defs>
</svg>
