<svg width="130" height="85" viewBox="0 0 130 85" fill="none" xmlns="http://www.w3.org/2000/svg">
<path d="M11.8382 24.3991L102.211 0.183761C105.941 7.37923 113.707 11.6903 121.831 10.9932L129.778 40.6551C122.15 44.2278 117.525 52.2387 118.245 60.6315L28.1763 84.7654C24.718 77.3813 17.1014 72.8113 9.00524 73.1791L0.975884 43.2132C7.93318 39.6071 12.1939 32.2273 11.8382 24.3991Z" fill="black"/>
<path fill-rule="evenodd" clip-rule="evenodd" d="M74.6198 36.85C74.0074 35.1126 73.132 33.5136 72.1029 31.9931C69.8987 28.5728 67.0831 25.7775 63.6035 23.6556C62.7237 23.1188 61.7831 22.6631 61.0638 21.8944C60.6088 21.4081 60.1662 20.9102 59.7177 20.4175L59.4044 19.9961C59.4019 20.1127 59.3922 20.1566 59.4015 20.1958C59.6272 21.1344 59.2685 21.9082 58.7688 22.6744C58.2071 23.5367 57.7117 24.442 57.1874 25.3283C56.7153 26.4822 56.2436 27.6359 55.7722 28.7892C55.4729 30.0305 55.1743 31.2717 54.8756 32.5128L54.5493 36.0209L54.5271 36.0801C54.4491 38.3907 54.7169 40.6729 55.1535 42.9338C55.3177 43.7833 55.6117 44.6112 55.8834 45.4368C56.2715 46.617 56.7952 47.739 57.418 48.8146C59.6807 52.7226 62.9184 55.5997 66.86 57.7248C67.5926 58.1196 68.327 58.4603 69.078 58.8216C69.0867 58.4362 69.0743 58.0565 69.0733 57.6737C69.0727 57.2923 69.0738 56.9125 69.0422 56.5383C69.0734 56.9126 69.0961 57.2861 69.12 57.6611L69.1013 58.8154L69.6229 59.6684L70.2617 61.0391L70.7846 62.5079C70.8652 62.813 70.9349 63.1218 71.035 63.4213C71.0602 63.4979 71.1817 63.5423 71.2588 63.6019L71.8164 63.6442L72.4029 63.7086L71.9542 62.3985L71.598 61.0855L71.2449 59.0345L71.2611 58.563L71.4609 57.787C71.8293 57.2833 72.2414 56.8053 72.5566 56.2703C73.1268 55.3021 73.6926 54.3248 74.162 53.3063C74.7715 51.985 75.2288 50.5985 75.5107 49.1674C75.6995 48.2101 75.8594 47.2423 75.9462 46.2715C76.0226 45.4158 75.9799 44.5496 75.9899 43.6878C75.9945 43.6247 76.0059 43.5609 76.0028 43.4986C75.8875 41.2108 75.3802 39.0047 74.6198 36.85ZM70.7794 57.4793L70.3063 56.9062L70.7794 57.4793L71.3178 57.736L70.7794 57.4793Z" fill="#4FAA41"/>
</svg>
