<svg width="1439" height="600" viewBox="0 0 1439 600" fill="none" xmlns="http://www.w3.org/2000/svg">
<path d="M70.6859 -353.767V-424.453H0L70.6859 -353.767Z" fill="black"/>
<path d="M141.372 -353.767V-424.453H70.6859L141.372 -353.767Z" fill="black"/>
<path d="M141.372 -283.081V-353.767H70.6859L141.372 -283.081Z" fill="black"/>
<path d="M214.819 -353.767V-424.453H144.133L214.819 -353.767Z" fill="black"/>
<path d="M285.505 -353.767V-424.453H214.819L285.505 -353.767Z" fill="black"/>
<path d="M285.505 -283.081V-353.767H214.819L285.505 -283.081Z" fill="black"/>
<path d="M358.952 -353.767V-424.453H288.266L358.952 -353.767Z" fill="black"/>
<path d="M429.638 -353.767V-424.453H358.952L429.638 -353.767Z" fill="black"/>
<path d="M429.638 -283.081V-353.767H358.952L429.638 -283.081Z" fill="black"/>
<path d="M503.085 -353.767V-424.453H432.399L503.085 -353.767Z" fill="black"/>
<path d="M573.771 -353.767V-424.453H503.085L573.771 -353.767Z" fill="black"/>
<path d="M573.771 -283.081V-353.767H503.085L573.771 -283.081Z" fill="black"/>
<path d="M647.218 -353.767V-424.453H576.532L647.218 -353.767Z" fill="black"/>
<path d="M717.904 -353.767V-424.453H647.218L717.904 -353.767Z" fill="black"/>
<path d="M717.904 -283.081V-353.767H647.218L717.904 -283.081Z" fill="black"/>
<path d="M791.351 -353.767V-424.453H720.665L791.351 -353.767Z" fill="black"/>
<path d="M862.036 -353.767V-424.453H791.351L862.036 -353.767Z" fill="black"/>
<path d="M862.036 -283.081V-353.767H791.351L862.036 -283.081Z" fill="black"/>
<path d="M935.484 -353.767V-424.453H864.798L935.484 -353.767Z" fill="black"/>
<path d="M1006.17 -353.767V-424.453H935.484L1006.17 -353.767Z" fill="black"/>
<path d="M1006.17 -283.081V-353.767H935.484L1006.17 -283.081Z" fill="black"/>
<path d="M1079.62 -353.767V-424.453H1008.93L1079.62 -353.767Z" fill="black"/>
<path d="M1150.3 -353.767V-424.453H1079.62L1150.3 -353.767Z" fill="black"/>
<path d="M1150.3 -283.081V-353.767H1079.62L1150.3 -283.081Z" fill="black"/>
<path d="M1223.75 -353.767V-424.453H1153.06L1223.75 -353.767Z" fill="black"/>
<path d="M1294.44 -353.767V-424.453H1223.75L1294.44 -353.767Z" fill="black"/>
<path d="M1294.44 -283.081V-353.767H1223.75L1294.44 -283.081Z" fill="black"/>
<path d="M1367.88 -353.767V-424.453H1297.2L1367.88 -353.767Z" fill="black"/>
<path d="M1438.57 -353.767V-424.453H1367.88L1438.57 -353.767Z" fill="black"/>
<path d="M1438.57 -283.081V-353.767H1367.88L1438.57 -283.081Z" fill="black"/>
<path d="M70.6859 -212.395V-283.081H0L70.6859 -212.395Z" fill="black"/>
<path d="M141.372 -212.395V-283.081H70.6859L141.372 -212.395Z" fill="black"/>
<path d="M141.372 -141.71V-212.395H70.6859L141.372 -141.71Z" fill="black"/>
<path d="M214.819 -212.395V-283.081H144.133L214.819 -212.395Z" fill="black"/>
<path d="M285.505 -212.395V-283.081H214.819L285.505 -212.395Z" fill="black"/>
<path d="M285.505 -141.71V-212.395H214.819L285.505 -141.71Z" fill="black"/>
<path d="M358.952 -212.395V-283.081H288.266L358.952 -212.395Z" fill="black"/>
<path d="M429.638 -212.395V-283.081H358.952L429.638 -212.395Z" fill="black"/>
<path d="M429.638 -141.71V-212.395H358.952L429.638 -141.71Z" fill="black"/>
<path d="M503.085 -212.395V-283.081H432.399L503.085 -212.395Z" fill="black"/>
<path d="M573.771 -212.395V-283.081H503.085L573.771 -212.395Z" fill="black"/>
<path d="M573.771 -141.71V-212.395H503.085L573.771 -141.71Z" fill="black"/>
<path d="M647.218 -212.395V-283.081H576.532L647.218 -212.395Z" fill="black"/>
<path d="M717.904 -212.395V-283.081H647.218L717.904 -212.395Z" fill="black"/>
<path d="M717.904 -141.71V-212.395H647.218L717.904 -141.71Z" fill="black"/>
<path d="M791.351 -212.395V-283.081H720.665L791.351 -212.395Z" fill="black"/>
<path d="M862.036 -212.395V-283.081H791.351L862.036 -212.395Z" fill="black"/>
<path d="M862.036 -141.71V-212.395H791.351L862.036 -141.71Z" fill="black"/>
<path d="M935.484 -212.395V-283.081H864.798L935.484 -212.395Z" fill="black"/>
<path d="M1006.17 -212.395V-283.081H935.484L1006.17 -212.395Z" fill="black"/>
<path d="M1006.17 -141.71V-212.395H935.484L1006.17 -141.71Z" fill="black"/>
<path d="M1079.62 -212.395V-283.081H1008.93L1079.62 -212.395Z" fill="black"/>
<path d="M1150.3 -212.395V-283.081H1079.62L1150.3 -212.395Z" fill="black"/>
<path d="M1150.3 -141.71V-212.395H1079.62L1150.3 -141.71Z" fill="black"/>
<path d="M1223.75 -212.395V-283.081H1153.06L1223.75 -212.395Z" fill="black"/>
<path d="M1294.44 -212.395V-283.081H1223.75L1294.44 -212.395Z" fill="black"/>
<path d="M1294.44 -141.71V-212.395H1223.75L1294.44 -141.71Z" fill="black"/>
<path d="M1367.88 -212.395V-283.081H1297.2L1367.88 -212.395Z" fill="black"/>
<path d="M1438.57 -212.395V-283.081H1367.88L1438.57 -212.395Z" fill="black"/>
<path d="M1438.57 -141.71V-212.395H1367.88L1438.57 -141.71Z" fill="black"/>
<path d="M70.6859 -71.0237V-141.71H0L70.6859 -71.0237Z" fill="black"/>
<path d="M141.372 -71.0237V-141.71H70.6859L141.372 -71.0237Z" fill="black"/>
<path d="M141.372 -0.337769V-71.0237H70.6859L141.372 -0.337769Z" fill="black"/>
<path d="M214.819 -71.0237V-141.71H144.133L214.819 -71.0237Z" fill="black"/>
<path d="M285.505 -71.0237V-141.71H214.819L285.505 -71.0237Z" fill="black"/>
<path d="M285.505 -0.337769V-71.0237H214.819L285.505 -0.337769Z" fill="black"/>
<path d="M358.952 -71.0237V-141.71H288.266L358.952 -71.0237Z" fill="black"/>
<path d="M429.638 -71.0237V-141.71H358.952L429.638 -71.0237Z" fill="black"/>
<path d="M429.638 -0.337769V-71.0237H358.952L429.638 -0.337769Z" fill="black"/>
<path d="M503.085 -71.0237V-141.71H432.399L503.085 -71.0237Z" fill="black"/>
<path d="M573.771 -71.0237V-141.71H503.085L573.771 -71.0237Z" fill="black"/>
<path d="M573.771 -0.337769V-71.0237H503.085L573.771 -0.337769Z" fill="black"/>
<path d="M647.218 -71.0237V-141.71H576.532L647.218 -71.0237Z" fill="black"/>
<path d="M717.904 -71.0237V-141.71H647.218L717.904 -71.0237Z" fill="black"/>
<path d="M717.904 -0.337769V-71.0237H647.218L717.904 -0.337769Z" fill="black"/>
<path d="M791.351 -71.0237V-141.71H720.665L791.351 -71.0237Z" fill="black"/>
<path d="M862.036 -71.0237V-141.71H791.351L862.036 -71.0237Z" fill="black"/>
<path d="M862.036 -0.337769V-71.0237H791.351L862.036 -0.337769Z" fill="black"/>
<path d="M935.484 -71.0237V-141.71H864.798L935.484 -71.0237Z" fill="black"/>
<path d="M1006.17 -71.0237V-141.71H935.484L1006.17 -71.0237Z" fill="black"/>
<path d="M1006.17 -0.337769V-71.0237H935.484L1006.17 -0.337769Z" fill="black"/>
<path d="M1079.62 -71.0237V-141.71H1008.93L1079.62 -71.0237Z" fill="black"/>
<path d="M1150.3 -71.0237V-141.71H1079.62L1150.3 -71.0237Z" fill="black"/>
<path d="M1150.3 -0.337769V-71.0237H1079.62L1150.3 -0.337769Z" fill="black"/>
<path d="M1223.75 -71.0237V-141.71H1153.06L1223.75 -71.0237Z" fill="black"/>
<path d="M1294.44 -71.0237V-141.71H1223.75L1294.44 -71.0237Z" fill="black"/>
<path d="M1294.44 -0.337769V-71.0237H1223.75L1294.44 -0.337769Z" fill="black"/>
<path d="M1367.88 -71.0237V-141.71H1297.2L1367.88 -71.0237Z" fill="black"/>
<path d="M1438.57 -71.0237V-141.71H1367.88L1438.57 -71.0237Z" fill="black"/>
<path d="M1438.57 -0.337769V-71.0237H1367.88L1438.57 -0.337769Z" fill="black"/>
<path d="M70.6859 70.3481V-0.337769H0L70.6859 70.3481Z" fill="black"/>
<path d="M141.372 70.3481V-0.337769H70.6859L141.372 70.3481Z" fill="black"/>
<path d="M141.372 141.034V70.3481H70.6859L141.372 141.034Z" fill="black"/>
<path d="M214.819 70.3481V-0.337769H144.133L214.819 70.3481Z" fill="black"/>
<path d="M285.505 70.3481V-0.337769H214.819L285.505 70.3481Z" fill="black"/>
<path d="M285.505 141.034V70.3481H214.819L285.505 141.034Z" fill="black"/>
<path d="M358.952 70.3481V-0.337769H288.266L358.952 70.3481Z" fill="black"/>
<path d="M429.638 70.3481V-0.337769H358.952L429.638 70.3481Z" fill="black"/>
<path d="M429.638 141.034V70.3481H358.952L429.638 141.034Z" fill="black"/>
<path d="M503.085 70.3481V-0.337769H432.399L503.085 70.3481Z" fill="black"/>
<path d="M573.771 70.3481V-0.337769H503.085L573.771 70.3481Z" fill="black"/>
<path d="M573.771 141.034V70.3481H503.085L573.771 141.034Z" fill="black"/>
<path d="M647.218 70.3481V-0.337769H576.532L647.218 70.3481Z" fill="black"/>
<path d="M717.904 70.3481V-0.337769H647.218L717.904 70.3481Z" fill="black"/>
<path d="M717.904 141.034V70.3481H647.218L717.904 141.034Z" fill="black"/>
<path d="M791.351 70.3481V-0.337769H720.665L791.351 70.3481Z" fill="black"/>
<path d="M862.036 70.3481V-0.337769H791.351L862.036 70.3481Z" fill="black"/>
<path d="M862.036 141.034V70.3481H791.351L862.036 141.034Z" fill="black"/>
<path d="M935.484 70.3481V-0.337769H864.798L935.484 70.3481Z" fill="black"/>
<path d="M1006.17 70.3481V-0.337769H935.484L1006.17 70.3481Z" fill="black"/>
<path d="M1006.17 141.034V70.3481H935.484L1006.17 141.034Z" fill="black"/>
<path d="M1079.62 70.3481V-0.337769H1008.93L1079.62 70.3481Z" fill="black"/>
<path d="M1150.3 70.3481V-0.337769H1079.62L1150.3 70.3481Z" fill="black"/>
<path d="M1150.3 141.034V70.3481H1079.62L1150.3 141.034Z" fill="black"/>
<path d="M1223.75 70.3481V-0.337769H1153.06L1223.75 70.3481Z" fill="black"/>
<path d="M1294.44 70.3481V-0.337769H1223.75L1294.44 70.3481Z" fill="black"/>
<path d="M1294.44 141.034V70.3481H1223.75L1294.44 141.034Z" fill="black"/>
<path d="M1367.88 70.3481V-0.337769H1297.2L1367.88 70.3481Z" fill="black"/>
<path d="M1438.57 70.3481V-0.337769H1367.88L1438.57 70.3481Z" fill="black"/>
<path d="M1438.57 141.034V70.3481H1367.88L1438.57 141.034Z" fill="black"/>
<path d="M70.6859 211.72V141.034H0L70.6859 211.72Z" fill="black"/>
<path d="M141.372 211.72V141.034H70.6859L141.372 211.72Z" fill="black"/>
<path d="M141.372 282.406V211.72H70.6859L141.372 282.406Z" fill="black"/>
<path d="M214.819 211.72V141.034H144.133L214.819 211.72Z" fill="black"/>
<path d="M285.505 211.72V141.034H214.819L285.505 211.72Z" fill="black"/>
<path d="M285.505 282.406V211.72H214.819L285.505 282.406Z" fill="black"/>
<path d="M358.952 211.72V141.034H288.266L358.952 211.72Z" fill="black"/>
<path d="M429.638 211.72V141.034H358.952L429.638 211.72Z" fill="black"/>
<path d="M429.638 282.406V211.72H358.952L429.638 282.406Z" fill="black"/>
<path d="M503.085 211.72V141.034H432.399L503.085 211.72Z" fill="black"/>
<path d="M573.771 211.72V141.034H503.085L573.771 211.72Z" fill="black"/>
<path d="M573.771 282.406V211.72H503.085L573.771 282.406Z" fill="black"/>
<path d="M647.218 211.72V141.034H576.532L647.218 211.72Z" fill="black"/>
<path d="M717.904 211.72V141.034H647.218L717.904 211.72Z" fill="black"/>
<path d="M717.904 282.406V211.72H647.218L717.904 282.406Z" fill="black"/>
<path d="M791.351 211.72V141.034H720.665L791.351 211.72Z" fill="black"/>
<path d="M862.036 211.72V141.034H791.351L862.036 211.72Z" fill="black"/>
<path d="M862.036 282.406V211.72H791.351L862.036 282.406Z" fill="black"/>
<path d="M935.484 211.72V141.034H864.798L935.484 211.72Z" fill="black"/>
<path d="M1006.17 211.72V141.034H935.484L1006.17 211.72Z" fill="black"/>
<path d="M1006.17 282.406V211.72H935.484L1006.17 282.406Z" fill="black"/>
<path d="M1079.62 211.72V141.034H1008.93L1079.62 211.72Z" fill="black"/>
<path d="M1150.3 211.72V141.034H1079.62L1150.3 211.72Z" fill="black"/>
<path d="M1150.3 282.406V211.72H1079.62L1150.3 282.406Z" fill="black"/>
<path d="M1223.75 211.72V141.034H1153.06L1223.75 211.72Z" fill="black"/>
<path d="M1294.44 211.72V141.034H1223.75L1294.44 211.72Z" fill="black"/>
<path d="M1294.44 282.406V211.72H1223.75L1294.44 282.406Z" fill="black"/>
<path d="M1367.88 211.72V141.034H1297.2L1367.88 211.72Z" fill="black"/>
<path d="M1438.57 211.72V141.034H1367.88L1438.57 211.72Z" fill="black"/>
<path d="M1438.57 282.406V211.72H1367.88L1438.57 282.406Z" fill="black"/>
<path d="M70.6859 353.092V282.406H0L70.6859 353.092Z" fill="black"/>
<path d="M141.372 353.092V282.406H70.6859L141.372 353.092Z" fill="black"/>
<path d="M141.372 423.778V353.092H70.6859L141.372 423.778Z" fill="black"/>
<path d="M214.819 353.092V282.406H144.133L214.819 353.092Z" fill="black"/>
<path d="M285.505 353.092V282.406H214.819L285.505 353.092Z" fill="black"/>
<path d="M285.505 423.778V353.092H214.819L285.505 423.778Z" fill="black"/>
<path d="M358.952 353.092V282.406H288.266L358.952 353.092Z" fill="black"/>
<path d="M429.638 353.092V282.406H358.952L429.638 353.092Z" fill="black"/>
<path d="M429.638 423.778V353.092H358.952L429.638 423.778Z" fill="black"/>
<path d="M503.085 353.092V282.406H432.399L503.085 353.092Z" fill="black"/>
<path d="M573.771 353.092V282.406H503.085L573.771 353.092Z" fill="black"/>
<path d="M573.771 423.778V353.092H503.085L573.771 423.778Z" fill="black"/>
<path d="M647.218 353.092V282.406H576.532L647.218 353.092Z" fill="black"/>
<path d="M717.904 353.092V282.406H647.218L717.904 353.092Z" fill="black"/>
<path d="M717.904 423.778V353.092H647.218L717.904 423.778Z" fill="black"/>
<path d="M791.351 353.092V282.406H720.665L791.351 353.092Z" fill="black"/>
<path d="M862.036 353.092V282.406H791.351L862.036 353.092Z" fill="black"/>
<path d="M862.036 423.778V353.092H791.351L862.036 423.778Z" fill="black"/>
<path d="M935.484 353.092V282.406H864.798L935.484 353.092Z" fill="black"/>
<path d="M1006.17 353.092V282.406H935.484L1006.17 353.092Z" fill="black"/>
<path d="M1006.17 423.778V353.092H935.484L1006.17 423.778Z" fill="black"/>
<path d="M1079.62 353.092V282.406H1008.93L1079.62 353.092Z" fill="black"/>
<path d="M1150.3 353.092V282.406H1079.62L1150.3 353.092Z" fill="black"/>
<path d="M1150.3 423.778V353.092H1079.62L1150.3 423.778Z" fill="black"/>
<path d="M1223.75 353.092V282.406H1153.06L1223.75 353.092Z" fill="black"/>
<path d="M1294.44 353.092V282.406H1223.75L1294.44 353.092Z" fill="black"/>
<path d="M1294.44 423.778V353.092H1223.75L1294.44 423.778Z" fill="black"/>
<path d="M1367.88 353.092V282.406H1297.2L1367.88 353.092Z" fill="black"/>
<path d="M1438.57 353.092V282.406H1367.88L1438.57 353.092Z" fill="black"/>
<path d="M1438.57 423.778V353.092H1367.88L1438.57 423.778Z" fill="black"/>
<path d="M70.6859 494.463V423.778H0L70.6859 494.463Z" fill="black"/>
<path d="M141.372 494.463V423.778H70.6859L141.372 494.463Z" fill="black"/>
<path d="M141.372 565.149V494.463H70.6859L141.372 565.149Z" fill="black"/>
<path d="M214.819 494.463V423.778H144.133L214.819 494.463Z" fill="black"/>
<path d="M285.505 494.463V423.778H214.819L285.505 494.463Z" fill="black"/>
<path d="M285.505 565.149V494.463H214.819L285.505 565.149Z" fill="black"/>
<path d="M358.952 494.463V423.778H288.266L358.952 494.463Z" fill="black"/>
<path d="M429.638 494.463V423.778H358.952L429.638 494.463Z" fill="black"/>
<path d="M429.638 565.149V494.463H358.952L429.638 565.149Z" fill="black"/>
<path d="M503.085 494.463V423.778H432.399L503.085 494.463Z" fill="black"/>
<path d="M573.771 494.463V423.778H503.085L573.771 494.463Z" fill="black"/>
<path d="M573.771 565.149V494.463H503.085L573.771 565.149Z" fill="black"/>
<path d="M647.218 494.463V423.778H576.532L647.218 494.463Z" fill="black"/>
<path d="M717.904 494.463V423.778H647.218L717.904 494.463Z" fill="black"/>
<path d="M717.904 565.149V494.463H647.218L717.904 565.149Z" fill="black"/>
<path d="M791.351 494.463V423.778H720.665L791.351 494.463Z" fill="black"/>
<path d="M862.036 494.463V423.778H791.351L862.036 494.463Z" fill="black"/>
<path d="M862.036 565.149V494.463H791.351L862.036 565.149Z" fill="black"/>
<path d="M935.484 494.463V423.778H864.798L935.484 494.463Z" fill="black"/>
<path d="M1006.17 494.463V423.778H935.484L1006.17 494.463Z" fill="black"/>
<path d="M1006.17 565.149V494.463H935.484L1006.17 565.149Z" fill="black"/>
<path d="M1079.62 494.463V423.778H1008.93L1079.62 494.463Z" fill="black"/>
<path d="M1150.3 494.463V423.778H1079.62L1150.3 494.463Z" fill="black"/>
<path d="M1150.3 565.149V494.463H1079.62L1150.3 565.149Z" fill="black"/>
<path d="M1223.75 494.463V423.778H1153.06L1223.75 494.463Z" fill="black"/>
<path d="M1294.44 494.463V423.778H1223.75L1294.44 494.463Z" fill="black"/>
<path d="M1294.44 565.149V494.463H1223.75L1294.44 565.149Z" fill="black"/>
<path d="M1367.88 494.463V423.778H1297.2L1367.88 494.463Z" fill="black"/>
<path d="M1438.57 494.463V423.778H1367.88L1438.57 494.463Z" fill="black"/>
<path d="M1438.57 565.149V494.463H1367.88L1438.57 565.149Z" fill="black"/>
<path d="M70.6859 635.835V565.149H0L70.6859 635.835Z" fill="black"/>
<path d="M141.372 635.835V565.149H70.6859L141.372 635.835Z" fill="black"/>
<path d="M141.372 706.521V635.835H70.6859L141.372 706.521Z" fill="black"/>
<path d="M214.819 635.835V565.149H144.133L214.819 635.835Z" fill="black"/>
<path d="M285.505 635.835V565.149H214.819L285.505 635.835Z" fill="black"/>
<path d="M285.505 706.521V635.835H214.819L285.505 706.521Z" fill="black"/>
<path d="M358.952 635.835V565.149H288.266L358.952 635.835Z" fill="black"/>
<path d="M429.638 635.835V565.149H358.952L429.638 635.835Z" fill="black"/>
<path d="M429.638 706.521V635.835H358.952L429.638 706.521Z" fill="black"/>
<path d="M503.085 635.835V565.149H432.399L503.085 635.835Z" fill="black"/>
<path d="M573.771 635.835V565.149H503.085L573.771 635.835Z" fill="black"/>
<path d="M573.771 706.521V635.835H503.085L573.771 706.521Z" fill="black"/>
<path d="M647.218 635.835V565.149H576.532L647.218 635.835Z" fill="black"/>
<path d="M717.904 635.835V565.149H647.218L717.904 635.835Z" fill="black"/>
<path d="M717.904 706.521V635.835H647.218L717.904 706.521Z" fill="black"/>
<path d="M791.351 635.835V565.149H720.665L791.351 635.835Z" fill="black"/>
<path d="M862.036 635.835V565.149H791.351L862.036 635.835Z" fill="black"/>
<path d="M862.036 706.521V635.835H791.351L862.036 706.521Z" fill="black"/>
<path d="M935.484 635.835V565.149H864.798L935.484 635.835Z" fill="black"/>
<path d="M1006.17 635.835V565.149H935.484L1006.17 635.835Z" fill="black"/>
<path d="M1006.17 706.521V635.835H935.484L1006.17 706.521Z" fill="black"/>
<path d="M1079.62 635.835V565.149H1008.93L1079.62 635.835Z" fill="black"/>
<path d="M1150.3 635.835V565.149H1079.62L1150.3 635.835Z" fill="black"/>
<path d="M1150.3 706.521V635.835H1079.62L1150.3 706.521Z" fill="black"/>
<path d="M1223.75 635.835V565.149H1153.06L1223.75 635.835Z" fill="black"/>
<path d="M1294.44 635.835V565.149H1223.75L1294.44 635.835Z" fill="black"/>
<path d="M1294.44 706.521V635.835H1223.75L1294.44 706.521Z" fill="black"/>
<path d="M1367.88 635.835V565.149H1297.2L1367.88 635.835Z" fill="black"/>
<path d="M1438.57 635.835V565.149H1367.88L1438.57 635.835Z" fill="black"/>
<path d="M1438.57 706.521V635.835H1367.88L1438.57 706.521Z" fill="black"/>
<path d="M70.6859 777.207V706.521H0L70.6859 777.207Z" fill="black"/>
<path d="M141.372 777.207V706.521H70.6859L141.372 777.207Z" fill="black"/>
<path d="M141.372 847.893V777.207H70.6859L141.372 847.893Z" fill="black"/>
<path d="M214.819 777.207V706.521H144.133L214.819 777.207Z" fill="black"/>
<path d="M285.505 777.207V706.521H214.819L285.505 777.207Z" fill="black"/>
<path d="M285.505 847.893V777.207H214.819L285.505 847.893Z" fill="black"/>
<path d="M358.952 777.207V706.521H288.266L358.952 777.207Z" fill="black"/>
<path d="M429.638 777.207V706.521H358.952L429.638 777.207Z" fill="black"/>
<path d="M429.638 847.893V777.207H358.952L429.638 847.893Z" fill="black"/>
<path d="M503.085 777.207V706.521H432.399L503.085 777.207Z" fill="black"/>
<path d="M573.771 777.207V706.521H503.085L573.771 777.207Z" fill="black"/>
<path d="M573.771 847.893V777.207H503.085L573.771 847.893Z" fill="black"/>
<path d="M647.218 777.207V706.521H576.532L647.218 777.207Z" fill="black"/>
<path d="M717.904 777.207V706.521H647.218L717.904 777.207Z" fill="black"/>
<path d="M717.904 847.893V777.207H647.218L717.904 847.893Z" fill="black"/>
<path d="M791.351 777.207V706.521H720.665L791.351 777.207Z" fill="black"/>
<path d="M862.036 777.207V706.521H791.351L862.036 777.207Z" fill="black"/>
<path d="M862.036 847.893V777.207H791.351L862.036 847.893Z" fill="black"/>
<path d="M935.484 777.207V706.521H864.798L935.484 777.207Z" fill="black"/>
<path d="M1006.17 777.207V706.521H935.484L1006.17 777.207Z" fill="black"/>
<path d="M1006.17 847.893V777.207H935.484L1006.17 847.893Z" fill="black"/>
<path d="M1079.62 777.207V706.521H1008.93L1079.62 777.207Z" fill="black"/>
<path d="M1150.3 777.207V706.521H1079.62L1150.3 777.207Z" fill="black"/>
<path d="M1150.3 847.893V777.207H1079.62L1150.3 847.893Z" fill="black"/>
<path d="M1223.75 777.207V706.521H1153.06L1223.75 777.207Z" fill="black"/>
<path d="M1294.44 777.207V706.521H1223.75L1294.44 777.207Z" fill="black"/>
<path d="M1294.44 847.893V777.207H1223.75L1294.44 847.893Z" fill="black"/>
<path d="M1367.88 777.207V706.521H1297.2L1367.88 777.207Z" fill="black"/>
<path d="M1438.57 777.207V706.521H1367.88L1438.57 777.207Z" fill="black"/>
<path d="M1438.57 847.893V777.207H1367.88L1438.57 847.893Z" fill="black"/>
<path d="M70.6859 918.579V847.893H0L70.6859 918.579Z" fill="black"/>
<path d="M141.372 918.579V847.893H70.6859L141.372 918.579Z" fill="black"/>
<path d="M141.372 989.265V918.579H70.6859L141.372 989.265Z" fill="black"/>
<path d="M214.819 918.579V847.893H144.133L214.819 918.579Z" fill="black"/>
<path d="M285.505 918.579V847.893H214.819L285.505 918.579Z" fill="black"/>
<path d="M285.505 989.265V918.579H214.819L285.505 989.265Z" fill="black"/>
<path d="M358.952 918.579V847.893H288.266L358.952 918.579Z" fill="black"/>
<path d="M429.638 918.579V847.893H358.952L429.638 918.579Z" fill="black"/>
<path d="M429.638 989.265V918.579H358.952L429.638 989.265Z" fill="black"/>
<path d="M503.085 918.579V847.893H432.399L503.085 918.579Z" fill="black"/>
<path d="M573.771 918.579V847.893H503.085L573.771 918.579Z" fill="black"/>
<path d="M573.771 989.265V918.579H503.085L573.771 989.265Z" fill="black"/>
<path d="M647.218 918.579V847.893H576.532L647.218 918.579Z" fill="black"/>
<path d="M717.904 918.579V847.893H647.218L717.904 918.579Z" fill="black"/>
<path d="M717.904 989.265V918.579H647.218L717.904 989.265Z" fill="black"/>
<path d="M791.351 918.579V847.893H720.665L791.351 918.579Z" fill="black"/>
<path d="M862.036 918.579V847.893H791.351L862.036 918.579Z" fill="black"/>
<path d="M862.036 989.265V918.579H791.351L862.036 989.265Z" fill="black"/>
<path d="M935.484 918.579V847.893H864.798L935.484 918.579Z" fill="black"/>
<path d="M1006.17 918.579V847.893H935.484L1006.17 918.579Z" fill="black"/>
<path d="M1006.17 989.265V918.579H935.484L1006.17 989.265Z" fill="black"/>
<path d="M1079.62 918.579V847.893H1008.93L1079.62 918.579Z" fill="black"/>
<path d="M1150.3 918.579V847.893H1079.62L1150.3 918.579Z" fill="black"/>
<path d="M1150.3 989.265V918.579H1079.62L1150.3 989.265Z" fill="black"/>
<path d="M1223.75 918.579V847.893H1153.06L1223.75 918.579Z" fill="black"/>
<path d="M1294.44 918.579V847.893H1223.75L1294.44 918.579Z" fill="black"/>
<path d="M1294.44 989.265V918.579H1223.75L1294.44 989.265Z" fill="black"/>
<path d="M1367.88 918.579V847.893H1297.2L1367.88 918.579Z" fill="black"/>
<path d="M1438.57 918.579V847.893H1367.88L1438.57 918.579Z" fill="black"/>
<path d="M1438.57 989.265V918.579H1367.88L1438.57 989.265Z" fill="black"/>
</svg>
