<svg width="29" height="28" viewBox="0 0 29 28" fill="none" xmlns="http://www.w3.org/2000/svg">
<path fill-rule="evenodd" clip-rule="evenodd" d="M25.7 14.2653C25.7 13.438 25.6258 12.6425 25.4879 11.8789H14.5V16.3918H20.7788C20.5083 17.8501 19.6864 19.0857 18.4508 19.913V22.8403H22.2212C24.4273 20.8092 25.7 17.8183 25.7 14.2653Z" fill="#4285F4"/>
<path fill-rule="evenodd" clip-rule="evenodd" d="M14.5 25.6648C17.65 25.6648 20.2909 24.6201 22.2212 22.8383L18.4507 19.9111C17.406 20.6111 16.0697 21.0247 14.5 21.0247C11.4613 21.0247 8.88937 18.9724 7.97195 16.2148H4.07422V19.2376C5.99392 23.0505 9.93937 25.6648 14.5 25.6648Z" fill="#34A853"/>
<path fill-rule="evenodd" clip-rule="evenodd" d="M7.97164 16.2139C7.73831 15.5139 7.60574 14.7661 7.60574 13.9972C7.60574 13.2283 7.73831 12.4805 7.97164 11.7805V8.75781H4.07392C3.28377 10.3328 2.83301 12.1146 2.83301 13.9972C2.83301 15.8798 3.28377 17.6616 4.07392 19.2366L7.97164 16.2139Z" fill="#FBBC05"/>
<path fill-rule="evenodd" clip-rule="evenodd" d="M14.5 6.97218C16.2129 6.97218 17.7507 7.56082 18.9598 8.71688L22.306 5.37067C20.2856 3.48809 17.6447 2.33203 14.5 2.33203C9.93937 2.33203 5.99392 4.94643 4.07422 8.7593L7.97195 11.782C8.88937 9.02446 11.4613 6.97218 14.5 6.97218Z" fill="#EA4335"/>
</svg>
