<svg width="14" height="14" viewBox="0 0 14 14" fill="none" xmlns="http://www.w3.org/2000/svg">
<path d="M7.15208 2.76771C7.11137 2.72877 7.05721 2.70703 7.00087 2.70703C6.94453 2.70703 6.89037 2.72877 6.84966 2.76771L1.81567 7.57666C1.7943 7.59711 1.77729 7.62168 1.76568 7.6489C1.75407 7.67611 1.7481 7.70539 1.74813 7.73498L1.74731 12.2483C1.74731 12.4804 1.8395 12.703 2.0036 12.8671C2.16769 13.0312 2.39025 13.1233 2.62231 13.1233H5.25005C5.36608 13.1233 5.47736 13.0772 5.55941 12.9952C5.64145 12.9132 5.68755 12.8019 5.68755 12.6858V8.96709C5.68755 8.90907 5.7106 8.85343 5.75162 8.81241C5.79264 8.77139 5.84828 8.74834 5.9063 8.74834H8.0938C8.15181 8.74834 8.20746 8.77139 8.24848 8.81241C8.2895 8.85343 8.31255 8.90907 8.31255 8.96709V12.6858C8.31255 12.8019 8.35864 12.9132 8.44069 12.9952C8.52274 13.0772 8.63402 13.1233 8.75005 13.1233H11.3767C11.6088 13.1233 11.8313 13.0312 11.9954 12.8671C12.1595 12.703 12.2517 12.4804 12.2517 12.2483V7.73498C12.2517 7.70539 12.2458 7.67611 12.2341 7.6489C12.2225 7.62168 12.2055 7.59711 12.1842 7.57666L7.15208 2.76771Z" fill="black"/>
<path d="M13.4233 6.67598L11.378 4.71926V1.75C11.378 1.63397 11.3319 1.52269 11.2499 1.44064C11.1678 1.35859 11.0565 1.3125 10.9405 1.3125H9.62802C9.51198 1.3125 9.40071 1.35859 9.31866 1.44064C9.23661 1.52269 9.19052 1.63397 9.19052 1.75V2.625L7.60677 1.1107C7.45856 0.960859 7.23817 0.875 7.00001 0.875C6.76267 0.875 6.54282 0.960859 6.39462 1.11098L0.578604 6.67543C0.408526 6.83949 0.387198 7.10938 0.541963 7.28711C0.580827 7.33197 0.628414 7.36846 0.681826 7.39435C0.735239 7.42023 0.793361 7.43498 0.852654 7.43769C0.911948 7.4404 0.971173 7.43102 1.02673 7.41012C1.08228 7.38921 1.133 7.35722 1.17579 7.31609L6.84962 1.89438C6.89033 1.85543 6.94449 1.8337 7.00083 1.8337C7.05717 1.8337 7.11133 1.85543 7.15204 1.89438L12.8264 7.31609C12.91 7.39625 13.022 7.44 13.1377 7.43774C13.2535 7.43549 13.3637 7.38741 13.4441 7.30406C13.612 7.13016 13.5981 6.84305 13.4233 6.67598Z" fill="black"/>
</svg>
