<svg width="24" height="24" viewBox="0 0 24 24" fill="none" xmlns="http://www.w3.org/2000/svg">
<path d="M14.25 21.75H9.75V23.25H14.25V21.75Z" fill="#F9CC14"/>
<path d="M15 19.5H9V21H15V19.5Z" fill="#F9CC14"/>
<path d="M17.3166 2.93862C15.9071 1.52721 14.0189 0.750021 12 0.750021C11.0144 0.747672 10.0381 0.940062 9.12712 1.31614C8.21612 1.69222 7.38839 2.24457 6.69148 2.94148C5.99457 3.63839 5.44222 4.46612 5.06614 5.37712C4.69006 6.28812 4.49767 7.26445 4.50002 8.25002C4.50002 10.4353 5.33768 12.4796 6.7969 13.8581L7.00127 14.0499C7.84549 14.8392 9.00002 15.9206 9.00002 16.875V18.75H11.25V12.6146L9.1744 11.4375L10.0313 10.2056L12 11.25L13.9355 10.2005L14.8308 11.4042L12.75 12.623V18.75H15V16.875C15 15.9431 16.1419 14.8627 16.9758 14.0733L17.206 13.8549C18.7069 12.4219 19.5 10.4817 19.5 8.25002C19.505 7.26436 19.3146 6.28747 18.9398 5.37582C18.5651 4.46417 18.0133 3.63581 17.3166 2.93862Z" fill="#F9CC14"/>
</svg>
