<svg width="24" height="24" viewBox="0 0 24 24" fill="none" xmlns="http://www.w3.org/2000/svg">
<path d="M19.5 2.99993H18.75V2.27103C18.75 1.86743 18.4397 1.52103 18.0361 1.50087C17.9347 1.49598 17.8333 1.51174 17.7382 1.54717C17.6431 1.58261 17.5561 1.637 17.4826 1.70704C17.4091 1.77707 17.3506 1.8613 17.3106 1.95462C17.2706 2.04794 17.25 2.14841 17.25 2.24993V2.99993H6.75V2.27103C6.75 1.86743 6.43969 1.52103 6.03609 1.50087C5.93469 1.49598 5.83334 1.51174 5.7382 1.54717C5.64307 1.58261 5.55611 1.637 5.48261 1.70704C5.40911 1.77707 5.3506 1.8613 5.31062 1.95462C5.27063 2.04794 5.25001 2.14841 5.25 2.24993V2.99993H4.5C3.70435 2.99993 2.94129 3.316 2.37868 3.87861C1.81607 4.44122 1.5 5.20428 1.5 5.99993V19.4999C1.5 20.2956 1.81607 21.0586 2.37868 21.6213C2.94129 22.1839 3.70435 22.4999 4.5 22.4999H19.5C20.2956 22.4999 21.0587 22.1839 21.6213 21.6213C22.1839 21.0586 22.5 20.2956 22.5 19.4999V5.99993C22.5 5.20428 22.1839 4.44122 21.6213 3.87861C21.0587 3.316 20.2956 2.99993 19.5 2.99993ZM6.375 19.4999C6.1525 19.4999 5.93499 19.434 5.74998 19.3103C5.56498 19.1867 5.42078 19.011 5.33564 18.8055C5.25049 18.5999 5.22821 18.3737 5.27162 18.1555C5.31502 17.9372 5.42217 17.7368 5.5795 17.5794C5.73684 17.4221 5.93729 17.315 6.15552 17.2715C6.37375 17.2281 6.59995 17.2504 6.80552 17.3356C7.01109 17.4207 7.18679 17.5649 7.3104 17.7499C7.43402 17.9349 7.5 18.1524 7.5 18.3749C7.5 18.6733 7.38147 18.9594 7.1705 19.1704C6.95952 19.3814 6.67337 19.4999 6.375 19.4999ZM6.375 15.7499C6.1525 15.7499 5.93499 15.684 5.74998 15.5603C5.56498 15.4367 5.42078 15.261 5.33564 15.0554C5.25049 14.8499 5.22821 14.6237 5.27162 14.4055C5.31502 14.1872 5.42217 13.9868 5.5795 13.8294C5.73684 13.6721 5.93729 13.565 6.15552 13.5215C6.37375 13.4781 6.59995 13.5004 6.80552 13.5856C7.01109 13.6707 7.18679 13.8149 7.3104 13.9999C7.43402 14.1849 7.5 14.4024 7.5 14.6249C7.5 14.9233 7.38147 15.2094 7.1705 15.4204C6.95952 15.6314 6.67337 15.7499 6.375 15.7499ZM10.125 19.4999C9.9025 19.4999 9.68499 19.434 9.49998 19.3103C9.31498 19.1867 9.17078 19.011 9.08564 18.8055C9.00049 18.5999 8.97821 18.3737 9.02162 18.1555C9.06502 17.9372 9.17217 17.7368 9.3295 17.5794C9.48684 17.4221 9.68729 17.315 9.90552 17.2715C10.1238 17.2281 10.35 17.2504 10.5555 17.3356C10.7611 17.4207 10.9368 17.5649 11.0604 17.7499C11.184 17.9349 11.25 18.1524 11.25 18.3749C11.25 18.6733 11.1315 18.9594 10.9205 19.1704C10.7095 19.3814 10.4234 19.4999 10.125 19.4999ZM10.125 15.7499C9.9025 15.7499 9.68499 15.684 9.49998 15.5603C9.31498 15.4367 9.17078 15.261 9.08564 15.0554C9.00049 14.8499 8.97821 14.6237 9.02162 14.4055C9.06502 14.1872 9.17217 13.9868 9.3295 13.8294C9.48684 13.6721 9.68729 13.565 9.90552 13.5215C10.1238 13.4781 10.35 13.5004 10.5555 13.5856C10.7611 13.6707 10.9368 13.8149 11.0604 13.9999C11.184 14.1849 11.25 14.4024 11.25 14.6249C11.25 14.9233 11.1315 15.2094 10.9205 15.4204C10.7095 15.6314 10.4234 15.7499 10.125 15.7499ZM13.875 19.4999C13.6525 19.4999 13.435 19.434 13.25 19.3103C13.065 19.1867 12.9208 19.011 12.8356 18.8055C12.7505 18.5999 12.7282 18.3737 12.7716 18.1555C12.815 17.9372 12.9222 17.7368 13.0795 17.5794C13.2368 17.4221 13.4373 17.315 13.6555 17.2715C13.8738 17.2281 14.1 17.2504 14.3055 17.3356C14.5111 17.4207 14.6868 17.5649 14.8104 17.7499C14.934 17.9349 15 18.1524 15 18.3749C15 18.6733 14.8815 18.9594 14.6705 19.1704C14.4595 19.3814 14.1734 19.4999 13.875 19.4999ZM13.875 15.7499C13.6525 15.7499 13.435 15.684 13.25 15.5603C13.065 15.4367 12.9208 15.261 12.8356 15.0554C12.7505 14.8499 12.7282 14.6237 12.7716 14.4055C12.815 14.1872 12.9222 13.9868 13.0795 13.8294C13.2368 13.6721 13.4373 13.565 13.6555 13.5215C13.8738 13.4781 14.1 13.5004 14.3055 13.5856C14.5111 13.6707 14.6868 13.8149 14.8104 13.9999C14.934 14.1849 15 14.4024 15 14.6249C15 14.9233 14.8815 15.2094 14.6705 15.4204C14.4595 15.6314 14.1734 15.7499 13.875 15.7499ZM13.875 11.9999C13.6525 11.9999 13.435 11.934 13.25 11.8103C13.065 11.6867 12.9208 11.511 12.8356 11.3055C12.7505 11.0999 12.7282 10.8737 12.7716 10.6555C12.815 10.4372 12.9222 10.2368 13.0795 10.0794C13.2368 9.9221 13.4373 9.81496 13.6555 9.77155C13.8738 9.72814 14.1 9.75042 14.3055 9.83557C14.5111 9.92072 14.6868 10.0649 14.8104 10.2499C14.934 10.4349 15 10.6524 15 10.8749C15 11.1733 14.8815 11.4594 14.6705 11.6704C14.4595 11.8814 14.1734 11.9999 13.875 11.9999ZM17.625 15.7499C17.4025 15.7499 17.185 15.684 17 15.5603C16.815 15.4367 16.6708 15.261 16.5856 15.0554C16.5005 14.8499 16.4782 14.6237 16.5216 14.4055C16.565 14.1872 16.6722 13.9868 16.8295 13.8294C16.9868 13.6721 17.1873 13.565 17.4055 13.5215C17.6238 13.4781 17.85 13.5004 18.0555 13.5856C18.2611 13.6707 18.4368 13.8149 18.5604 13.9999C18.684 14.1849 18.75 14.4024 18.75 14.6249C18.75 14.9233 18.6315 15.2094 18.4205 15.4204C18.2095 15.6314 17.9234 15.7499 17.625 15.7499ZM17.625 11.9999C17.4025 11.9999 17.185 11.934 17 11.8103C16.815 11.6867 16.6708 11.511 16.5856 11.3055C16.5005 11.0999 16.4782 10.8737 16.5216 10.6555C16.565 10.4372 16.6722 10.2368 16.8295 10.0794C16.9868 9.9221 17.1873 9.81496 17.4055 9.77155C17.6238 9.72814 17.85 9.75042 18.0555 9.83557C18.2611 9.92072 18.4368 10.0649 18.5604 10.2499C18.684 10.4349 18.75 10.6524 18.75 10.8749C18.75 11.1733 18.6315 11.4594 18.4205 11.6704C18.2095 11.8814 17.9234 11.9999 17.625 11.9999ZM21 6.37493V7.12493C21 7.22439 20.9605 7.31977 20.8902 7.3901C20.8198 7.46042 20.7245 7.49993 20.625 7.49993H3.375C3.27554 7.49993 3.18016 7.46042 3.10984 7.3901C3.03951 7.31977 3 7.22439 3 7.12493V5.99993C3.00111 5.60245 3.15951 5.22157 3.44057 4.9405C3.72163 4.65944 4.10252 4.50104 4.5 4.49993H19.5C19.8975 4.50104 20.2784 4.65944 20.5594 4.9405C20.8405 5.22157 20.9989 5.60245 21 5.99993V6.37493Z" fill="black"/>
</svg>
