<svg width="32" height="33" viewBox="0 0 32 33" fill="none" xmlns="http://www.w3.org/2000/svg">
<g clip-path="url(#clip0)">
<path d="M16.0001 19.3484C17.5742 19.3484 18.8501 18.0724 18.8501 16.4984C18.8501 14.9244 17.5742 13.6484 16.0001 13.6484C14.4261 13.6484 13.1501 14.9244 13.1501 16.4984C13.1501 18.0724 14.4261 19.3484 16.0001 19.3484Z" fill="#61DAFB"/>
<path d="M26.8251 11.7984C26.2751 11.5984 25.7001 11.3984 25.1001 11.2234C25.2501 10.6234 25.3751 10.0234 25.4751 9.44844C26.0001 6.14844 25.4251 3.82344 23.8251 2.92344C23.3501 2.64844 22.8251 2.52344 22.2251 2.52344C20.4751 2.52344 18.2501 3.82344 16.0001 5.99844C13.7501 3.82344 11.5251 2.52344 9.7751 2.52344C9.1751 2.52344 8.6501 2.64844 8.1751 2.92344C6.5751 3.84844 6.0001 6.17344 6.5251 9.44844C6.6251 10.0234 6.7501 10.6234 6.9001 11.2234C6.3001 11.3984 5.7251 11.5734 5.1751 11.7984C2.0501 12.9984 0.350098 14.6484 0.350098 16.4984C0.350098 18.3484 2.0751 19.9984 5.1751 21.1984C5.7251 21.3984 6.3001 21.5984 6.9001 21.7734C6.7501 22.3734 6.6251 22.9734 6.5251 23.5484C6.0001 26.8484 6.5751 29.1734 8.1751 30.0734C8.6501 30.3484 9.1751 30.4734 9.7751 30.4734C11.5501 30.4734 13.7751 29.1734 16.0001 26.9984C18.2501 29.1734 20.4751 30.4734 22.2251 30.4734C22.8251 30.4734 23.3501 30.3484 23.8251 30.0734C25.4251 29.1484 26.0001 26.8234 25.4751 23.5484C25.3751 22.9734 25.2501 22.3734 25.1001 21.7734C25.7001 21.5984 26.2751 21.4234 26.8251 21.1984C29.9501 19.9984 31.6501 18.3484 31.6501 16.4984C31.6501 14.6484 29.9501 12.9984 26.8251 11.7984ZM23.1251 4.17344C24.1501 4.77344 24.5001 6.62344 24.0751 9.24844C24.0001 9.77344 23.8751 10.3234 23.7251 10.8984C22.4251 10.5984 21.0501 10.3984 19.6001 10.2734C18.7501 9.07344 17.8751 7.99844 17.0001 7.02344C18.8501 5.19844 20.7251 3.94844 22.2501 3.94844C22.5751 3.94844 22.8751 4.02344 23.1251 4.17344ZM20.3251 18.9984C19.8751 19.7984 19.3501 20.5984 18.8001 21.3984C17.8751 21.4734 16.9501 21.4984 16.0001 21.4984C15.0251 21.4984 14.1001 21.4734 13.2001 21.3984C12.6501 20.5984 12.1501 19.7984 11.7001 18.9984C11.2251 18.1734 10.7751 17.3234 10.3751 16.4984C10.7751 15.6734 11.2251 14.8234 11.7001 13.9984C12.1501 13.1984 12.6751 12.3984 13.2251 11.5984C14.1501 11.5234 15.0751 11.4984 16.0251 11.4984C17.0001 11.4984 17.9251 11.5234 18.8251 11.5984C19.3751 12.3984 19.8751 13.1984 20.3251 13.9984C20.8001 14.8234 21.2501 15.6734 21.6501 16.4984C21.2251 17.3234 20.8001 18.1484 20.3251 18.9984ZM22.4001 18.1734C22.7751 19.0484 23.0751 19.8984 23.3501 20.7484C22.5001 20.9484 21.6001 21.0984 20.6501 21.2234C20.9501 20.7484 21.2751 20.2484 21.5501 19.7234C21.8501 19.1984 22.1251 18.6734 22.4001 18.1734ZM16.0001 24.9484C15.4001 24.2984 14.8251 23.5984 14.2751 22.8734C14.8501 22.8984 15.4251 22.9234 16.0001 22.9234C16.5751 22.9234 17.1501 22.8984 17.7251 22.8734C17.1751 23.5984 16.6001 24.2984 16.0001 24.9484ZM11.3501 21.1984C10.4001 21.0734 9.5001 20.9234 8.6501 20.7234C8.9251 19.8984 9.2251 19.0234 9.6001 18.1484C9.8751 18.6484 10.1501 19.1734 10.4501 19.6734C10.7501 20.2234 11.0501 20.6984 11.3501 21.1984ZM9.6001 14.8234C9.2251 13.9484 8.9251 13.0984 8.6501 12.2484C9.5001 12.0484 10.4001 11.8984 11.3501 11.7734C11.0501 12.2484 10.7251 12.7484 10.4501 13.2734C10.1501 13.7984 9.8751 14.3234 9.6001 14.8234ZM16.0001 8.04844C16.6001 8.69844 17.1751 9.39844 17.7251 10.1234C17.1501 10.0984 16.5751 10.0734 16.0001 10.0734C15.4251 10.0734 14.8501 10.0984 14.2751 10.1234C14.8251 9.39844 15.4001 8.69844 16.0001 8.04844ZM21.5501 13.2984L20.6501 11.7984C21.6001 11.9234 22.5001 12.0734 23.3501 12.2734C23.0751 13.0984 22.7751 13.9734 22.4001 14.8484C22.1251 14.3234 21.8501 13.7984 21.5501 13.2984ZM7.9251 9.24844C7.5001 6.62344 7.8501 4.77344 8.8751 4.17344C9.1251 4.02344 9.4251 3.94844 9.7501 3.94844C11.2501 3.94844 13.1251 5.17344 15.0001 7.02344C14.1251 7.97344 13.2501 9.07344 12.4001 10.2734C10.9501 10.3984 9.5751 10.6234 8.2751 10.8984C8.1251 10.3234 8.0251 9.77344 7.9251 9.24844ZM1.7501 16.4984C1.7501 15.3234 3.1751 14.0734 5.6751 13.1484C6.1751 12.9484 6.7251 12.7734 7.2751 12.6234C7.6751 13.8734 8.1751 15.1984 8.7751 16.5234C8.1751 17.8484 7.6501 19.1484 7.2751 20.3984C3.8251 19.3984 1.7501 17.8984 1.7501 16.4984ZM8.8751 28.8234C7.8501 28.2234 7.5001 26.3734 7.9251 23.7484C8.0001 23.2234 8.1251 22.6734 8.2751 22.0984C9.5751 22.3984 10.9501 22.5984 12.4001 22.7234C13.2501 23.9234 14.1251 24.9984 15.0001 25.9734C13.1501 27.7984 11.2751 29.0484 9.7501 29.0484C9.4251 29.0484 9.1251 28.9734 8.8751 28.8234ZM24.0751 23.7484C24.5001 26.3734 24.1501 28.2234 23.1251 28.8234C22.8751 28.9734 22.5751 29.0484 22.2501 29.0484C20.7501 29.0484 18.8751 27.8234 17.0001 25.9734C17.8751 25.0234 18.7501 23.9234 19.6001 22.7234C21.0501 22.5984 22.4251 22.3734 23.7251 22.0984C23.8751 22.6734 23.9751 23.2234 24.0751 23.7484ZM26.3251 19.8484C25.8251 20.0484 25.2751 20.2234 24.7251 20.3734C24.3251 19.1234 23.8251 17.7984 23.2251 16.4734C23.8251 15.1484 24.3501 13.8484 24.7251 12.5984C28.1751 13.5984 30.2501 15.0984 30.2501 16.4984C30.2501 17.6734 28.8001 18.9234 26.3251 19.8484Z" fill="#61DAFB"/>
</g>
<defs>
<clipPath id="clip0">
<rect width="32" height="32" fill="white" transform="translate(0 0.5)"/>
</clipPath>
</defs>
</svg>
