<svg width="72" height="72" viewBox="0 0 72 72" fill="none" xmlns="http://www.w3.org/2000/svg">
<circle cx="36" cy="36" r="36" fill="#F2F2F7"/>
<path d="M31.5 49.5C36.4706 49.5 40.5 45.4706 40.5 40.5C40.5 35.5294 36.4706 31.5 31.5 31.5C26.5294 31.5 22.5 35.5294 22.5 40.5C22.5 45.4706 26.5294 49.5 31.5 49.5Z" fill="#1C1C1E"/>
<path opacity="0.3" fill-rule="evenodd" clip-rule="evenodd" d="M31.2021 28.5036C32.7578 25.8115 35.6674 24 39.0002 24C43.9708 24 48.0002 28.0294 48.0002 33C48.0002 36.3328 46.1887 39.2424 43.4966 40.7981C43.499 40.699 43.5002 40.5996 43.5002 40.5C43.5002 33.8726 38.1276 28.5 31.5002 28.5C31.4006 28.5 31.3012 28.5012 31.2021 28.5036Z" fill="#1C1C1E"/>
</svg>
