<svg width="48" height="48" viewBox="0 0 48 48" fill="none" xmlns="http://www.w3.org/2000/svg">
<path d="M18.4016 12.2481C13.0128 11.2656 8.75659 12.2931 7.05784 15.2481C5.79034 17.4419 6.15409 20.3519 7.93534 23.4606C7.97153 23.5237 8.01979 23.5789 8.07735 23.6233C8.13492 23.6677 8.20066 23.7003 8.27082 23.7193C8.34099 23.7383 8.41421 23.7433 8.48629 23.7339C8.55838 23.7246 8.62793 23.7012 8.69096 23.665C8.754 23.6288 8.80929 23.5805 8.85367 23.523C8.89806 23.4654 8.93067 23.3997 8.94965 23.3295C8.96862 23.2593 8.97359 23.1861 8.96428 23.114C8.95496 23.042 8.93153 22.9724 8.89534 22.9094C7.29034 20.1081 6.97534 17.5956 8.01409 15.7844C9.42409 13.3431 13.2228 12.4094 18.2028 13.3319C18.347 13.3582 18.4958 13.3262 18.6164 13.2429C18.737 13.1595 18.8196 13.0317 18.846 12.8875C18.8723 12.7433 18.8403 12.5945 18.757 12.4739C18.6736 12.3533 18.5458 12.2707 18.4016 12.2444V12.2481ZM10.7366 27.2294C13.1394 29.8044 15.9215 31.9972 18.9866 33.7319C26.8016 38.2319 35.1116 39.4506 39.2366 36.6531C39.3574 36.5706 39.4405 36.4434 39.4676 36.2996C39.4947 36.1558 39.4635 36.0071 39.381 35.8862C39.2984 35.7654 39.1712 35.6823 39.0274 35.6552C38.8836 35.6282 38.7349 35.6593 38.6141 35.7419C34.9166 38.2506 27.0003 37.0956 19.5266 32.7719C16.5648 31.0932 13.8764 28.9726 11.5541 26.4831C11.4546 26.3747 11.3162 26.3103 11.1692 26.3039C11.0222 26.2976 10.8787 26.3499 10.7703 26.4494C10.6619 26.5488 10.5975 26.6873 10.5911 26.8343C10.5848 26.9812 10.6371 27.1247 10.7366 27.2331V27.2294Z" fill="#47848F"/>
<path d="M37.8976 26.5542C41.4263 22.388 42.6563 18.1955 40.9613 15.263C39.7163 13.103 37.0801 11.963 33.5776 11.918C33.4309 11.918 33.2902 11.9762 33.1865 12.08C33.0827 12.1837 33.0245 12.3244 33.0245 12.4711C33.0245 12.6178 33.0827 12.7585 33.1865 12.8622C33.2902 12.9659 33.4309 13.0242 33.5776 13.0242C36.7276 13.0655 38.9963 14.048 40.0201 15.818C41.4263 18.2555 40.3276 21.9942 37.0688 25.8455C37.0221 25.9009 36.9866 25.9649 36.9646 26.034C36.9426 26.1031 36.9344 26.1759 36.9405 26.2481C36.9466 26.3204 36.9669 26.3907 37.0001 26.4552C37.0334 26.5196 37.0791 26.5768 37.1345 26.6236C37.1899 26.6704 37.2539 26.7058 37.323 26.7278C37.3921 26.7498 37.4649 26.758 37.5371 26.7519C37.6094 26.7458 37.6797 26.7256 37.7441 26.6923C37.8086 26.659 37.8658 26.6134 37.9126 26.558L37.8976 26.5542ZM28.8338 12.4317C25.3715 13.2175 22.0511 14.5329 18.9901 16.3317C10.9238 21.0005 5.65884 27.8592 6.37509 32.8392C6.39647 32.9884 6.47624 33.123 6.59685 33.2134C6.71746 33.3037 6.86903 33.3425 7.01821 33.3211C7.1674 33.2997 7.30197 33.2199 7.39234 33.0993C7.48271 32.9787 7.52147 32.8272 7.50009 32.678C6.83634 28.2567 11.8238 21.7505 19.5413 17.2917C22.5023 15.5453 25.7152 14.2665 29.0663 13.5005C29.1372 13.4852 29.2045 13.4561 29.2641 13.4149C29.3238 13.3736 29.3748 13.321 29.4141 13.2601C29.4535 13.1992 29.4804 13.1311 29.4935 13.0597C29.5065 12.9884 29.5054 12.9151 29.4901 12.8442C29.4748 12.7733 29.4457 12.7061 29.4045 12.6464C29.3633 12.5867 29.3107 12.5358 29.2497 12.4964C29.1888 12.4571 29.1207 12.4301 29.0493 12.4171C28.978 12.4041 28.9047 12.4052 28.8338 12.4205V12.4317Z" fill="#47848F"/>
<path d="M15.7499 36.2924C17.6249 41.4412 20.6249 44.6249 24.0186 44.6249C26.4936 44.6249 28.7811 42.9374 30.5661 39.9674C30.6447 39.8426 30.6705 39.6917 30.6378 39.5479C30.6051 39.4041 30.5166 39.2791 30.3918 39.2006C30.267 39.122 30.116 39.0962 29.9722 39.1289C29.8284 39.1616 29.7035 39.2501 29.6249 39.3749C28.0199 42.0449 26.0511 43.4999 24.0224 43.4999C21.2024 43.4999 18.5136 40.6724 16.8074 35.9099C16.7577 35.7722 16.6553 35.6598 16.5227 35.5976C16.3901 35.5354 16.2383 35.5283 16.1005 35.5781C15.9628 35.6278 15.8504 35.7302 15.7882 35.8628C15.7259 35.9953 15.7189 36.1472 15.7686 36.2849L15.7499 36.2924ZM32.6249 35.2837C33.6225 31.9636 34.1167 28.5128 34.0911 25.0462C34.0911 15.8924 30.8886 8.00619 26.3249 5.97744C26.1906 5.91776 26.0382 5.91387 25.901 5.96661C25.7639 6.01936 25.6533 6.12442 25.5936 6.25869C25.534 6.39295 25.5301 6.54542 25.5828 6.68256C25.6356 6.8197 25.7406 6.93026 25.8749 6.98994C29.9436 8.79744 32.9999 16.2824 32.9999 25.0462C33.0248 28.4009 32.547 31.7405 31.5824 34.9537C31.5386 35.0934 31.5522 35.2448 31.62 35.3746C31.6879 35.5043 31.8045 35.6018 31.9443 35.6456C32.084 35.6893 32.2354 35.6758 32.3652 35.6079C32.4949 35.5401 32.5924 35.4234 32.6361 35.2837H32.6249Z" fill="#47848F"/>
<path d="M43.0165 34.7453C43.0165 34.2224 42.8614 33.7113 42.571 33.2765C42.2805 32.8418 41.8676 32.5029 41.3845 32.3028C40.9014 32.1027 40.3698 32.0504 39.857 32.1524C39.3441 32.2544 38.8731 32.5062 38.5033 32.8759C38.1336 33.2456 37.8818 33.7167 37.7798 34.2295C37.6778 34.7424 37.7302 35.2739 37.9303 35.757C38.1303 36.2401 38.4692 36.653 38.904 36.9435C39.3387 37.234 39.8499 37.3891 40.3728 37.3891C40.7199 37.3891 41.0637 37.3207 41.3845 37.1878C41.7052 37.055 41.9967 36.8602 42.2422 36.6147C42.4877 36.3692 42.6824 36.0778 42.8153 35.757C42.9481 35.4363 43.0165 35.0925 43.0165 34.7453ZM41.9103 34.7453C41.9103 35.0494 41.8201 35.3467 41.6511 35.5995C41.4822 35.8523 41.2421 36.0494 40.9611 36.1658C40.6802 36.2821 40.371 36.3126 40.0728 36.2533C39.7746 36.1939 39.5006 36.0475 39.2856 35.8325C39.0706 35.6175 38.9241 35.3435 38.8648 35.0453C38.8055 34.747 38.8359 34.4379 38.9523 34.1569C39.0687 33.876 39.2657 33.6359 39.5186 33.4669C39.7714 33.298 40.0687 33.2078 40.3728 33.2078C40.7805 33.2078 41.1716 33.3698 41.4599 33.6581C41.7483 33.9465 41.9103 34.3375 41.9103 34.7453Z" fill="#47848F"/>
<path d="M7.62764 37.3891C8.15052 37.3891 8.66166 37.234 9.09643 36.9435C9.53119 36.653 9.87004 36.2401 10.0701 35.757C10.2702 35.2739 10.3226 34.7424 10.2206 34.2295C10.1186 33.7167 9.86679 33.2456 9.49705 32.8759C9.12732 32.5062 8.65624 32.2544 8.14341 32.1524C7.63057 32.0504 7.099 32.1027 6.61592 32.3028C6.13284 32.5029 5.71994 32.8418 5.42944 33.2765C5.13894 33.7113 4.98389 34.2224 4.98389 34.7453C4.98389 35.4465 5.26242 36.1189 5.75822 36.6147C6.25402 37.1105 6.92647 37.3891 7.62764 37.3891ZM7.62764 36.2828C7.32355 36.2828 7.02629 36.1926 6.77345 36.0237C6.52061 35.8548 6.32354 35.6146 6.20717 35.3337C6.0908 35.0527 6.06035 34.7436 6.11968 34.4454C6.179 34.1471 6.32544 33.8732 6.54046 33.6581C6.75548 33.4431 7.02944 33.2967 7.32769 33.2374C7.62593 33.178 7.93507 33.2085 8.21601 33.3248C8.49695 33.4412 8.73708 33.6383 8.90602 33.8911C9.07496 34.144 9.16514 34.4412 9.16514 34.7453C9.16514 35.1531 9.00315 35.5442 8.71481 35.8325C8.42648 36.1208 8.03541 36.2828 7.62764 36.2828Z" fill="#47848F"/>
<path d="M24.0188 8.67422C24.5416 8.67422 25.0528 8.51917 25.4875 8.22867C25.9223 7.93817 26.2612 7.52527 26.4613 7.04219C26.6614 6.55911 26.7137 6.02754 26.6117 5.5147C26.5097 5.00186 26.2579 4.53079 25.8882 4.16106C25.5184 3.79132 25.0474 3.53953 24.5345 3.43752C24.0217 3.33551 23.4901 3.38786 23.007 3.58796C22.5239 3.78806 22.1111 4.12692 21.8206 4.56168C21.5301 4.99644 21.375 5.50759 21.375 6.03047C21.375 6.73164 21.6535 7.40408 22.1493 7.89988C22.6451 8.39568 23.3176 8.67422 24.0188 8.67422ZM24.0188 7.56797C23.7147 7.56797 23.4174 7.4778 23.1646 7.30885C22.9117 7.13991 22.7147 6.89979 22.5983 6.61885C22.4819 6.3379 22.4515 6.02876 22.5108 5.73052C22.5701 5.43227 22.7166 5.15832 22.9316 4.94329C23.1466 4.72827 23.4206 4.58184 23.7188 4.52251C24.017 4.46319 24.3262 4.49364 24.6071 4.61001C24.8881 4.72638 25.1282 4.92344 25.2971 5.17628C25.4661 5.42912 25.5563 5.72638 25.5563 6.03047C25.5563 6.43824 25.3943 6.82931 25.1059 7.11765C24.8176 7.40598 24.4265 7.56797 24.0188 7.56797Z" fill="#47848F"/>
<path d="M24.4239 26.9156C24.0543 26.9983 23.6684 26.9694 23.3152 26.8325C22.9621 26.6957 22.6575 26.457 22.4401 26.1469C22.2227 25.8367 22.1023 25.469 22.0942 25.0903C22.0861 24.7116 22.1905 24.3391 22.3944 24.0199C22.5982 23.7006 22.8923 23.4491 23.2393 23.2973C23.5862 23.1454 23.9705 23.0999 24.3433 23.1667C24.7161 23.2334 25.0608 23.4094 25.3335 23.6722C25.6062 23.935 25.7947 24.2729 25.8751 24.6431C25.9824 25.1367 25.89 25.6528 25.6181 26.0786C25.3462 26.5044 24.9169 26.8052 24.4239 26.9156Z" fill="#47848F"/>
</svg>
