<svg width="48" height="48" viewBox="0 0 48 48" fill="none" xmlns="http://www.w3.org/2000/svg">
<path d="M33.2587 33.0411C29.8837 39.9411 23.9737 44.5836 16.1549 46.1098C14.9561 46.4036 13.7254 46.5472 12.4912 46.5373C7.9912 46.5373 3.8662 44.6623 1.8637 41.5911C-0.825054 37.4998 -1.74005 28.8261 7.12495 22.4098C7.30495 23.3886 7.67245 24.7311 7.9162 25.5261C6.17594 26.819 4.75148 28.4896 3.74995 30.4123C2.09995 33.6523 2.2837 36.8886 4.23745 39.8811C5.58745 41.8986 7.72495 43.1248 10.4737 43.4998C13.907 43.9344 17.3899 43.2785 20.4299 41.6248C25.1962 39.1198 28.3724 36.1273 30.4499 32.0361C29.8625 31.429 29.5148 30.6297 29.4712 29.7861C29.4398 28.8808 29.7688 28 30.3861 27.337C31.0034 26.6741 31.8585 26.2831 32.7637 26.2498H32.8912C33.7717 26.2454 34.6202 26.5797 35.2611 27.1834C35.902 27.7871 36.2863 28.6141 36.3345 29.4933C36.3827 30.3725 36.091 31.2365 35.5199 31.9067C34.9488 32.5768 34.1419 33.0018 33.2662 33.0936L33.2587 33.0411ZM44.0099 25.4661C48.5887 30.6561 48.7125 36.7648 46.9425 40.3086C45.2924 43.5448 40.9425 46.7848 35.0924 46.7848C32.3616 46.7291 29.6751 46.0831 27.2174 44.8911C28.0762 44.2798 29.295 43.3011 29.9662 42.6898C31.8614 43.5109 33.901 43.9468 35.9662 43.9723C39.7537 43.9723 42.6225 42.2024 44.3325 38.9661C45.4312 36.8286 45.495 34.3236 44.4562 31.7586C43.1816 28.5313 40.9135 25.793 37.9799 23.9398C34.1312 21.3454 29.594 19.9623 24.9524 19.9686H23.8537C23.5975 20.5604 23.1807 21.0687 22.6505 21.4359C22.1203 21.8031 21.4978 22.0144 20.8537 22.0461H20.7374C19.8465 22.0351 18.9949 21.6773 18.3636 21.0486C17.7323 20.4198 17.3709 19.5698 17.3562 18.6789C17.3416 17.788 17.6748 16.9265 18.2852 16.2773C18.8955 15.6282 19.7348 15.2426 20.6249 15.2023H20.7487C21.369 15.2028 21.9771 15.3742 22.5064 15.6977C23.0356 16.0212 23.4654 16.4843 23.7487 17.0361H24.7274C32.5275 17.0361 39.375 20.0286 44.0099 25.4661ZM12.9787 34.0911C12.9145 33.4684 13.0653 32.8424 13.4062 32.3173C9.9862 26.3923 8.1562 18.8811 10.9649 11.0623C12.9787 5.18609 18.0487 1.21484 23.5462 1.21484C29.4112 1.21484 35.5199 6.34859 36.2512 16.2411C35.3362 15.9373 34.0012 15.4911 33.1987 15.3261C33 12.0898 30.2662 4.02734 23.7899 4.14734C21.4687 4.21109 18.0487 5.30984 16.2899 7.56734C14.1144 10.2622 12.8489 13.5771 12.6749 17.0361C12.2627 21.779 13.3755 26.5296 15.8512 30.5961C15.9879 30.5462 16.1336 30.5257 16.2787 30.5361H16.3987C17.3057 30.5197 18.1821 30.8643 18.8351 31.494C19.4881 32.1238 19.8642 32.9872 19.8806 33.8942C19.897 34.8013 19.5524 35.6777 18.9226 36.3307C18.2929 36.9836 17.4295 37.3597 16.5224 37.3761H16.3987C15.5138 37.373 14.6643 37.0284 14.0271 36.4144C13.39 35.8003 13.0144 34.964 12.9787 34.0798V34.0911Z" fill="#764ABC"/>
</svg>
