<svg width="146" height="76" viewBox="0 0 146 76" fill="none" xmlns="http://www.w3.org/2000/svg">
<path d="M76 45C34.0264 45 0 10.9736 0 -31H152C152 10.9736 117.974 45 76 45Z" fill="#F520A0"/>
<rect x="76" y="20" width="55.9451" height="55.9451" fill="#6FC6EC"/>
<path d="M93 -8H94.554V-6.44597H93V-8Z" fill="white"/>
<path d="M100.77 -8H102.324V-6.44597H100.77V-8Z" fill="white"/>
<path d="M108.54 -8H110.094V-6.44597H108.54V-8Z" fill="white"/>
<path d="M116.31 -8H117.864V-6.44597H116.31V-8Z" fill="white"/>
<path d="M124.081 -8H125.635V-6.44597H124.081V-8Z" fill="white"/>
<path d="M131.851 -8H133.405V-6.44597H131.851V-8Z" fill="white"/>
<path d="M139.621 -8H141.175V-6.44597H139.621V-8Z" fill="white"/>
<path d="M147.391 -8H148.945V-6.44597H147.391V-8Z" fill="white"/>
<path d="M93 -0.229849H94.554V1.32418H93V-0.229849Z" fill="white"/>
<path d="M100.77 -0.229849H102.324V1.32418H100.77V-0.229849Z" fill="white"/>
<path d="M108.54 -0.229849H110.094V1.32418H108.54V-0.229849Z" fill="white"/>
<path d="M116.31 -0.229849H117.864V1.32418H116.31V-0.229849Z" fill="white"/>
<path d="M124.081 -0.229849H125.635V1.32418H124.081V-0.229849Z" fill="white"/>
<path d="M131.851 -0.229849H133.405V1.32418H131.851V-0.229849Z" fill="white"/>
<path d="M139.621 -0.229849H141.175V1.32418H139.621V-0.229849Z" fill="white"/>
<path d="M147.391 -0.229849H148.945V1.32418H147.391V-0.229849Z" fill="white"/>
<path d="M93 7.5403H94.554V9.09433H93V7.5403Z" fill="white"/>
<path d="M100.77 7.5403H102.324V9.09433H100.77V7.5403Z" fill="white"/>
<path d="M108.54 7.5403H110.094V9.09433H108.54V7.5403Z" fill="white"/>
<path d="M116.31 7.5403H117.864V9.09433H116.31V7.5403Z" fill="white"/>
<path d="M124.081 7.5403H125.635V9.09433H124.081V7.5403Z" fill="white"/>
<path d="M131.851 7.5403H133.405V9.09433H131.851V7.5403Z" fill="white"/>
<path d="M139.621 7.5403H141.175V9.09433H139.621V7.5403Z" fill="white"/>
<path d="M147.391 7.5403H148.945V9.09433H147.391V7.5403Z" fill="white"/>
<path d="M93 15.3105H94.554V16.8645H93V15.3105Z" fill="white"/>
<path d="M100.77 15.3105H102.324V16.8645H100.77V15.3105Z" fill="white"/>
<path d="M108.54 15.3105H110.094V16.8645H108.54V15.3105Z" fill="white"/>
<path d="M116.31 15.3105H117.864V16.8645H116.31V15.3105Z" fill="white"/>
<path d="M124.081 15.3105H125.635V16.8645H124.081V15.3105Z" fill="white"/>
<path d="M131.851 15.3105H133.405V16.8645H131.851V15.3105Z" fill="white"/>
<path d="M139.621 15.3105H141.175V16.8645H139.621V15.3105Z" fill="white"/>
<path d="M147.391 15.3105H148.945V16.8645H147.391V15.3105Z" fill="white"/>
<path d="M93 23.0806H94.554V24.6346H93V23.0806Z" fill="white"/>
<path d="M100.77 23.0806H102.324V24.6346H100.77V23.0806Z" fill="white"/>
<path d="M108.54 23.0806H110.094V24.6346H108.54V23.0806Z" fill="white"/>
<path d="M116.31 23.0806H117.864V24.6346H116.31V23.0806Z" fill="white"/>
<path d="M124.081 23.0806H125.635V24.6346H124.081V23.0806Z" fill="white"/>
<path d="M131.851 23.0806H133.405V24.6346H131.851V23.0806Z" fill="white"/>
<path d="M139.621 23.0806H141.175V24.6346H139.621V23.0806Z" fill="white"/>
<path d="M147.391 23.0806H148.945V24.6346H147.391V23.0806Z" fill="white"/>
<path d="M93 30.8507H94.554V32.4048H93V30.8507Z" fill="white"/>
<path d="M100.77 30.8507H102.324V32.4048H100.77V30.8507Z" fill="white"/>
<path d="M108.54 30.8507H110.094V32.4048H108.54V30.8507Z" fill="white"/>
<path d="M116.31 30.8507H117.864V32.4048H116.31V30.8507Z" fill="white"/>
<path d="M124.081 30.8507H125.635V32.4048H124.081V30.8507Z" fill="white"/>
<path d="M131.851 30.8507H133.405V32.4048H131.851V30.8507Z" fill="white"/>
<path d="M139.621 30.8507H141.175V32.4048H139.621V30.8507Z" fill="white"/>
<path d="M147.391 30.8507H148.945V32.4048H147.391V30.8507Z" fill="white"/>
<path d="M93 38.6209H94.554V40.1749H93V38.6209Z" fill="white"/>
<path d="M100.77 38.6209H102.324V40.1749H100.77V38.6209Z" fill="white"/>
<path d="M108.54 38.6209H110.094V40.1749H108.54V38.6209Z" fill="white"/>
<path d="M116.31 38.6209H117.864V40.1749H116.31V38.6209Z" fill="white"/>
<path d="M124.081 38.6209H125.635V40.1749H124.081V38.6209Z" fill="white"/>
<path d="M131.851 38.6209H133.405V40.1749H131.851V38.6209Z" fill="white"/>
<path d="M139.621 38.6209H141.175V40.1749H139.621V38.6209Z" fill="white"/>
<path d="M147.391 38.6209H148.945V40.1749H147.391V38.6209Z" fill="white"/>
<path d="M93 46.3911H94.554V47.9451H93V46.3911Z" fill="white"/>
<path d="M100.77 46.3911H102.324V47.9451H100.77V46.3911Z" fill="white"/>
<path d="M108.54 46.3911H110.094V47.9451H108.54V46.3911Z" fill="white"/>
<path d="M116.31 46.3911H117.864V47.9451H116.31V46.3911Z" fill="white"/>
<path d="M124.081 46.3911H125.635V47.9451H124.081V46.3911Z" fill="white"/>
<path d="M131.851 46.3911H133.405V47.9451H131.851V46.3911Z" fill="white"/>
<path d="M139.621 46.3911H141.175V47.9451H139.621V46.3911Z" fill="white"/>
<path d="M147.391 46.3911H148.945V47.9451H147.391V46.3911Z" fill="white"/>
</svg>
