<svg width="48" height="48" viewBox="0 0 48 48" fill="none" xmlns="http://www.w3.org/2000/svg">
<circle cx="24" cy="24" r="24" fill="#F2F2F7"/>
<path d="M24.1739 19.165C24.1274 19.1205 24.0655 19.0956 24.0011 19.0956C23.9367 19.0956 23.8748 19.1205 23.8283 19.165L18.0752 24.6609C18.0508 24.6843 18.0313 24.7124 18.0181 24.7435C18.0048 24.7746 17.998 24.8081 17.998 24.8419L17.9971 30C17.9971 30.2652 18.1024 30.5196 18.29 30.7071C18.4775 30.8946 18.7319 31 18.9971 31H22.0002C22.1328 31 22.26 30.9473 22.3537 30.8535C22.4475 30.7598 22.5002 30.6326 22.5002 30.5V26.25C22.5002 26.1837 22.5265 26.1201 22.5734 26.0732C22.6203 26.0263 22.6839 26 22.7502 26H25.2502C25.3165 26 25.3801 26.0263 25.427 26.0732C25.4739 26.1201 25.5002 26.1837 25.5002 26.25V30.5C25.5002 30.6326 25.5529 30.7598 25.6466 30.8535C25.7404 30.9473 25.8676 31 26.0002 31H29.0021C29.2673 31 29.5216 30.8946 29.7092 30.7071C29.8967 30.5196 30.0021 30.2652 30.0021 30V24.8419C30.0021 24.8081 29.9953 24.7746 29.982 24.7435C29.9688 24.7124 29.9493 24.6843 29.9249 24.6609L24.1739 19.165Z" fill="black"/>
<path d="M31.3409 23.6297L29.0034 21.3934V18C29.0034 17.8674 28.9508 17.7402 28.857 17.6464C28.7632 17.5527 28.6361 17.5 28.5034 17.5H27.0034C26.8708 17.5 26.7437 17.5527 26.6499 17.6464C26.5561 17.7402 26.5034 17.8674 26.5034 18V19L24.6934 17.2694C24.5241 17.0981 24.2722 17 24 17C23.7288 17 23.4775 17.0981 23.3081 17.2697L16.6613 23.6291C16.4669 23.8166 16.4425 24.125 16.6194 24.3281C16.6638 24.3794 16.7182 24.4211 16.7792 24.4507C16.8403 24.4803 16.9067 24.4971 16.9745 24.5002C17.0422 24.5033 17.1099 24.4926 17.1734 24.4687C17.2369 24.4448 17.2949 24.4083 17.3438 24.3612L23.8281 18.165C23.8747 18.1205 23.9366 18.0957 24.0009 18.0957C24.0653 18.0957 24.1272 18.1205 24.1738 18.165L30.6588 24.3612C30.7543 24.4529 30.8822 24.5029 31.0146 24.5003C31.1469 24.4977 31.2728 24.4428 31.3647 24.3475C31.5566 24.1487 31.5406 23.8206 31.3409 23.6297Z" fill="black"/>
</svg>
