<svg width="48" height="48" viewBox="0 0 48 48" fill="none" xmlns="http://www.w3.org/2000/svg">
<path fill-rule="evenodd" clip-rule="evenodd" d="M24.0354 47.3344C36.8885 47.3149 47.2933 36.8596 47.2933 23.9626C47.2933 11.2752 36.9365 0.826186 24.5634 0.605311C11.5689 0.373561 0.710407 10.9178 0.707032 23.7042C0.703282 36.8588 11.0615 47.3532 24.0354 47.3344ZM23.9975 1.73669C36.3377 1.73256 46.1698 11.7586 46.166 24.3417C46.1619 36.2213 36.0692 46.1592 24.0065 46.1618C11.7174 46.1644 1.83466 36.2007 1.83503 23.8088C1.83578 11.7364 11.8723 1.74081 23.9975 1.73669ZM14.684 13.4614C14.8858 14.1338 14.321 14.3678 13.7207 14.4147C13.0888 14.4634 12.4573 14.5111 11.7238 14.5669C14.1448 21.7797 16.5294 28.8856 18.9707 36.1568C19.1447 35.8722 19.2163 35.7919 19.2478 35.6982C20.588 31.6924 21.9358 27.6893 23.2419 23.6723C23.3612 23.3059 23.3019 22.8207 23.1714 22.4442C22.4803 20.4492 21.6523 18.4977 21.0463 16.4787C20.6319 15.0964 20.0822 14.2021 18.4483 14.3622C18.17 14.3896 17.8303 13.7907 17.5187 13.4813C17.8955 13.2563 18.2698 12.8423 18.65 12.8367C21.977 12.7861 25.3052 12.7861 28.6318 12.8397C29.0135 12.8461 29.3878 13.2709 29.7647 13.5016C29.4347 13.8031 29.15 14.2553 28.7642 14.3719C28.145 14.5587 27.4584 14.5234 26.7174 14.5894C29.141 21.7988 31.5148 28.8608 33.9733 36.1744C35.0724 32.5234 36.095 29.1709 37.0895 25.8098C37.9768 22.8094 37.448 20.0074 35.8438 17.3648C35.3615 16.5702 34.769 15.7992 34.4957 14.9326C34.1852 13.9467 33.9272 12.8243 34.0918 11.8354C34.3712 10.1596 35.657 9.32744 37.397 9.16806C27.875 0.330812 12.9118 3.49431 7.39816 13.0962C9.52066 12.9983 11.5472 12.8697 13.5752 12.8419C13.9584 12.8371 14.594 13.1611 14.684 13.4614ZM18.4779 42.7006C18.4337 42.8299 18.431 42.9739 18.3962 43.1888C22.4998 44.3266 26.5243 44.2444 30.6433 42.8566L24.3508 25.6216C22.337 31.4757 20.4058 37.0872 18.4779 42.7006ZM15.3069 41.9213L5.82653 15.9151C1.54966 24.2693 4.80316 37.0156 15.3069 41.9213ZM43.9674 25.2106C44.2682 21.2603 42.9054 15.7909 41.7287 15.0387C41.5974 16.4918 41.6889 18.1084 41.2719 19.5814C40.2905 23.0521 39.0905 26.4623 37.9348 29.8819C36.6785 33.5989 35.3728 37.2991 34.0884 41.0067C40.1229 37.4296 43.439 32.1499 43.9674 25.2106Z" fill="#494949"/>
</svg>
