<svg width="48" height="48" viewBox="0 0 48 48" fill="none" xmlns="http://www.w3.org/2000/svg">
<circle cx="24" cy="24" r="24" fill="#F2F2F7"/>
<path d="M30.5 28.0122C30.36 28.0121 30.2216 27.9826 30.0938 27.9256C30.064 27.9124 30.0356 27.8963 30.0091 27.8775L27.4244 26.0581C27.2933 25.9658 27.1863 25.8434 27.1125 25.7011C27.0386 25.5589 27 25.4009 27 25.2406V22.7594C27 22.5991 27.0386 22.4411 27.1125 22.2989C27.1863 22.1566 27.2933 22.0341 27.4244 21.9419L30.0091 20.1225C30.0356 20.1037 30.064 20.0876 30.0938 20.0744C30.246 20.0067 30.4128 19.9781 30.5789 19.9912C30.745 20.0044 30.9051 20.0588 31.0449 20.1496C31.1846 20.2404 31.2994 20.3646 31.3789 20.5111C31.4584 20.6575 31.5 20.8215 31.5 20.9881V27.0119C31.5 27.2771 31.3946 27.5314 31.2071 27.719C31.0196 27.9065 30.7652 28.0119 30.5 28.0119V28.0122Z" fill="black"/>
<path d="M24.375 28.5H18.625C18.0616 28.4994 17.5214 28.2754 17.123 27.877C16.7246 27.4786 16.5006 26.9384 16.5 26.375V21.625C16.5006 21.0616 16.7246 20.5214 17.123 20.123C17.5214 19.7246 18.0616 19.5006 18.625 19.5H24.39C24.9494 19.5007 25.4857 19.7232 25.8813 20.1187C26.2768 20.5143 26.4993 21.0506 26.5 21.61V26.375C26.4994 26.9384 26.2754 27.4786 25.877 27.877C25.4786 28.2754 24.9384 28.4994 24.375 28.5Z" fill="black"/>
</svg>
