<svg width="48" height="48" viewBox="0 0 48 48" fill="none" xmlns="http://www.w3.org/2000/svg">
<circle cx="24" cy="24" r="24" fill="#F2F2F7"/>
<path d="M26.4999 24C25.8574 24 25.2361 23.7131 24.7499 23.1925C24.2771 22.6847 23.9883 22.0075 23.9374 21.2863C23.883 20.5169 24.1177 19.8094 24.598 19.2938C25.0783 18.7781 25.7499 18.5 26.4999 18.5C27.2446 18.5 27.918 18.7831 28.3968 19.2975C28.8802 19.8169 29.1155 20.5231 29.0611 21.2859C29.009 22.0081 28.7205 22.685 28.2486 23.1922C27.7636 23.7131 27.1427 24 26.4999 24Z" fill="black"/>
<path d="M30.6192 29.5H22.3801C22.2476 29.5007 22.1168 29.471 21.9976 29.4132C21.8784 29.3554 21.7741 29.271 21.6926 29.1666C21.6062 29.0533 21.5465 28.922 21.5181 28.7824C21.4896 28.6429 21.4931 28.4987 21.5282 28.3606C21.7914 27.3041 22.4432 26.4278 23.4132 25.8269C24.2742 25.2937 25.3701 25 26.4995 25C27.6511 25 28.7182 25.2812 29.5842 25.8141C30.5564 26.4119 31.2092 27.2931 31.4711 28.3625C31.5058 28.5006 31.5089 28.6448 31.4801 28.7843C31.4513 28.9238 31.3914 29.055 31.3048 29.1681C31.2234 29.2721 31.1193 29.3561 31.0005 29.4136C30.8816 29.4711 30.7512 29.5007 30.6192 29.5Z" fill="black"/>
<path d="M20.5939 24.125C19.4943 24.125 18.5274 23.1025 18.4377 21.8459C18.3933 21.2022 18.5939 20.6069 19.0002 20.1703C19.4021 19.7381 19.9689 19.5 20.5939 19.5C21.2189 19.5 21.7814 19.7394 22.1855 20.1741C22.5949 20.6141 22.7949 21.2081 22.748 21.8466C22.6583 23.1028 21.6918 24.125 20.5939 24.125Z" fill="black"/>
<path d="M22.6456 25.1078C22.0959 24.839 21.3825 24.7047 20.594 24.7047C19.6734 24.7047 18.7793 24.9447 18.0762 25.3803C17.279 25.875 16.7428 26.5953 16.5262 27.465C16.4945 27.5901 16.4915 27.7207 16.5174 27.8471C16.5434 27.9735 16.5975 28.0924 16.6759 28.195C16.7503 28.2904 16.8455 28.3676 16.9544 28.4204C17.0632 28.4733 17.1827 28.5005 17.3037 28.5H20.7725C20.831 28.5 20.8877 28.4794 20.9326 28.4419C20.9776 28.4044 21.0079 28.3523 21.0184 28.2947C21.0218 28.275 21.0262 28.2553 21.0312 28.2359C21.2962 27.1715 21.9172 26.2722 22.8347 25.6165C22.8684 25.5922 22.8955 25.5598 22.9136 25.5224C22.9317 25.4849 22.9401 25.4435 22.9382 25.402C22.9362 25.3604 22.9239 25.32 22.9024 25.2844C22.8809 25.2488 22.8508 25.2191 22.815 25.1981C22.7659 25.1693 22.7097 25.139 22.6456 25.1078Z" fill="black"/>
</svg>
