<svg width="514" height="173" viewBox="0 0 514 173" fill="none" xmlns="http://www.w3.org/2000/svg">
<circle cx="299" cy="68" r="64" fill="#01A3DE"/>
<path d="M210 41C185.147 41 165 61.1472 165 86H255C255 61.1472 234.853 41 210 41Z" fill="#F9CC14"/>
<rect x="438" width="128" height="128" fill="#33AF4A"/>
<path d="M128 28V156H0L128 28Z" fill="#33AF4A"/>
<path d="M291 45H294.556V48.5556H291V45Z" fill="white"/>
<path d="M308.778 45H312.333V48.5556H308.778V45Z" fill="white"/>
<path d="M326.556 45H330.111V48.5556H326.556V45Z" fill="white"/>
<path d="M344.333 45H347.889V48.5556H344.333V45Z" fill="white"/>
<path d="M362.111 45H365.667V48.5556H362.111V45Z" fill="white"/>
<path d="M379.889 45H383.444V48.5556H379.889V45Z" fill="white"/>
<path d="M397.667 45H401.222V48.5556H397.667V45Z" fill="white"/>
<path d="M415.444 45H419V48.5556H415.444V45Z" fill="white"/>
<path d="M291 62.7778H294.556V66.3333H291V62.7778Z" fill="white"/>
<path d="M308.778 62.7778H312.333V66.3333H308.778V62.7778Z" fill="white"/>
<path d="M326.556 62.7778H330.111V66.3333H326.556V62.7778Z" fill="white"/>
<path d="M344.333 62.7778H347.889V66.3333H344.333V62.7778Z" fill="white"/>
<path d="M362.111 62.7778H365.667V66.3333H362.111V62.7778Z" fill="white"/>
<path d="M379.889 62.7778H383.444V66.3333H379.889V62.7778Z" fill="white"/>
<path d="M397.667 62.7778H401.222V66.3333H397.667V62.7778Z" fill="white"/>
<path d="M415.444 62.7778H419V66.3333H415.444V62.7778Z" fill="white"/>
<path d="M291 80.5556H294.556V84.1111H291V80.5556Z" fill="white"/>
<path d="M308.778 80.5556H312.333V84.1111H308.778V80.5556Z" fill="white"/>
<path d="M326.556 80.5556H330.111V84.1111H326.556V80.5556Z" fill="white"/>
<path d="M344.333 80.5556H347.889V84.1111H344.333V80.5556Z" fill="white"/>
<path d="M362.111 80.5556H365.667V84.1111H362.111V80.5556Z" fill="white"/>
<path d="M379.889 80.5556H383.444V84.1111H379.889V80.5556Z" fill="white"/>
<path d="M397.667 80.5556H401.222V84.1111H397.667V80.5556Z" fill="white"/>
<path d="M415.444 80.5556H419V84.1111H415.444V80.5556Z" fill="white"/>
<path d="M291 98.3333H294.556V101.889H291V98.3333Z" fill="white"/>
<path d="M308.778 98.3333H312.333V101.889H308.778V98.3333Z" fill="white"/>
<path d="M326.556 98.3333H330.111V101.889H326.556V98.3333Z" fill="white"/>
<path d="M344.333 98.3333H347.889V101.889H344.333V98.3333Z" fill="white"/>
<path d="M362.111 98.3333H365.667V101.889H362.111V98.3333Z" fill="white"/>
<path d="M379.889 98.3333H383.444V101.889H379.889V98.3333Z" fill="white"/>
<path d="M397.667 98.3333H401.222V101.889H397.667V98.3333Z" fill="white"/>
<path d="M415.444 98.3333H419V101.889H415.444V98.3333Z" fill="white"/>
<path d="M291 116.111H294.556V119.667H291V116.111Z" fill="white"/>
<path d="M308.778 116.111H312.333V119.667H308.778V116.111Z" fill="white"/>
<path d="M326.556 116.111H330.111V119.667H326.556V116.111Z" fill="white"/>
<path d="M344.333 116.111H347.889V119.667H344.333V116.111Z" fill="white"/>
<path d="M362.111 116.111H365.667V119.667H362.111V116.111Z" fill="white"/>
<path d="M379.889 116.111H383.444V119.667H379.889V116.111Z" fill="white"/>
<path d="M397.667 116.111H401.222V119.667H397.667V116.111Z" fill="white"/>
<path d="M415.444 116.111H419V119.667H415.444V116.111Z" fill="white"/>
<path d="M291 133.889H294.556V137.444H291V133.889Z" fill="white"/>
<path d="M308.778 133.889H312.333V137.444H308.778V133.889Z" fill="white"/>
<path d="M326.556 133.889H330.111V137.444H326.556V133.889Z" fill="white"/>
<path d="M344.333 133.889H347.889V137.444H344.333V133.889Z" fill="white"/>
<path d="M362.111 133.889H365.667V137.444H362.111V133.889Z" fill="white"/>
<path d="M379.889 133.889H383.444V137.444H379.889V133.889Z" fill="white"/>
<path d="M397.667 133.889H401.222V137.444H397.667V133.889Z" fill="white"/>
<path d="M415.444 133.889H419V137.444H415.444V133.889Z" fill="white"/>
<path d="M291 151.667H294.556V155.222H291V151.667Z" fill="white"/>
<path d="M308.778 151.667H312.333V155.222H308.778V151.667Z" fill="white"/>
<path d="M326.556 151.667H330.111V155.222H326.556V151.667Z" fill="white"/>
<path d="M344.333 151.667H347.889V155.222H344.333V151.667Z" fill="white"/>
<path d="M362.111 151.667H365.667V155.222H362.111V151.667Z" fill="white"/>
<path d="M379.889 151.667H383.444V155.222H379.889V151.667Z" fill="white"/>
<path d="M397.667 151.667H401.222V155.222H397.667V151.667Z" fill="white"/>
<path d="M415.444 151.667H419V155.222H415.444V151.667Z" fill="white"/>
<path d="M291 169.444H294.556V173H291V169.444Z" fill="white"/>
<path d="M308.778 169.444H312.333V173H308.778V169.444Z" fill="white"/>
<path d="M326.556 169.444H330.111V173H326.556V169.444Z" fill="white"/>
<path d="M344.333 169.444H347.889V173H344.333V169.444Z" fill="white"/>
<path d="M362.111 169.444H365.667V173H362.111V169.444Z" fill="white"/>
<path d="M379.889 169.444H383.444V173H379.889V169.444Z" fill="white"/>
<path d="M397.667 169.444H401.222V173H397.667V169.444Z" fill="white"/>
<path d="M415.444 169.444H419V173H415.444V169.444Z" fill="white"/>
</svg>
