<svg width="96" height="96" viewBox="0 0 96 96" fill="none" xmlns="http://www.w3.org/2000/svg">
<path d="M1.05615 1.05664H94.9442V94.9454H1.05615V1.05664Z" fill="#F0DB4F"/>
<path d="M87.2602 72.5517C86.5724 68.2684 83.7794 64.6707 75.5062 61.3159C72.6322 59.9952 69.4282 59.0494 68.4734 56.8714C68.1344 55.6039 68.0894 54.8899 68.3039 54.1227C68.9197 51.6327 71.8919 50.8564 74.2477 51.5704C75.7649 52.0789 77.2012 53.2482 78.0674 55.1134C82.1189 52.4899 82.1107 52.5072 84.9397 50.7042C83.9039 49.0984 83.3512 48.3574 82.6732 47.6704C80.2364 44.9487 76.9162 43.5469 71.6062 43.6542L68.8402 44.0119C66.1897 44.6817 63.6637 46.0729 62.1824 47.9382C57.7379 52.9812 59.0054 61.8072 64.4137 65.4394C69.7417 69.4384 77.5687 70.3482 78.5684 74.0877C79.5412 78.6657 75.2039 80.1477 70.8929 79.6212C67.7159 78.9604 65.9489 77.3457 64.0387 74.4094C60.5227 76.4442 60.5227 76.4442 56.9077 78.5232C57.7649 80.3974 58.6657 81.2457 60.1027 82.8694C66.9037 89.7679 83.9227 89.4289 86.9752 78.9874C87.0989 78.6289 87.9209 76.2379 87.2602 72.5517ZM52.0964 44.2069H43.3147L43.2787 66.9109C43.2787 71.7394 43.5284 76.1659 42.7432 77.5227C41.4584 80.1912 38.1292 79.8604 36.6119 79.3429C35.0677 78.5839 34.2824 77.5047 33.3727 75.9792C33.1229 75.5412 32.9354 75.2022 32.8724 75.1759L25.7324 79.5484C26.9197 81.9852 28.6687 84.1002 30.9089 85.4742C34.2554 87.4827 38.7532 88.0984 43.4572 87.0184C46.5187 86.1267 49.1602 84.2794 50.5432 81.4677C52.5427 77.7814 52.1137 73.3197 52.0957 68.3847C52.1407 60.3334 52.0964 52.2837 52.0964 44.2069Z" fill="#323330"/>
</svg>
