<svg width="261" height="269" viewBox="0 0 261 269" fill="none" xmlns="http://www.w3.org/2000/svg">
          <rect width="4.14735" height="4.27197" transform="matrix(-4.37114e-08 1 1 4.37114e-08 0 79)" fill="#171717"/>
          <rect width="4.14735" height="4.27197" transform="matrix(-4.37114e-08 1 1 4.37114e-08 0 99.6309)" fill="#171717"/>
          <rect width="4.14735" height="4.27197" transform="matrix(-4.37114e-08 1 1 4.37114e-08 0 120.264)" fill="#171717"/>
          <rect width="4.14735" height="4.27197" transform="matrix(-4.37114e-08 1 1 4.37114e-08 0 140.895)" fill="#171717"/>
          <rect width="4.14735" height="4.27197" transform="matrix(-4.37114e-08 1 1 4.37114e-08 0 161.527)" fill="#171717"/>
          <rect width="4.14735" height="4.27197" transform="matrix(-4.37114e-08 1 1 4.37114e-08 0 182.158)" fill="#171717"/>
          <rect width="4.14735" height="4.27197" transform="matrix(-4.37114e-08 1 1 4.37114e-08 0 202.791)" fill="#171717"/>
          <rect width="4.14735" height="4.27197" transform="matrix(-4.37114e-08 1 1 4.37114e-08 0 223.422)" fill="#171717"/>
          <rect width="4.14735" height="4.27197" transform="matrix(-4.37114e-08 1 1 4.37114e-08 0 244.055)" fill="#171717"/>
          <rect width="4.14735" height="4.27197" transform="matrix(-4.37114e-08 1 1 4.37114e-08 0 264.686)" fill="#171717"/>
          <rect width="4.14735" height="4.27197" transform="matrix(-4.37114e-08 1 1 4.37114e-08 18.4023 79)" fill="#171717"/>
          <rect width="4.14735" height="4.27197" transform="matrix(-4.37114e-08 1 1 4.37114e-08 18.4023 99.6309)" fill="#171717"/>
          <rect width="4.14735" height="4.27197" transform="matrix(-4.37114e-08 1 1 4.37114e-08 18.4023 120.264)" fill="#171717"/>
          <rect width="4.14735" height="4.27197" transform="matrix(-4.37114e-08 1 1 4.37114e-08 18.4023 140.895)" fill="#171717"/>
          <rect width="4.14735" height="4.27197" transform="matrix(-4.37114e-08 1 1 4.37114e-08 18.4023 161.527)" fill="#171717"/>
          <rect width="4.14735" height="4.27197" transform="matrix(-4.37114e-08 1 1 4.37114e-08 18.4023 182.158)" fill="#171717"/>
          <rect width="4.14735" height="4.27197" transform="matrix(-4.37114e-08 1 1 4.37114e-08 18.4023 202.791)" fill="#171717"/>
          <rect width="4.14735" height="4.27197" transform="matrix(-4.37114e-08 1 1 4.37114e-08 18.4023 223.422)" fill="#171717"/>
          <rect width="4.14735" height="4.27197" transform="matrix(-4.37114e-08 1 1 4.37114e-08 18.4023 244.055)" fill="#171717"/>
          <rect width="4.14735" height="4.27197" transform="matrix(-4.37114e-08 1 1 4.37114e-08 18.4023 264.686)" fill="#171717"/>
          <rect width="4.14735" height="4.27197" transform="matrix(-4.37114e-08 1 1 4.37114e-08 36.8027 79)" fill="#171717"/>
          <rect width="4.14735" height="4.27197" transform="matrix(-4.37114e-08 1 1 4.37114e-08 36.8027 99.6309)" fill="#171717"/>
          <rect width="4.14735" height="4.27197" transform="matrix(-4.37114e-08 1 1 4.37114e-08 36.8027 120.264)" fill="#171717"/>
          <rect width="4.14735" height="4.27197" transform="matrix(-4.37114e-08 1 1 4.37114e-08 36.8027 140.895)" fill="#171717"/>
          <rect width="4.14735" height="4.27197" transform="matrix(-4.37114e-08 1 1 4.37114e-08 36.8027 161.527)" fill="#171717"/>
          <rect width="4.14735" height="4.27197" transform="matrix(-4.37114e-08 1 1 4.37114e-08 36.8027 182.158)" fill="#171717"/>
          <rect width="4.14735" height="4.27197" transform="matrix(-4.37114e-08 1 1 4.37114e-08 36.8027 202.791)" fill="#171717"/>
          <rect width="4.14735" height="4.27197" transform="matrix(-4.37114e-08 1 1 4.37114e-08 36.8027 223.422)" fill="#171717"/>
          <rect width="4.14735" height="4.27197" transform="matrix(-4.37114e-08 1 1 4.37114e-08 36.8027 244.055)" fill="#171717"/>
          <rect width="4.14735" height="4.27197" transform="matrix(-4.37114e-08 1 1 4.37114e-08 36.8027 264.686)" fill="#171717"/>
          <rect width="4.14735" height="4.27197" transform="matrix(-4.37114e-08 1 1 4.37114e-08 55.2051 79)" fill="#171717"/>
          <rect width="4.14735" height="4.27197" transform="matrix(-4.37114e-08 1 1 4.37114e-08 55.2051 99.6309)" fill="#171717"/>
          <rect width="4.14735" height="4.27197" transform="matrix(-4.37114e-08 1 1 4.37114e-08 55.2051 120.264)" fill="#171717"/>
          <rect width="4.14735" height="4.27197" transform="matrix(-4.37114e-08 1 1 4.37114e-08 55.2051 140.895)" fill="#171717"/>
          <rect width="4.14735" height="4.27197" transform="matrix(-4.37114e-08 1 1 4.37114e-08 55.2051 161.527)" fill="#171717"/>
          <rect width="4.14735" height="4.27197" transform="matrix(-4.37114e-08 1 1 4.37114e-08 55.2051 182.158)" fill="#171717"/>
          <rect width="4.14735" height="4.27197" transform="matrix(-4.37114e-08 1 1 4.37114e-08 55.2051 202.791)" fill="#171717"/>
          <rect width="4.14735" height="4.27197" transform="matrix(-4.37114e-08 1 1 4.37114e-08 55.2051 223.422)" fill="#171717"/>
          <rect width="4.14735" height="4.27197" transform="matrix(-4.37114e-08 1 1 4.37114e-08 55.2051 244.055)" fill="#171717"/>
          <rect width="4.14735" height="4.27197" transform="matrix(-4.37114e-08 1 1 4.37114e-08 55.2051 264.686)" fill="#171717"/>
          <rect width="4.14735" height="4.27197" transform="matrix(-4.37114e-08 1 1 4.37114e-08 73.6055 79)" fill="#171717"/>
          <rect width="4.14735" height="4.27197" transform="matrix(-4.37114e-08 1 1 4.37114e-08 73.6055 99.6309)" fill="#171717"/>
          <rect width="4.14735" height="4.27197" transform="matrix(-4.37114e-08 1 1 4.37114e-08 73.6055 120.264)" fill="#171717"/>
          <rect width="4.14735" height="4.27197" transform="matrix(-4.37114e-08 1 1 4.37114e-08 73.6055 140.895)" fill="#171717"/>
          <rect width="4.14735" height="4.27197" transform="matrix(-4.37114e-08 1 1 4.37114e-08 73.6055 161.527)" fill="#171717"/>
          <rect width="4.14735" height="4.27197" transform="matrix(-4.37114e-08 1 1 4.37114e-08 73.6055 182.158)" fill="#171717"/>
          <rect width="4.14735" height="4.27197" transform="matrix(-4.37114e-08 1 1 4.37114e-08 73.6055 202.791)" fill="#171717"/>
          <rect width="4.14735" height="4.27197" transform="matrix(-4.37114e-08 1 1 4.37114e-08 73.6055 223.422)" fill="#171717"/>
          <rect width="4.14735" height="4.27197" transform="matrix(-4.37114e-08 1 1 4.37114e-08 73.6055 244.055)" fill="#171717"/>
          <rect width="4.14735" height="4.27197" transform="matrix(-4.37114e-08 1 1 4.37114e-08 73.6055 264.686)" fill="#171717"/>
          <rect width="4.14735" height="4.27197" transform="matrix(-4.37114e-08 1 1 4.37114e-08 92.0078 79)" fill="#171717"/>
          <rect width="4.14735" height="4.27197" transform="matrix(-4.37114e-08 1 1 4.37114e-08 92.0078 99.6309)" fill="#171717"/>
          <rect width="4.14735" height="4.27197" transform="matrix(-4.37114e-08 1 1 4.37114e-08 92.0078 120.264)" fill="#171717"/>
          <rect width="4.14735" height="4.27197" transform="matrix(-4.37114e-08 1 1 4.37114e-08 92.0078 140.895)" fill="#171717"/>
          <rect width="4.14735" height="4.27197" transform="matrix(-4.37114e-08 1 1 4.37114e-08 92.0078 161.527)" fill="#171717"/>
          <rect width="4.14735" height="4.27197" transform="matrix(-4.37114e-08 1 1 4.37114e-08 92.0078 182.158)" fill="#171717"/>
          <rect width="4.14735" height="4.27197" transform="matrix(-4.37114e-08 1 1 4.37114e-08 92.0078 202.791)" fill="#171717"/>
          <rect width="4.14735" height="4.27197" transform="matrix(-4.37114e-08 1 1 4.37114e-08 92.0078 223.422)" fill="#171717"/>
          <rect width="4.14735" height="4.27197" transform="matrix(-4.37114e-08 1 1 4.37114e-08 92.0078 244.055)" fill="#171717"/>
          <rect width="4.14735" height="4.27197" transform="matrix(-4.37114e-08 1 1 4.37114e-08 92.0078 264.686)" fill="#171717"/>
          <rect width="4.14735" height="4.27197" transform="matrix(-4.37114e-08 1 1 4.37114e-08 110.408 79)" fill="#171717"/>
          <rect width="4.14735" height="4.27197" transform="matrix(-4.37114e-08 1 1 4.37114e-08 110.408 99.6309)" fill="#171717"/>
          <rect width="4.14735" height="4.27197" transform="matrix(-4.37114e-08 1 1 4.37114e-08 110.408 120.264)" fill="#171717"/>
          <rect width="4.14735" height="4.27197" transform="matrix(-4.37114e-08 1 1 4.37114e-08 110.408 140.895)" fill="#171717"/>
          <rect width="4.14735" height="4.27197" transform="matrix(-4.37114e-08 1 1 4.37114e-08 110.408 161.527)" fill="#171717"/>
          <rect width="4.14735" height="4.27197" transform="matrix(-4.37114e-08 1 1 4.37114e-08 110.408 182.158)" fill="#171717"/>
          <rect width="4.14735" height="4.27197" transform="matrix(-4.37114e-08 1 1 4.37114e-08 110.408 202.791)" fill="#171717"/>
          <rect width="4.14735" height="4.27197" transform="matrix(-4.37114e-08 1 1 4.37114e-08 110.408 223.422)" fill="#171717"/>
          <rect width="4.14735" height="4.27197" transform="matrix(-4.37114e-08 1 1 4.37114e-08 110.408 244.055)" fill="#171717"/>
          <rect width="4.14735" height="4.27197" transform="matrix(-4.37114e-08 1 1 4.37114e-08 110.408 264.686)" fill="#171717"/>
          <rect width="4.14735" height="4.27197" transform="matrix(-4.37114e-08 1 1 4.37114e-08 128.811 79)" fill="#171717"/>
          <rect width="4.14735" height="4.27197" transform="matrix(-4.37114e-08 1 1 4.37114e-08 128.811 99.6309)" fill="#171717"/>
          <rect width="4.14735" height="4.27197" transform="matrix(-4.37114e-08 1 1 4.37114e-08 128.811 120.264)" fill="#171717"/>
          <rect width="4.14735" height="4.27197" transform="matrix(-4.37114e-08 1 1 4.37114e-08 128.811 140.895)" fill="#171717"/>
          <rect width="4.14735" height="4.27197" transform="matrix(-4.37114e-08 1 1 4.37114e-08 128.811 161.527)" fill="#171717"/>
          <rect width="4.14735" height="4.27197" transform="matrix(-4.37114e-08 1 1 4.37114e-08 128.811 182.158)" fill="#171717"/>
          <rect width="4.14735" height="4.27197" transform="matrix(-4.37114e-08 1 1 4.37114e-08 128.811 202.791)" fill="#171717"/>
          <rect width="4.14735" height="4.27197" transform="matrix(-4.37114e-08 1 1 4.37114e-08 128.811 223.422)" fill="#171717"/>
          <rect width="4.14735" height="4.27197" transform="matrix(-4.37114e-08 1 1 4.37114e-08 128.811 244.055)" fill="#171717"/>
          <rect width="4.14735" height="4.27197" transform="matrix(-4.37114e-08 1 1 4.37114e-08 128.811 264.686)" fill="#171717"/>
          <rect width="4.14735" height="4.27197" transform="matrix(-4.37114e-08 1 1 4.37114e-08 147.211 79)" fill="#171717"/>
          <rect width="4.14735" height="4.27197" transform="matrix(-4.37114e-08 1 1 4.37114e-08 147.211 99.6309)" fill="#171717"/>
          <rect width="4.14735" height="4.27197" transform="matrix(-4.37114e-08 1 1 4.37114e-08 147.211 120.264)" fill="#171717"/>
          <rect width="4.14735" height="4.27197" transform="matrix(-4.37114e-08 1 1 4.37114e-08 147.211 140.895)" fill="#171717"/>
          <rect width="4.14735" height="4.27197" transform="matrix(-4.37114e-08 1 1 4.37114e-08 147.211 161.527)" fill="#171717"/>
          <rect width="4.14735" height="4.27197" transform="matrix(-4.37114e-08 1 1 4.37114e-08 147.211 182.158)" fill="#171717"/>
          <rect width="4.14735" height="4.27197" transform="matrix(-4.37114e-08 1 1 4.37114e-08 147.211 202.791)" fill="#171717"/>
          <rect width="4.14735" height="4.27197" transform="matrix(-4.37114e-08 1 1 4.37114e-08 147.211 223.422)" fill="#171717"/>
          <rect width="4.14735" height="4.27197" transform="matrix(-4.37114e-08 1 1 4.37114e-08 147.211 244.055)" fill="#171717"/>
          <rect width="4.14735" height="4.27197" transform="matrix(-4.37114e-08 1 1 4.37114e-08 147.211 264.686)" fill="#171717"/>
          <rect width="4.14735" height="4.27197" transform="matrix(-4.37114e-08 1 1 4.37114e-08 165.613 79)" fill="#171717"/>
          <rect width="4.14735" height="4.27197" transform="matrix(-4.37114e-08 1 1 4.37114e-08 165.613 99.6309)" fill="#171717"/>
          <rect width="4.14735" height="4.27197" transform="matrix(-4.37114e-08 1 1 4.37114e-08 165.613 120.264)" fill="#171717"/>
          <rect width="4.14735" height="4.27197" transform="matrix(-4.37114e-08 1 1 4.37114e-08 165.613 140.895)" fill="#171717"/>
          <rect width="4.14735" height="4.27197" transform="matrix(-4.37114e-08 1 1 4.37114e-08 165.613 161.527)" fill="#171717"/>
          <rect width="4.14735" height="4.27197" transform="matrix(-4.37114e-08 1 1 4.37114e-08 165.613 182.158)" fill="#171717"/>
          <rect width="4.14735" height="4.27197" transform="matrix(-4.37114e-08 1 1 4.37114e-08 165.613 202.791)" fill="#171717"/>
          <rect width="4.14735" height="4.27197" transform="matrix(-4.37114e-08 1 1 4.37114e-08 165.613 223.422)" fill="#171717"/>
          <rect width="4.14735" height="4.27197" transform="matrix(-4.37114e-08 1 1 4.37114e-08 165.613 244.055)" fill="#171717"/>
          <rect width="4.14735" height="4.27197" transform="matrix(-4.37114e-08 1 1 4.37114e-08 165.613 264.686)" fill="#171717"/>
          <rect x="48" width="213" height="213" fill="#F9CC14"/>
        </svg>