<svg width="432" height="326" viewBox="0 0 432 326" fill="none" xmlns="http://www.w3.org/2000/svg">
<rect x="72.0996" y="112.074" width="359.901" height="162.587" fill="#01A3DE"/>
<rect width="4.23844" height="4.36579" transform="matrix(-4.37114e-08 1 1 4.37114e-08 0 17.7422)" fill="#171717"/>
<rect width="4.23844" height="4.36579" transform="matrix(-4.37114e-08 1 1 4.37114e-08 0 38.8281)" fill="#171717"/>
<rect width="4.23844" height="4.36579" transform="matrix(-4.37114e-08 1 1 4.37114e-08 0 59.9121)" fill="#171717"/>
<rect width="4.23844" height="4.36579" transform="matrix(-4.37114e-08 1 1 4.37114e-08 0 80.998)" fill="#171717"/>
<rect width="4.23844" height="4.36579" transform="matrix(-4.37114e-08 1 1 4.37114e-08 0 102.082)" fill="#171717"/>
<rect width="4.23844" height="4.36579" transform="matrix(-4.37114e-08 1 1 4.37114e-08 0 123.168)" fill="#171717"/>
<rect width="4.23844" height="4.36579" transform="matrix(-4.37114e-08 1 1 4.37114e-08 0 144.252)" fill="#171717"/>
<rect width="4.23844" height="4.36579" transform="matrix(-4.37114e-08 1 1 4.37114e-08 0 165.336)" fill="#171717"/>
<rect width="4.23844" height="4.36579" transform="matrix(-4.37114e-08 1 1 4.37114e-08 0 186.422)" fill="#171717"/>
<rect width="4.23844" height="4.36579" transform="matrix(-4.37114e-08 1 1 4.37114e-08 0 207.506)" fill="#171717"/>
<rect width="4.23844" height="4.36579" transform="matrix(-4.37114e-08 1 1 4.37114e-08 18.8047 17.7422)" fill="#171717"/>
<rect width="4.23844" height="4.36579" transform="matrix(-4.37114e-08 1 1 4.37114e-08 18.8047 38.8281)" fill="#171717"/>
<rect width="4.23844" height="4.36579" transform="matrix(-4.37114e-08 1 1 4.37114e-08 18.8047 59.9121)" fill="#171717"/>
<rect width="4.23844" height="4.36579" transform="matrix(-4.37114e-08 1 1 4.37114e-08 18.8047 80.998)" fill="#171717"/>
<rect width="4.23844" height="4.36579" transform="matrix(-4.37114e-08 1 1 4.37114e-08 18.8047 102.082)" fill="#171717"/>
<rect width="4.23844" height="4.36579" transform="matrix(-4.37114e-08 1 1 4.37114e-08 18.8047 123.168)" fill="#171717"/>
<rect width="4.23844" height="4.36579" transform="matrix(-4.37114e-08 1 1 4.37114e-08 18.8047 144.252)" fill="#171717"/>
<rect width="4.23844" height="4.36579" transform="matrix(-4.37114e-08 1 1 4.37114e-08 18.8047 165.338)" fill="#171717"/>
<rect width="4.23844" height="4.36579" transform="matrix(-4.37114e-08 1 1 4.37114e-08 18.8047 186.422)" fill="#171717"/>
<rect width="4.23844" height="4.36579" transform="matrix(-4.37114e-08 1 1 4.37114e-08 18.8047 207.506)" fill="#171717"/>
<rect width="4.23844" height="4.36579" transform="matrix(-4.37114e-08 1 1 4.37114e-08 37.6133 17.7422)" fill="#171717"/>
<rect width="4.23844" height="4.36579" transform="matrix(-4.37114e-08 1 1 4.37114e-08 37.6133 38.8281)" fill="#171717"/>
<rect width="4.23844" height="4.36579" transform="matrix(-4.37114e-08 1 1 4.37114e-08 37.6133 59.9121)" fill="#171717"/>
<rect width="4.23844" height="4.36579" transform="matrix(-4.37114e-08 1 1 4.37114e-08 37.6133 80.998)" fill="#171717"/>
<rect width="4.23844" height="4.36579" transform="matrix(-4.37114e-08 1 1 4.37114e-08 37.6133 102.082)" fill="#171717"/>
<rect width="4.23844" height="4.36579" transform="matrix(-4.37114e-08 1 1 4.37114e-08 37.6133 123.168)" fill="#171717"/>
<rect width="4.23844" height="4.36579" transform="matrix(-4.37114e-08 1 1 4.37114e-08 37.6133 144.252)" fill="#171717"/>
<rect width="4.23844" height="4.36579" transform="matrix(-4.37114e-08 1 1 4.37114e-08 37.6133 165.338)" fill="#171717"/>
<rect width="4.23844" height="4.36579" transform="matrix(-4.37114e-08 1 1 4.37114e-08 37.6133 186.422)" fill="#171717"/>
<rect width="4.23844" height="4.36579" transform="matrix(-4.37114e-08 1 1 4.37114e-08 37.6133 207.506)" fill="#171717"/>
<rect width="4.23844" height="4.36579" transform="matrix(-4.37114e-08 1 1 4.37114e-08 56.418 17.7422)" fill="#171717"/>
<rect width="4.23844" height="4.36579" transform="matrix(-4.37114e-08 1 1 4.37114e-08 56.418 38.8281)" fill="#171717"/>
<rect width="4.23844" height="4.36579" transform="matrix(-4.37114e-08 1 1 4.37114e-08 56.418 59.9121)" fill="#171717"/>
<rect width="4.23844" height="4.36579" transform="matrix(-4.37114e-08 1 1 4.37114e-08 56.418 80.998)" fill="#171717"/>
<rect width="4.23844" height="4.36579" transform="matrix(-4.37114e-08 1 1 4.37114e-08 56.418 102.082)" fill="#171717"/>
<rect width="4.23844" height="4.36579" transform="matrix(-4.37114e-08 1 1 4.37114e-08 56.418 123.168)" fill="#171717"/>
<rect width="4.23844" height="4.36579" transform="matrix(-4.37114e-08 1 1 4.37114e-08 56.418 144.252)" fill="#171717"/>
<rect width="4.23844" height="4.36579" transform="matrix(-4.37114e-08 1 1 4.37114e-08 56.418 165.338)" fill="#171717"/>
<rect width="4.23844" height="4.36579" transform="matrix(-4.37114e-08 1 1 4.37114e-08 56.418 186.422)" fill="#171717"/>
<rect width="4.23844" height="4.36579" transform="matrix(-4.37114e-08 1 1 4.37114e-08 56.418 207.506)" fill="#171717"/>
<rect width="4.23844" height="4.36579" transform="matrix(-4.37114e-08 1 1 4.37114e-08 75.2227 17.7422)" fill="#171717"/>
<rect width="4.23844" height="4.36579" transform="matrix(-4.37114e-08 1 1 4.37114e-08 75.2227 38.8281)" fill="#171717"/>
<rect width="4.23844" height="4.36579" transform="matrix(-4.37114e-08 1 1 4.37114e-08 75.2227 59.9121)" fill="#171717"/>
<rect width="4.23844" height="4.36579" transform="matrix(-4.37114e-08 1 1 4.37114e-08 75.2227 80.998)" fill="#171717"/>
<rect width="4.23844" height="4.36579" transform="matrix(-4.37114e-08 1 1 4.37114e-08 75.2227 102.082)" fill="#171717"/>
<rect width="4.23844" height="4.36579" transform="matrix(-4.37114e-08 1 1 4.37114e-08 75.2227 123.168)" fill="#171717"/>
<rect width="4.23844" height="4.36579" transform="matrix(-4.37114e-08 1 1 4.37114e-08 75.2227 144.252)" fill="#171717"/>
<rect width="4.23844" height="4.36579" transform="matrix(-4.37114e-08 1 1 4.37114e-08 75.2227 165.338)" fill="#171717"/>
<rect width="4.23844" height="4.36579" transform="matrix(-4.37114e-08 1 1 4.37114e-08 75.2227 186.422)" fill="#171717"/>
<rect width="4.23844" height="4.36579" transform="matrix(-4.37114e-08 1 1 4.37114e-08 75.2227 207.506)" fill="#171717"/>
<rect width="4.23844" height="4.36579" transform="matrix(-4.37114e-08 1 1 4.37114e-08 94.0273 17.7422)" fill="#171717"/>
<rect width="4.23844" height="4.36579" transform="matrix(-4.37114e-08 1 1 4.37114e-08 94.0273 38.8281)" fill="#171717"/>
<rect width="4.23844" height="4.36579" transform="matrix(-4.37114e-08 1 1 4.37114e-08 94.0273 59.9121)" fill="#171717"/>
<rect width="4.23844" height="4.36579" transform="matrix(-4.37114e-08 1 1 4.37114e-08 94.0273 80.998)" fill="#171717"/>
<rect width="4.23844" height="4.36579" transform="matrix(-4.37114e-08 1 1 4.37114e-08 94.0273 102.082)" fill="#171717"/>
<rect width="4.23844" height="4.36579" transform="matrix(-4.37114e-08 1 1 4.37114e-08 94.0273 123.166)" fill="#171717"/>
<rect width="4.23844" height="4.36579" transform="matrix(-4.37114e-08 1 1 4.37114e-08 94.0273 144.252)" fill="#171717"/>
<rect width="4.23844" height="4.36579" transform="matrix(-4.37114e-08 1 1 4.37114e-08 94.0273 165.336)" fill="#171717"/>
<rect width="4.23844" height="4.36579" transform="matrix(-4.37114e-08 1 1 4.37114e-08 94.0273 186.422)" fill="#171717"/>
<rect width="4.23844" height="4.36579" transform="matrix(-4.37114e-08 1 1 4.37114e-08 94.0273 207.506)" fill="#171717"/>
<rect width="4.23844" height="4.36579" transform="matrix(-4.37114e-08 1 1 4.37114e-08 112.832 17.7422)" fill="#171717"/>
<rect width="4.23844" height="4.36579" transform="matrix(-4.37114e-08 1 1 4.37114e-08 112.832 38.8281)" fill="#171717"/>
<rect width="4.23844" height="4.36579" transform="matrix(-4.37114e-08 1 1 4.37114e-08 112.832 59.9121)" fill="#171717"/>
<rect width="4.23844" height="4.36579" transform="matrix(-4.37114e-08 1 1 4.37114e-08 112.832 80.998)" fill="#171717"/>
<rect width="4.23844" height="4.36579" transform="matrix(-4.37114e-08 1 1 4.37114e-08 112.832 102.082)" fill="#171717"/>
<rect width="4.23844" height="4.36579" transform="matrix(-4.37114e-08 1 1 4.37114e-08 112.832 123.166)" fill="#171717"/>
<rect width="4.23844" height="4.36579" transform="matrix(-4.37114e-08 1 1 4.37114e-08 112.832 144.252)" fill="#171717"/>
<rect width="4.23844" height="4.36579" transform="matrix(-4.37114e-08 1 1 4.37114e-08 112.832 165.336)" fill="#171717"/>
<rect width="4.23844" height="4.36579" transform="matrix(-4.37114e-08 1 1 4.37114e-08 112.832 186.422)" fill="#171717"/>
<rect width="4.23844" height="4.36579" transform="matrix(-4.37114e-08 1 1 4.37114e-08 112.832 207.506)" fill="#171717"/>
<rect width="4.23844" height="4.36579" transform="matrix(-4.37114e-08 1 1 4.37114e-08 131.641 17.7422)" fill="#171717"/>
<rect width="4.23844" height="4.36579" transform="matrix(-4.37114e-08 1 1 4.37114e-08 131.641 38.8281)" fill="#171717"/>
<rect width="4.23844" height="4.36579" transform="matrix(-4.37114e-08 1 1 4.37114e-08 131.641 59.9121)" fill="#171717"/>
<rect width="4.23844" height="4.36579" transform="matrix(-4.37114e-08 1 1 4.37114e-08 131.641 80.998)" fill="#171717"/>
<rect width="4.23844" height="4.36579" transform="matrix(-4.37114e-08 1 1 4.37114e-08 131.641 102.082)" fill="#171717"/>
<rect width="4.23844" height="4.36579" transform="matrix(-4.37114e-08 1 1 4.37114e-08 131.641 123.166)" fill="#171717"/>
<rect width="4.23844" height="4.36579" transform="matrix(-4.37114e-08 1 1 4.37114e-08 131.641 144.252)" fill="#171717"/>
<rect width="4.23844" height="4.36579" transform="matrix(-4.37114e-08 1 1 4.37114e-08 131.641 165.336)" fill="#171717"/>
<rect width="4.23844" height="4.36579" transform="matrix(-4.37114e-08 1 1 4.37114e-08 131.641 186.422)" fill="#171717"/>
<rect width="4.23844" height="4.36579" transform="matrix(-4.37114e-08 1 1 4.37114e-08 131.641 207.506)" fill="#171717"/>
<rect width="4.23844" height="4.36579" transform="matrix(-4.37114e-08 1 1 4.37114e-08 150.445 17.7422)" fill="#171717"/>
<rect width="4.23844" height="4.36579" transform="matrix(-4.37114e-08 1 1 4.37114e-08 150.445 38.8281)" fill="#171717"/>
<rect width="4.23844" height="4.36579" transform="matrix(-4.37114e-08 1 1 4.37114e-08 150.445 59.9121)" fill="#171717"/>
<rect width="4.23844" height="4.36579" transform="matrix(-4.37114e-08 1 1 4.37114e-08 150.445 80.998)" fill="#171717"/>
<rect width="4.23844" height="4.36579" transform="matrix(-4.37114e-08 1 1 4.37114e-08 150.445 102.082)" fill="#171717"/>
<rect width="4.23844" height="4.36579" transform="matrix(-4.37114e-08 1 1 4.37114e-08 150.445 123.166)" fill="#171717"/>
<rect width="4.23844" height="4.36579" transform="matrix(-4.37114e-08 1 1 4.37114e-08 150.445 144.252)" fill="#171717"/>
<rect width="4.23844" height="4.36579" transform="matrix(-4.37114e-08 1 1 4.37114e-08 150.445 165.336)" fill="#171717"/>
<rect width="4.23844" height="4.36579" transform="matrix(-4.37114e-08 1 1 4.37114e-08 150.445 186.422)" fill="#171717"/>
<rect width="4.23844" height="4.36579" transform="matrix(-4.37114e-08 1 1 4.37114e-08 150.445 207.506)" fill="#171717"/>
<rect width="4.23844" height="4.36579" transform="matrix(-4.37114e-08 1 1 4.37114e-08 169.25 17.7422)" fill="#171717"/>
<rect width="4.23844" height="4.36579" transform="matrix(-4.37114e-08 1 1 4.37114e-08 169.25 38.8281)" fill="#171717"/>
<rect width="4.23844" height="4.36579" transform="matrix(-4.37114e-08 1 1 4.37114e-08 169.25 59.9121)" fill="#171717"/>
<rect width="4.23844" height="4.36579" transform="matrix(-4.37114e-08 1 1 4.37114e-08 169.25 80.998)" fill="#171717"/>
<rect width="4.23844" height="4.36579" transform="matrix(-4.37114e-08 1 1 4.37114e-08 169.25 102.082)" fill="#171717"/>
<rect width="4.23844" height="4.36579" transform="matrix(-4.37114e-08 1 1 4.37114e-08 169.25 123.166)" fill="#171717"/>
<rect width="4.23844" height="4.36579" transform="matrix(-4.37114e-08 1 1 4.37114e-08 169.25 144.252)" fill="#171717"/>
<rect width="4.23844" height="4.36579" transform="matrix(-4.37114e-08 1 1 4.37114e-08 169.25 165.336)" fill="#171717"/>
<rect width="4.23844" height="4.36579" transform="matrix(-4.37114e-08 1 1 4.37114e-08 169.25 186.422)" fill="#171717"/>
<rect width="4.23844" height="4.36579" transform="matrix(-4.37114e-08 1 1 4.37114e-08 169.25 207.506)" fill="#171717"/>
<circle cx="269.413" cy="162.587" r="161.008" stroke="black" stroke-width="3.15702"/>
</svg>
