<svg width="20" height="20" viewBox="0 0 20 20" fill="none" xmlns="http://www.w3.org/2000/svg">
<path d="M2.37167 5.30167C2.39667 5.05583 2.3025 4.81333 2.11917 4.64833L0.2525 2.39833V2.0625H6.05L10.5317 11.8917L14.4717 2.0625H20V2.39833L18.4025 3.92917C18.265 4.03417 18.1967 4.20667 18.225 4.3775V15.6275C18.1967 15.7975 18.265 15.9692 18.4025 16.075L19.9608 17.6058V17.9417H12.1192V17.6058L13.7333 16.0375C13.8917 15.8792 13.8917 15.8325 13.8917 15.5892V6.49667L9.4 17.9033H8.79417L3.565 6.49667V14.1417C3.52167 14.4633 3.62833 14.7867 3.85417 15.0192L5.95417 17.5692V17.9042H0V17.5683L2.1 15.0183C2.325 14.7867 2.425 14.46 2.37167 14.1417V5.30167Z" fill="white"/>
</svg>
