<svg width="208" height="156" viewBox="0 0 208 156" fill="none" xmlns="http://www.w3.org/2000/svg">
<rect y="-20" width="176" height="176" fill="#EFAE57"/>
<path d="M80 -32H83.5556V-28.4444H80V-32Z" fill="#FAFAFA"/>
<path d="M97.7778 -32H101.333V-28.4444H97.7778V-32Z" fill="#FAFAFA"/>
<path d="M115.556 -32H119.111V-28.4444H115.556V-32Z" fill="#FAFAFA"/>
<path d="M133.333 -32H136.889V-28.4444H133.333V-32Z" fill="#FAFAFA"/>
<path d="M151.111 -32H154.667V-28.4444H151.111V-32Z" fill="#FAFAFA"/>
<path d="M168.889 -32H172.444V-28.4444H168.889V-32Z" fill="#FAFAFA"/>
<path d="M186.667 -32H190.222V-28.4444H186.667V-32Z" fill="#FAFAFA"/>
<path d="M204.444 -32H208V-28.4444H204.444V-32Z" fill="#FAFAFA"/>
<path d="M80 -14.2222H83.5556V-10.6667H80V-14.2222Z" fill="#FAFAFA"/>
<path d="M97.7778 -14.2222H101.333V-10.6667H97.7778V-14.2222Z" fill="#FAFAFA"/>
<path d="M115.556 -14.2222H119.111V-10.6667H115.556V-14.2222Z" fill="#FAFAFA"/>
<path d="M133.333 -14.2222H136.889V-10.6667H133.333V-14.2222Z" fill="#FAFAFA"/>
<path d="M151.111 -14.2222H154.667V-10.6667H151.111V-14.2222Z" fill="#FAFAFA"/>
<path d="M168.889 -14.2222H172.444V-10.6667H168.889V-14.2222Z" fill="#FAFAFA"/>
<path d="M186.667 -14.2222H190.222V-10.6667H186.667V-14.2222Z" fill="#FAFAFA"/>
<path d="M204.444 -14.2222H208V-10.6667H204.444V-14.2222Z" fill="#FAFAFA"/>
<path d="M80 3.55556H83.5556V7.11111H80V3.55556Z" fill="#FAFAFA"/>
<path d="M97.7778 3.55556H101.333V7.11111H97.7778V3.55556Z" fill="#FAFAFA"/>
<path d="M115.556 3.55556H119.111V7.11111H115.556V3.55556Z" fill="#FAFAFA"/>
<path d="M133.333 3.55556H136.889V7.11111H133.333V3.55556Z" fill="#FAFAFA"/>
<path d="M151.111 3.55556H154.667V7.11111H151.111V3.55556Z" fill="#FAFAFA"/>
<path d="M168.889 3.55556H172.444V7.11111H168.889V3.55556Z" fill="#FAFAFA"/>
<path d="M186.667 3.55556H190.222V7.11111H186.667V3.55556Z" fill="#FAFAFA"/>
<path d="M204.444 3.55556H208V7.11111H204.444V3.55556Z" fill="#FAFAFA"/>
<path d="M80 21.3333H83.5556V24.8889H80V21.3333Z" fill="#FAFAFA"/>
<path d="M97.7778 21.3333H101.333V24.8889H97.7778V21.3333Z" fill="#FAFAFA"/>
<path d="M115.556 21.3333H119.111V24.8889H115.556V21.3333Z" fill="#FAFAFA"/>
<path d="M133.333 21.3333H136.889V24.8889H133.333V21.3333Z" fill="#FAFAFA"/>
<path d="M151.111 21.3333H154.667V24.8889H151.111V21.3333Z" fill="#FAFAFA"/>
<path d="M168.889 21.3333H172.444V24.8889H168.889V21.3333Z" fill="#FAFAFA"/>
<path d="M186.667 21.3333H190.222V24.8889H186.667V21.3333Z" fill="#FAFAFA"/>
<path d="M204.444 21.3333H208V24.8889H204.444V21.3333Z" fill="#FAFAFA"/>
<path d="M80 39.1111H83.5556V42.6667H80V39.1111Z" fill="#FAFAFA"/>
<path d="M97.7778 39.1111H101.333V42.6667H97.7778V39.1111Z" fill="#FAFAFA"/>
<path d="M115.556 39.1111H119.111V42.6667H115.556V39.1111Z" fill="#FAFAFA"/>
<path d="M133.333 39.1111H136.889V42.6667H133.333V39.1111Z" fill="#FAFAFA"/>
<path d="M151.111 39.1111H154.667V42.6667H151.111V39.1111Z" fill="#FAFAFA"/>
<path d="M168.889 39.1111H172.444V42.6667H168.889V39.1111Z" fill="#FAFAFA"/>
<path d="M186.667 39.1111H190.222V42.6667H186.667V39.1111Z" fill="#FAFAFA"/>
<path d="M204.444 39.1111H208V42.6667H204.444V39.1111Z" fill="#FAFAFA"/>
<path d="M80 56.8889H83.5556V60.4444H80V56.8889Z" fill="#FAFAFA"/>
<path d="M97.7778 56.8889H101.333V60.4444H97.7778V56.8889Z" fill="#FAFAFA"/>
<path d="M115.556 56.8889H119.111V60.4444H115.556V56.8889Z" fill="#FAFAFA"/>
<path d="M133.333 56.8889H136.889V60.4444H133.333V56.8889Z" fill="#FAFAFA"/>
<path d="M151.111 56.8889H154.667V60.4444H151.111V56.8889Z" fill="#FAFAFA"/>
<path d="M168.889 56.8889H172.444V60.4444H168.889V56.8889Z" fill="#FAFAFA"/>
<path d="M186.667 56.8889H190.222V60.4444H186.667V56.8889Z" fill="#FAFAFA"/>
<path d="M204.444 56.8889H208V60.4444H204.444V56.8889Z" fill="#FAFAFA"/>
<path d="M80 74.6667H83.5556V78.2222H80V74.6667Z" fill="#FAFAFA"/>
<path d="M97.7778 74.6667H101.333V78.2222H97.7778V74.6667Z" fill="#FAFAFA"/>
<path d="M115.556 74.6667H119.111V78.2222H115.556V74.6667Z" fill="#FAFAFA"/>
<path d="M133.333 74.6667H136.889V78.2222H133.333V74.6667Z" fill="#FAFAFA"/>
<path d="M151.111 74.6667H154.667V78.2222H151.111V74.6667Z" fill="#FAFAFA"/>
<path d="M168.889 74.6667H172.444V78.2222H168.889V74.6667Z" fill="#FAFAFA"/>
<path d="M186.667 74.6667H190.222V78.2222H186.667V74.6667Z" fill="#FAFAFA"/>
<path d="M204.444 74.6667H208V78.2222H204.444V74.6667Z" fill="#FAFAFA"/>
<path d="M80 92.4444H83.5556V96H80V92.4444Z" fill="#FAFAFA"/>
<path d="M97.7778 92.4444H101.333V96H97.7778V92.4444Z" fill="#FAFAFA"/>
<path d="M115.556 92.4444H119.111V96H115.556V92.4444Z" fill="#FAFAFA"/>
<path d="M133.333 92.4444H136.889V96H133.333V92.4444Z" fill="#FAFAFA"/>
<path d="M151.111 92.4444H154.667V96H151.111V92.4444Z" fill="#FAFAFA"/>
<path d="M168.889 92.4444H172.444V96H168.889V92.4444Z" fill="#FAFAFA"/>
<path d="M186.667 92.4444H190.222V96H186.667V92.4444Z" fill="#FAFAFA"/>
<path d="M204.444 92.4444H208V96H204.444V92.4444Z" fill="#FAFAFA"/>
</svg>
