<svg width="32" height="33" viewBox="0 0 32 33" fill="none" xmlns="http://www.w3.org/2000/svg">
<path d="M1.77228 24.6276L12.9189 31.1053C13.1552 31.2431 13.5358 31.2431 13.772 31.1075L30.709 21.3277C30.9453 21.1921 30.9453 20.9711 30.709 20.8333L19.5623 14.3556C19.3283 14.22 18.9477 14.22 18.7114 14.3556L1.77447 24.1333C1.53823 24.2711 1.53604 24.492 1.77228 24.6276Z" fill="#AABAFD"/>
<path d="M14.9443 25.2849C14.8111 25.3618 14.8119 25.4871 14.9443 25.564L17.692 27.1608C17.8243 27.2377 18.0406 27.2386 18.1738 27.1617L23.5884 24.0356C23.7216 23.9586 23.7208 23.8334 23.5885 23.7565L20.8408 22.1597C20.7085 22.0828 20.4922 22.0819 20.359 22.1588L14.9443 25.2849Z" fill="#2E4277"/>
<path d="M1.59717 24.3841L1.59936 25.0362C1.59936 25.1237 1.65841 25.2133 1.77435 25.2811L12.921 31.7589C13.1572 31.8945 13.5378 31.8945 13.7741 31.7589L30.7111 21.9812C30.8292 21.9134 30.8882 21.8238 30.8882 21.7319L30.8861 21.082C30.8861 21.1717 30.827 21.2614 30.7089 21.3292L13.7719 31.109C13.5357 31.2447 13.1551 31.2447 12.9188 31.1069L1.77216 24.6291C1.65404 24.5613 1.59717 24.4738 1.59717 24.3841Z" fill="#798FFE"/>
<path d="M18.6784 1.46096C18.9144 1.3247 19.1064 1.43408 19.1072 1.70529L19.1374 13.6212C19.1381 13.8908 18.9474 14.2227 18.7114 14.359L2.01851 23.9957C1.78249 24.132 1.59054 24.021 1.58977 23.7514L1.55957 11.8355C1.5588 11.5643 1.74951 11.234 1.98553 11.0977L18.6784 1.46096Z" fill="#1B2A4F"/>
<path d="M1.11133 11.5739L1.14195 23.4894C1.14195 23.6228 1.19008 23.7191 1.26664 23.7628L1.71434 24.0232C1.63777 23.9794 1.58966 23.8832 1.58966 23.7497L1.55903 11.8343C1.55903 11.563 1.74934 11.2328 1.98558 11.095L18.6786 1.4593C18.7967 1.3915 18.9039 1.38494 18.9826 1.42868L18.5349 1.16832C18.4583 1.12457 18.349 1.13112 18.2309 1.19893L1.53788 10.8368C1.30163 10.9724 1.11133 11.3027 1.11133 11.5739Z" fill="#384E85"/>
<path d="M2.16211 11.6891L2.19116 23.2006L18.5349 13.7654L18.5059 2.25391L2.16211 11.6891Z" fill="#384E85"/>
<path d="M2.16211 11.6891L2.16699 13.6199L18.5107 4.18472L18.5059 2.25391L2.16211 11.6891Z" fill="#AABAFD"/>
<path d="M15.8109 4.53979C15.9685 4.44882 16.0966 4.5187 16.0971 4.69975C16.0976 4.88079 15.9703 5.10124 15.8128 5.19221C15.6579 5.28162 15.5298 5.2086 15.5293 5.02756C15.5288 4.84651 15.6561 4.62919 15.8109 4.53979Z" fill="white"/>
<path d="M16.7208 4.01143C16.8757 3.92203 17.0038 3.9919 17.0043 4.17295C17.0048 4.354 16.8776 4.57444 16.7227 4.66384C16.5651 4.75481 16.437 4.6818 16.4365 4.50076C16.436 4.31971 16.5633 4.1024 16.7208 4.01143Z" fill="white"/>
<path d="M17.6286 3.48901C17.7861 3.39804 17.9142 3.46792 17.9147 3.64897C17.9152 3.83001 17.788 4.05046 17.6304 4.14143C17.4728 4.2324 17.3448 4.15939 17.3442 3.97834C17.3437 3.79729 17.471 3.57998 17.6286 3.48901Z" fill="white"/>
<path d="M5.19044 23.8286L4.12056 24.4503L3.65967 24.1843L4.72955 23.5625L5.19044 23.8286Z" fill="#384E85"/>
<path d="M16.7022 17.1372L15.6308 17.7598L15.1699 17.4937L16.2413 16.8711L16.7022 17.1372Z" fill="#384E85"/>
<path d="M19.5801 15.4653L18.5087 16.0879L18.0479 15.8218L19.1192 15.1992L19.5801 15.4653Z" fill="#384E85"/>
<path d="M17.6599 19.3578L16.59 19.9796L15.6387 19.4303L16.7086 18.8086L17.6599 19.3578Z" fill="#384E85"/>
<path d="M22.9372 19.0696L21.8659 19.6922L20.9131 19.1421L21.9844 18.5195L22.9372 19.0696Z" fill="#384E85"/>
<path d="M24.377 18.2348L23.3056 18.8574L21.1533 17.6148L22.2247 16.9922L24.377 18.2348Z" fill="#384E85"/>
<path d="M20.7797 16.1595L18.8044 17.3074L17.8516 16.7574L19.8269 15.6094L20.7797 16.1595Z" fill="#384E85"/>
<path d="M18.4372 17.5188L17.3659 18.1414L16.4131 17.5914L17.4844 16.9688L18.4372 17.5188Z" fill="#384E85"/>
<path d="M21.9775 16.85L19.4665 18.3093L18.5151 17.7601L21.0262 16.3008L21.9775 16.85Z" fill="#384E85"/>
<path d="M19.0993 18.5219L18.028 19.1445L17.0767 18.5953L18.148 17.9727L19.0993 18.5219Z" fill="#384E85"/>
<path d="M20.299 19.2181L19.2277 19.8407L18.2749 19.2906L19.3462 18.668L20.299 19.2181Z" fill="#384E85"/>
<path d="M16.9978 18.3548L15.9264 18.9774L14.9736 18.4273L16.045 17.8047L16.9978 18.3548Z" fill="#384E85"/>
<path d="M15.2627 17.9731L14.1928 18.5949L13.7319 18.3288L14.8018 17.707L15.2627 17.9731Z" fill="#384E85"/>
<path d="M13.8242 18.8091L12.7529 19.4317L12.292 19.1656L13.3633 18.543L13.8242 18.8091Z" fill="#384E85"/>
<path d="M14.5432 22.5579L13.4718 23.1805L12.519 22.6304L13.5904 22.0078L14.5432 22.5579Z" fill="#384E85"/>
<path d="M12.3848 19.6489L11.3149 20.2707L10.854 20.0046L11.9239 19.3828L12.3848 19.6489Z" fill="#384E85"/>
<path d="M14.1199 20.0306L13.05 20.6523L12.0972 20.1022L13.1671 19.4805L14.1199 20.0306Z" fill="#384E85"/>
<path d="M10.9463 20.4848L9.87495 21.1074L9.41406 20.8414L10.4854 20.2188L10.9463 20.4848Z" fill="#384E85"/>
<path d="M12.6819 20.8665L11.6105 21.4891L10.6577 20.939L11.7291 20.3164L12.6819 20.8665Z" fill="#384E85"/>
<path d="M14.7824 21.0336L13.7125 21.6554L12.7612 21.1061L13.8311 20.4844L14.7824 21.0336Z" fill="#384E85"/>
<path d="M9.5083 21.3208L8.43696 21.9434L7.97607 21.6773L9.04742 21.0547L9.5083 21.3208Z" fill="#384E85"/>
<path d="M11.2434 21.7024L10.172 22.325L9.21924 21.7749L10.2906 21.1523L11.2434 21.7024Z" fill="#384E85"/>
<path d="M15.9817 21.7259L14.9118 22.3476L13.959 21.7975L15.0289 21.1758L15.9817 21.7259Z" fill="#384E85"/>
<path d="M13.3439 21.8696L12.2726 22.4921L11.3213 21.9429L12.3926 21.3203L13.3439 21.8696Z" fill="#384E85"/>
<path d="M8.06836 22.1567L6.99702 22.7793L6.53613 22.5132L7.60748 21.8906L8.06836 22.1567Z" fill="#384E85"/>
<path d="M9.80393 22.5384L8.73258 23.161L7.77979 22.6109L8.85114 21.9883L9.80393 22.5384Z" fill="#384E85"/>
<path d="M11.906 22.7055L10.8346 23.3281L9.8833 22.7788L10.9546 22.1562L11.906 22.7055Z" fill="#384E85"/>
<path d="M8.36545 23.3743L7.2941 23.9969L6.34131 23.4468L7.41265 22.8242L8.36545 23.3743Z" fill="#384E85"/>
<path d="M13.1052 23.3978L12.0339 24.0204L11.0811 23.4703L12.1524 22.8477L13.1052 23.3978Z" fill="#384E85"/>
<path d="M10.466 23.5414L9.39467 24.164L8.44336 23.6148L9.51471 22.9922L10.466 23.5414Z" fill="#384E85"/>
<path d="M11.6657 24.2337L10.5944 24.8563L9.6416 24.3062L10.713 23.6836L11.6657 24.2337Z" fill="#384E85"/>
<path d="M17.2428 22.3821L11.7936 25.5489L10.8408 24.9988L16.29 21.832L17.2428 22.3821Z" fill="#384E85"/>
<path d="M10.2273 25.0696L9.15592 25.6922L8.20312 25.1421L9.27447 24.5195L10.2273 25.0696Z" fill="#384E85"/>
<path d="M9.02781 24.3774L6.51821 25.8358L5.56689 25.2865L8.0765 23.8281L9.02781 24.3774Z" fill="#384E85"/>
<path d="M8.78732 25.9056L7.71744 26.5273L6.76465 25.9772L7.83453 25.3555L8.78732 25.9056Z" fill="#384E85"/>
<path d="M11.4267 25.761L8.91715 27.2195L7.96436 26.6694L10.474 25.2109L11.4267 25.761Z" fill="#384E85"/>
<path d="M6.63038 22.9927L5.55903 23.6153L5.09814 23.3492L6.1695 22.7266L6.63038 22.9927Z" fill="#384E85"/>
<path d="M18.1406 16.3013L17.0693 16.9238L16.6084 16.6578L17.6797 16.0352L18.1406 16.3013Z" fill="#384E85"/>
<path d="M15.5593 19.1907L14.4879 19.8133L13.5352 19.2632L14.6065 18.6406L15.5593 19.1907Z" fill="#384E85"/>
<path d="M18.6208 21.5813L17.5495 22.2039L16.5967 21.6539L17.668 21.0312L18.6208 21.5813Z" fill="#384E85"/>
<path d="M17.4211 20.886L16.3498 21.5086L15.397 20.9585L16.4683 20.3359L17.4211 20.886Z" fill="#384E85"/>
<path d="M16.2219 20.1938L15.1505 20.8164L14.1992 20.2671L15.2706 19.6445L16.2219 20.1938Z" fill="#384E85"/>
<path d="M21.4987 19.9056L20.4274 20.5282L19.4746 19.9781L20.546 19.3555L21.4987 19.9056Z" fill="#384E85"/>
<path d="M20.0593 20.7454L18.9894 21.3672L18.0366 20.8171L19.1065 20.1953L20.0593 20.7454Z" fill="#384E85"/>
<path d="M6.92554 24.2103L5.31998 25.1433L4.36719 24.5932L5.97274 23.6602L6.92554 24.2103Z" fill="#384E85"/>
<path d="M3.68162 14.7303C3.88906 14.6105 4.01153 14.6367 4.09919 14.7161L3.98144 14.907C3.90614 14.8311 3.80947 14.8373 3.69137 14.9055C3.45107 15.0442 3.29867 15.3461 3.29949 15.6364C3.30031 15.9255 3.45394 16.0531 3.69423 15.9144C3.81233 15.8462 3.90871 15.7374 3.98334 15.5773L4.10179 15.633C4.01487 15.8144 3.89294 15.9817 3.6855 16.1014C3.34662 16.2971 3.1178 16.129 3.1167 15.742C3.11561 15.3549 3.34274 14.9259 3.68162 14.7303Z" fill="#D9DDF6"/>
<path d="M4.44538 15.3608C4.51521 15.3204 4.57497 15.3545 4.57519 15.4347C4.57542 15.5161 4.51605 15.6178 4.44622 15.6581C4.37536 15.699 4.31664 15.6655 4.31641 15.5841C4.31618 15.5039 4.37453 15.4017 4.44538 15.3608Z" fill="#D9DDF6"/>
<path d="M4.53409 14.5071C4.5847 14.42 4.58484 14.3256 4.53439 14.2963C4.48395 14.267 4.40202 14.3138 4.35141 14.4009C4.3008 14.488 4.30066 14.5824 4.35111 14.6117C4.40155 14.641 4.48348 14.5942 4.53409 14.5071Z" fill="#D9DDF6"/>
<path d="M4.83834 13.543L5.40138 15.1326L5.26274 15.2127L4.69971 13.623L4.83834 13.543Z" fill="#D9DDF6"/>
<path d="M5.93591 12.7266L6.91877 13.2878L5.94229 14.9804L5.78466 14.8905L6.60659 13.4681L5.7793 12.9978L5.93591 12.7266Z" fill="#D9DDF6"/>
<path d="M8.01622 13.2891L8.01742 13.7115L6.98948 14.305L6.98828 13.8825L8.01622 13.2891Z" fill="#D9DDF6"/>
</svg>
