<svg width="509" height="179" viewBox="0 0 509 179" fill="none" xmlns="http://www.w3.org/2000/svg">
<circle cx="257" cy="89" r="64" fill="#01A3DE"/>
<path d="M168 62C143.147 62 123 82.1472 123 107H213C213 82.1472 192.853 62 168 62Z" fill="#F9CC14"/>
<rect x="396" y="21" width="128" height="128" fill="#33AF4A"/>
<path d="M128 51V179H0L128 51Z" fill="#33AF4A"/>
<path d="M305 -15H308.556V-11.4444H305V-15Z" fill="white"/>
<path d="M322.778 -15H326.333V-11.4444H322.778V-15Z" fill="white"/>
<path d="M340.556 -15H344.111V-11.4444H340.556V-15Z" fill="white"/>
<path d="M358.333 -15H361.889V-11.4444H358.333V-15Z" fill="white"/>
<path d="M376.111 -15H379.667V-11.4444H376.111V-15Z" fill="white"/>
<path d="M393.889 -15H397.444V-11.4444H393.889V-15Z" fill="white"/>
<path d="M411.667 -15H415.222V-11.4444H411.667V-15Z" fill="white"/>
<path d="M429.444 -15H433V-11.4444H429.444V-15Z" fill="white"/>
<path d="M305 2.77778H308.556V6.33333H305V2.77778Z" fill="white"/>
<path d="M322.778 2.77778H326.333V6.33333H322.778V2.77778Z" fill="white"/>
<path d="M340.556 2.77778H344.111V6.33333H340.556V2.77778Z" fill="white"/>
<path d="M358.333 2.77778H361.889V6.33333H358.333V2.77778Z" fill="white"/>
<path d="M376.111 2.77778H379.667V6.33333H376.111V2.77778Z" fill="white"/>
<path d="M393.889 2.77778H397.444V6.33333H393.889V2.77778Z" fill="white"/>
<path d="M411.667 2.77778H415.222V6.33333H411.667V2.77778Z" fill="white"/>
<path d="M429.444 2.77778H433V6.33333H429.444V2.77778Z" fill="white"/>
<path d="M305 20.5556H308.556V24.1111H305V20.5556Z" fill="white"/>
<path d="M322.778 20.5556H326.333V24.1111H322.778V20.5556Z" fill="white"/>
<path d="M340.556 20.5556H344.111V24.1111H340.556V20.5556Z" fill="white"/>
<path d="M358.333 20.5556H361.889V24.1111H358.333V20.5556Z" fill="white"/>
<path d="M376.111 20.5556H379.667V24.1111H376.111V20.5556Z" fill="white"/>
<path d="M393.889 20.5556H397.444V24.1111H393.889V20.5556Z" fill="white"/>
<path d="M411.667 20.5556H415.222V24.1111H411.667V20.5556Z" fill="white"/>
<path d="M429.444 20.5556H433V24.1111H429.444V20.5556Z" fill="white"/>
<path d="M305 38.3333H308.556V41.8889H305V38.3333Z" fill="white"/>
<path d="M322.778 38.3333H326.333V41.8889H322.778V38.3333Z" fill="white"/>
<path d="M340.556 38.3333H344.111V41.8889H340.556V38.3333Z" fill="white"/>
<path d="M358.333 38.3333H361.889V41.8889H358.333V38.3333Z" fill="white"/>
<path d="M376.111 38.3333H379.667V41.8889H376.111V38.3333Z" fill="white"/>
<path d="M393.889 38.3333H397.444V41.8889H393.889V38.3333Z" fill="white"/>
<path d="M411.667 38.3333H415.222V41.8889H411.667V38.3333Z" fill="white"/>
<path d="M429.444 38.3333H433V41.8889H429.444V38.3333Z" fill="white"/>
<path d="M305 56.1111H308.556V59.6667H305V56.1111Z" fill="white"/>
<path d="M322.778 56.1111H326.333V59.6667H322.778V56.1111Z" fill="white"/>
<path d="M340.556 56.1111H344.111V59.6667H340.556V56.1111Z" fill="white"/>
<path d="M358.333 56.1111H361.889V59.6667H358.333V56.1111Z" fill="white"/>
<path d="M376.111 56.1111H379.667V59.6667H376.111V56.1111Z" fill="white"/>
<path d="M393.889 56.1111H397.444V59.6667H393.889V56.1111Z" fill="white"/>
<path d="M411.667 56.1111H415.222V59.6667H411.667V56.1111Z" fill="white"/>
<path d="M429.444 56.1111H433V59.6667H429.444V56.1111Z" fill="white"/>
<path d="M305 73.8889H308.556V77.4444H305V73.8889Z" fill="white"/>
<path d="M322.778 73.8889H326.333V77.4444H322.778V73.8889Z" fill="white"/>
<path d="M340.556 73.8889H344.111V77.4444H340.556V73.8889Z" fill="white"/>
<path d="M358.333 73.8889H361.889V77.4444H358.333V73.8889Z" fill="white"/>
<path d="M376.111 73.8889H379.667V77.4444H376.111V73.8889Z" fill="white"/>
<path d="M393.889 73.8889H397.444V77.4444H393.889V73.8889Z" fill="white"/>
<path d="M411.667 73.8889H415.222V77.4444H411.667V73.8889Z" fill="white"/>
<path d="M429.444 73.8889H433V77.4444H429.444V73.8889Z" fill="white"/>
<path d="M305 91.6667H308.556V95.2222H305V91.6667Z" fill="white"/>
<path d="M322.778 91.6667H326.333V95.2222H322.778V91.6667Z" fill="white"/>
<path d="M340.556 91.6667H344.111V95.2222H340.556V91.6667Z" fill="white"/>
<path d="M358.333 91.6667H361.889V95.2222H358.333V91.6667Z" fill="white"/>
<path d="M376.111 91.6667H379.667V95.2222H376.111V91.6667Z" fill="white"/>
<path d="M393.889 91.6667H397.444V95.2222H393.889V91.6667Z" fill="white"/>
<path d="M411.667 91.6667H415.222V95.2222H411.667V91.6667Z" fill="white"/>
<path d="M429.444 91.6667H433V95.2222H429.444V91.6667Z" fill="white"/>
<path d="M305 109.444H308.556V113H305V109.444Z" fill="white"/>
<path d="M322.778 109.444H326.333V113H322.778V109.444Z" fill="white"/>
<path d="M340.556 109.444H344.111V113H340.556V109.444Z" fill="white"/>
<path d="M358.333 109.444H361.889V113H358.333V109.444Z" fill="white"/>
<path d="M376.111 109.444H379.667V113H376.111V109.444Z" fill="white"/>
<path d="M393.889 109.444H397.444V113H393.889V109.444Z" fill="white"/>
<path d="M411.667 109.444H415.222V113H411.667V109.444Z" fill="white"/>
<path d="M429.444 109.444H433V113H429.444V109.444Z" fill="white"/>
</svg>
