<svg width="181" height="234" viewBox="0 0 181 234" fill="none" xmlns="http://www.w3.org/2000/svg">
<rect x="70.3545" y="123.336" width="110.355" height="110.355" fill="#6FC6EC"/>
<path d="M0 0H4.61614V4.61614H0V0Z" fill="black"/>
<path d="M23.0807 0H27.6968V4.61614H23.0807V0Z" fill="black"/>
<path d="M46.1614 0H50.7775V4.61614H46.1614V0Z" fill="black"/>
<path d="M69.2421 0H73.8582V4.61614H69.2421V0Z" fill="black"/>
<path d="M92.3227 0H96.9389V4.61614H92.3227V0Z" fill="black"/>
<path d="M115.403 0H120.02V4.61614H115.403V0Z" fill="black"/>
<path d="M138.484 0H143.1V4.61614H138.484V0Z" fill="black"/>
<path d="M161.565 0H166.181V4.61614H161.565V0Z" fill="black"/>
<path d="M0 23.0807H4.61614V27.6968H0V23.0807Z" fill="black"/>
<path d="M23.0807 23.0807H27.6968V27.6968H23.0807V23.0807Z" fill="black"/>
<path d="M46.1614 23.0807H50.7775V27.6968H46.1614V23.0807Z" fill="black"/>
<path d="M69.2421 23.0807H73.8582V27.6968H69.2421V23.0807Z" fill="black"/>
<path d="M92.3227 23.0807H96.9389V27.6968H92.3227V23.0807Z" fill="black"/>
<path d="M115.403 23.0807H120.02V27.6968H115.403V23.0807Z" fill="black"/>
<path d="M138.484 23.0807H143.1V27.6968H138.484V23.0807Z" fill="black"/>
<path d="M161.565 23.0807H166.181V27.6968H161.565V23.0807Z" fill="black"/>
<path d="M0 46.1614H4.61614V50.7775H0V46.1614Z" fill="black"/>
<path d="M23.0807 46.1614H27.6968V50.7775H23.0807V46.1614Z" fill="black"/>
<path d="M46.1614 46.1614H50.7775V50.7775H46.1614V46.1614Z" fill="black"/>
<path d="M69.2421 46.1614H73.8582V50.7775H69.2421V46.1614Z" fill="black"/>
<path d="M92.3227 46.1614H96.9389V50.7775H92.3227V46.1614Z" fill="black"/>
<path d="M115.403 46.1614H120.02V50.7775H115.403V46.1614Z" fill="black"/>
<path d="M138.484 46.1614H143.1V50.7775H138.484V46.1614Z" fill="black"/>
<path d="M161.565 46.1614H166.181V50.7775H161.565V46.1614Z" fill="black"/>
<path d="M0 69.2421H4.61614V73.8582H0V69.2421Z" fill="black"/>
<path d="M23.0807 69.2421H27.6968V73.8582H23.0807V69.2421Z" fill="black"/>
<path d="M46.1614 69.2421H50.7775V73.8582H46.1614V69.2421Z" fill="black"/>
<path d="M69.2421 69.2421H73.8582V73.8582H69.2421V69.2421Z" fill="black"/>
<path d="M92.3227 69.2421H96.9389V73.8582H92.3227V69.2421Z" fill="black"/>
<path d="M115.403 69.2421H120.02V73.8582H115.403V69.2421Z" fill="black"/>
<path d="M138.484 69.2421H143.1V73.8582H138.484V69.2421Z" fill="black"/>
<path d="M161.565 69.2421H166.181V73.8582H161.565V69.2421Z" fill="black"/>
<path d="M0 92.3227H4.61614V96.9389H0V92.3227Z" fill="black"/>
<path d="M23.0807 92.3227H27.6968V96.9389H23.0807V92.3227Z" fill="black"/>
<path d="M46.1614 92.3227H50.7775V96.9389H46.1614V92.3227Z" fill="black"/>
<path d="M69.2421 92.3227H73.8582V96.9389H69.2421V92.3227Z" fill="black"/>
<path d="M92.3227 92.3227H96.9389V96.9389H92.3227V92.3227Z" fill="black"/>
<path d="M115.403 92.3227H120.02V96.9389H115.403V92.3227Z" fill="black"/>
<path d="M138.484 92.3227H143.1V96.9389H138.484V92.3227Z" fill="black"/>
<path d="M161.565 92.3227H166.181V96.9389H161.565V92.3227Z" fill="black"/>
<path d="M0 115.403H4.61614V120.02H0V115.403Z" fill="black"/>
<path d="M23.0807 115.403H27.6968V120.02H23.0807V115.403Z" fill="black"/>
<path d="M46.1614 115.403H50.7775V120.02H46.1614V115.403Z" fill="black"/>
<path d="M69.2421 115.403H73.8582V120.02H69.2421V115.403Z" fill="black"/>
<path d="M92.3227 115.403H96.9389V120.02H92.3227V115.403Z" fill="black"/>
<path d="M115.403 115.403H120.02V120.02H115.403V115.403Z" fill="black"/>
<path d="M138.484 115.403H143.1V120.02H138.484V115.403Z" fill="black"/>
<path d="M161.565 115.403H166.181V120.02H161.565V115.403Z" fill="black"/>
<path d="M0 138.484H4.61614V143.1H0V138.484Z" fill="black"/>
<path d="M23.0807 138.484H27.6968V143.1H23.0807V138.484Z" fill="black"/>
<path d="M46.1614 138.484H50.7775V143.1H46.1614V138.484Z" fill="black"/>
<path d="M69.2421 138.484H73.8582V143.1H69.2421V138.484Z" fill="black"/>
<path d="M92.3227 138.484H96.9389V143.1H92.3227V138.484Z" fill="black"/>
<path d="M115.403 138.484H120.02V143.1H115.403V138.484Z" fill="black"/>
<path d="M138.484 138.484H143.1V143.1H138.484V138.484Z" fill="black"/>
<path d="M161.565 138.484H166.181V143.1H161.565V138.484Z" fill="black"/>
<path d="M0 161.565H4.61614V166.181H0V161.565Z" fill="black"/>
<path d="M23.0807 161.565H27.6968V166.181H23.0807V161.565Z" fill="black"/>
<path d="M46.1614 161.565H50.7775V166.181H46.1614V161.565Z" fill="black"/>
<path d="M69.2421 161.565H73.8582V166.181H69.2421V161.565Z" fill="black"/>
<path d="M92.3227 161.565H96.9389V166.181H92.3227V161.565Z" fill="black"/>
<path d="M115.403 161.565H120.02V166.181H115.403V161.565Z" fill="black"/>
<path d="M138.484 161.565H143.1V166.181H138.484V161.565Z" fill="black"/>
<path d="M161.565 161.565H166.181V166.181H161.565V161.565Z" fill="black"/>
</svg>
