<svg width="32" height="32" viewBox="0 0 32 32" fill="none" xmlns="http://www.w3.org/2000/svg">
<path d="M20.9998 16C19.7148 16 18.4723 15.4263 17.4998 14.385C16.5542 13.3694 15.9767 12.015 15.8748 10.5725C15.766 9.03375 16.2354 7.61875 17.196 6.5875C18.1567 5.55625 19.4998 5 20.9998 5C22.4892 5 23.836 5.56625 24.7935 6.595C25.7604 7.63375 26.231 9.04625 26.1223 10.5719C26.0179 12.0162 25.441 13.37 24.4973 14.3844C23.5273 15.4262 22.2854 16 20.9998 16Z" fill="black"/>
<path d="M29.2388 27H12.7607C12.4958 27.0014 12.2341 26.942 11.9957 26.8264C11.7573 26.7108 11.5486 26.542 11.3857 26.3331C11.2129 26.1066 11.0936 25.844 11.0366 25.5649C10.9797 25.2857 10.9867 24.9973 11.057 24.7213C11.5832 22.6081 12.887 20.8556 14.827 19.6537C16.5488 18.5875 18.7407 18 20.9995 18C23.3026 18 25.437 18.5625 27.1688 19.6281C29.1132 20.8237 30.4188 22.5863 30.9426 24.725C31.0121 25.0013 31.0182 25.2897 30.9607 25.5687C30.9031 25.8477 30.7832 26.11 30.6101 26.3363C30.4473 26.5442 30.2391 26.7121 30.0015 26.8272C29.7638 26.9422 29.5029 27.0014 29.2388 27Z" fill="black"/>
<path d="M9.18741 16.25C6.98803 16.25 5.05428 14.205 4.87491 11.6919C4.78616 10.4044 5.18741 9.21375 5.99991 8.34062C6.80366 7.47625 7.93741 7 9.18741 7C10.4374 7 11.5624 7.47875 12.3705 8.34813C13.1893 9.22813 13.5893 10.4162 13.4955 11.6931C13.3162 14.2056 11.383 16.25 9.18741 16.25Z" fill="black"/>
<path d="M13.2917 18.2157C12.1923 17.6782 10.7654 17.4094 9.18854 17.4094C7.34729 17.4094 5.55917 17.8894 4.15292 18.7607C2.55854 19.7501 1.48604 21.1907 1.05292 22.9301C0.989533 23.1802 0.983538 23.4415 1.03538 23.6943C1.08722 23.9472 1.19556 24.185 1.35229 24.39C1.50101 24.581 1.69153 24.7352 1.90921 24.841C2.12688 24.9467 2.36592 25.0012 2.60792 25.0001H9.54542C9.66251 25 9.77588 24.9589 9.86577 24.8839C9.95566 24.8088 10.0164 24.7046 10.0373 24.5894C10.0442 24.55 10.0529 24.5107 10.0629 24.4719C10.5929 22.3432 11.8348 20.5444 13.6698 19.2332C13.7373 19.1845 13.7916 19.1198 13.8277 19.0449C13.8639 18.9699 13.8808 18.8872 13.8769 18.8041C13.873 18.721 13.8484 18.6401 13.8053 18.5689C13.7623 18.4977 13.7022 18.4384 13.6304 18.3963C13.5323 18.3388 13.4198 18.2782 13.2917 18.2157Z" fill="black"/>
</svg>
