<svg width="42" height="90" viewBox="0 0 42 90" fill="none" xmlns="http://www.w3.org/2000/svg">
<path fill-rule="evenodd" clip-rule="evenodd" d="M40.8684 39.9613C40.5909 36.3688 39.7464 32.9045 38.5719 29.5108C36.1389 21.9328 32.2344 15.2263 26.7346 9.45576C25.3441 7.99626 23.7976 6.65902 22.8279 4.84252C22.2144 3.69352 21.6301 2.52877 21.0324 1.37077L20.6536 0.416016C20.5899 0.635016 20.5494 0.713016 20.5471 0.791766C20.4984 2.67952 19.4289 3.95977 18.0969 5.15452C16.5991 6.49927 15.2049 7.95876 13.7656 9.36801C12.2896 11.309 10.8144 13.25 9.33989 15.1903C8.14589 17.384 6.95339 19.5778 5.76089 21.7715L3.36839 28.2343L3.29639 28.3348C1.97939 32.6608 1.32989 37.1083 1.01039 41.6008C0.890387 43.289 1.02689 45.002 1.12214 46.6993C1.25789 49.1255 1.67939 51.5105 2.31164 53.858C4.60814 62.387 9.26864 69.4618 15.6399 75.4723C16.8241 76.589 18.0391 77.6045 19.2751 78.6673C19.4866 77.9435 19.6554 77.2198 19.8474 76.496C20.0394 75.7753 20.2336 75.0583 20.3634 74.3353C20.2329 75.0583 20.0866 75.7753 19.9419 76.496L19.3224 78.6673L19.8759 80.543L20.3889 83.456L20.6334 86.4958C20.6311 87.113 20.6064 87.7318 20.6439 88.3483C20.6529 88.5058 20.8599 88.6513 20.9754 88.8028L22.0074 89.165L23.0829 89.5835L22.8984 86.8813L22.8901 84.2203L23.2614 80.1665L23.5306 79.2838L24.3009 77.9188C25.2519 77.1538 26.2726 76.4593 27.1389 75.608C28.7064 74.0675 30.2701 72.5075 31.6726 70.8208C33.4929 68.633 35.0589 66.245 36.3159 63.6838C37.1574 61.9708 37.9494 60.2233 38.6049 58.433C39.1824 56.855 39.5401 55.1968 39.9954 53.5738C40.0359 53.4568 40.0899 53.342 40.1154 53.2228C41.0559 48.842 41.2141 44.417 40.8684 39.9613ZM23.1691 76.9925L22.5654 75.6703L23.1691 76.9925L24.0564 77.75L23.1691 76.9925Z" fill="#4FAA41"/>
</svg>
