<svg width="92" height="92" viewBox="0 0 92 92" fill="none" xmlns="http://www.w3.org/2000/svg">
<path d="M34.9973 44.5001H56.8665C62.9543 44.5001 67.7498 39.3491 67.7498 33.2359V12.3874C67.7498 6.45338 62.7758 1.99538 56.8335 1.00538C53.073 0.379129 49.1873 0.0941291 45.4433 0.112129C41.7008 0.129379 38.2343 0.448129 35.0895 1.00538C25.8233 2.64113 24.2498 6.06863 24.2498 12.3874V20.5001H45.9998V23.5001H15.8318C9.46877 23.5001 3.89627 27.3311 2.15402 34.6084C0.143267 42.9484 0.0540175 48.0476 2.15402 56.7559C3.71027 63.2374 7.42652 67.7501 13.7903 67.7501H21.2498V57.9641C21.2498 50.7364 27.5708 44.5001 34.9973 44.5001ZM33.6188 15.1676C31.3493 15.1676 29.5103 13.3084 29.5103 11.0089C29.5103 8.69963 31.3485 6.82313 33.6188 6.82313C35.88 6.82313 37.728 8.69963 37.728 11.0089C37.7273 13.3084 35.8793 15.1676 33.6188 15.1676ZM89.7105 34.6084C88.137 28.2724 85.1333 23.5001 78.7613 23.5001H70.7498V33.2359C70.7498 40.7734 64.1543 46.7501 56.8665 46.7501H34.9973C29.0063 46.7501 24.2498 52.2446 24.2498 58.2446V79.0946C24.2498 85.0271 29.3085 88.5176 35.0963 90.2201C42.0278 92.2579 48.5918 92.6261 56.8845 90.2201C62.3963 88.6234 67.7498 85.4119 67.7498 79.0946V70.7501H45.9998V67.7501H78.7613C85.1243 67.7501 87.4965 63.4181 89.7105 56.7551C91.9958 49.8964 91.8975 43.4059 89.7105 34.6084ZM58.2443 76.3129C60.5145 76.3129 62.3535 78.1721 62.3535 80.4731C62.3535 82.7801 60.5153 84.6574 58.2443 84.6574C55.983 84.6574 54.1358 82.7809 54.1358 80.4731C54.1358 78.1721 55.983 76.3129 58.2443 76.3129Z" fill="#FFD845"/>
</svg>
