<svg width="100" height="36" viewBox="0 0 36 36" fill="none" xmlns="http://www.w3.org/2000/svg">
    <path fill-rule="evenodd" clip-rule="evenodd" d="M16.9395 8.45312L27.5461 19.0597L18.0002 28.6057L7.39355 17.9991L16.9395 8.45312ZM12.6969 16.9384C12.1111 17.5242 12.1111 18.4739 12.6969 19.0597C13.2826 19.6455 14.2324 19.6455 14.8182 19.0597C15.404 18.4739 15.404 17.5242 14.8182 16.9384C14.2324 16.3526 13.2826 16.3526 12.6969 16.9384ZM16.9395 12.6958C16.3537 13.2816 16.3537 14.2313 16.9395 14.8171C17.5253 15.4029 18.475 15.4029 19.0608 14.8171C19.6466 14.2313 19.6466 13.2816 19.0608 12.6958C18.475 12.11 17.5253 12.11 16.9395 12.6958ZM16.9395 21.181C16.3537 21.7668 16.3537 22.7166 16.9395 23.3024C17.5253 23.8882 18.475 23.8882 19.0608 23.3024C19.6466 22.7166 19.6466 21.7668 19.0608 21.181C18.475 20.5953 17.5253 20.5953 16.9395 21.181ZM21.1821 16.9384C20.5964 17.5242 20.5964 18.4739 21.1821 19.0597C21.7679 19.6455 22.7177 19.6455 23.3035 19.0597C23.8892 18.4739 23.8892 17.5242 23.3035 16.9384C22.7177 16.3526 21.7679 16.3526 21.1821 16.9384Z" fill="#1C1C1E"/>
    <path opacity="0.3" fill-rule="evenodd" clip-rule="evenodd" d="M15.7728 30.621C12.8607 32.5503 8.89862 32.2321 6.33293 29.6664C3.76724 27.1007 3.44905 23.1386 5.37835 20.2266L15.7728 30.621Z" fill="#1C1C1E"/>
    <path opacity="0.3" fill-rule="evenodd" clip-rule="evenodd" d="M19.1665 6.43939C22.0786 4.51008 26.0407 4.82827 28.6064 7.39396C31.1721 9.95966 31.4902 13.9218 29.5609 16.8338L19.1665 6.43939Z" fill="#1C1C1E"/>
</svg>