<svg width="142" height="144" viewBox="0 0 142 144" fill="none" xmlns="http://www.w3.org/2000/svg">
<rect width="101.607" height="101.607" fill="#F9CC14"/>
<path d="M40.3926 42.2031H43.215V45.0255H40.3926V42.2031Z" fill="black"/>
<path d="M54.5046 42.2031H57.327V45.0255H54.5046V42.2031Z" fill="black"/>
<path d="M68.6167 42.2031H71.4391V45.0255H68.6167V42.2031Z" fill="black"/>
<path d="M82.7287 42.2031H85.5511V45.0255H82.7287V42.2031Z" fill="black"/>
<path d="M96.8407 42.2031H99.6631V45.0255H96.8407V42.2031Z" fill="black"/>
<path d="M110.953 42.2031H113.775V45.0255H110.953V42.2031Z" fill="black"/>
<path d="M125.065 42.2031H127.887V45.0255H125.065V42.2031Z" fill="black"/>
<path d="M139.177 42.2031H141.999V45.0255H139.177V42.2031Z" fill="black"/>
<path d="M40.3926 56.3152H43.215V59.1376H40.3926V56.3152Z" fill="black"/>
<path d="M54.5046 56.3152H57.327V59.1376H54.5046V56.3152Z" fill="black"/>
<path d="M68.6167 56.3152H71.4391V59.1376H68.6167V56.3152Z" fill="black"/>
<path d="M82.7287 56.3152H85.5511V59.1376H82.7287V56.3152Z" fill="black"/>
<path d="M96.8407 56.3152H99.6631V59.1376H96.8407V56.3152Z" fill="black"/>
<path d="M110.953 56.3152H113.775V59.1376H110.953V56.3152Z" fill="black"/>
<path d="M125.065 56.3152H127.887V59.1376H125.065V56.3152Z" fill="black"/>
<path d="M139.177 56.3152H141.999V59.1376H139.177V56.3152Z" fill="black"/>
<path d="M40.3926 70.4272H43.215V73.2496H40.3926V70.4272Z" fill="black"/>
<path d="M54.5046 70.4272H57.327V73.2496H54.5046V70.4272Z" fill="black"/>
<path d="M68.6167 70.4272H71.4391V73.2496H68.6167V70.4272Z" fill="black"/>
<path d="M82.7287 70.4272H85.5511V73.2496H82.7287V70.4272Z" fill="black"/>
<path d="M96.8407 70.4272H99.6631V73.2496H96.8407V70.4272Z" fill="black"/>
<path d="M110.953 70.4272H113.775V73.2496H110.953V70.4272Z" fill="black"/>
<path d="M125.065 70.4272H127.887V73.2496H125.065V70.4272Z" fill="black"/>
<path d="M139.177 70.4272H141.999V73.2496H139.177V70.4272Z" fill="black"/>
<path d="M40.3926 84.5392H43.215V87.3616H40.3926V84.5392Z" fill="black"/>
<path d="M54.5046 84.5392H57.327V87.3616H54.5046V84.5392Z" fill="black"/>
<path d="M68.6167 84.5392H71.4391V87.3616H68.6167V84.5392Z" fill="black"/>
<path d="M82.7287 84.5392H85.5511V87.3616H82.7287V84.5392Z" fill="black"/>
<path d="M96.8407 84.5392H99.6631V87.3616H96.8407V84.5392Z" fill="black"/>
<path d="M110.953 84.5392H113.775V87.3616H110.953V84.5392Z" fill="black"/>
<path d="M125.065 84.5392H127.887V87.3616H125.065V84.5392Z" fill="black"/>
<path d="M139.177 84.5392H141.999V87.3616H139.177V84.5392Z" fill="black"/>
<path d="M40.3926 98.6513H43.215V101.474H40.3926V98.6513Z" fill="black"/>
<path d="M54.5046 98.6513H57.327V101.474H54.5046V98.6513Z" fill="black"/>
<path d="M68.6167 98.6513H71.4391V101.474H68.6167V98.6513Z" fill="black"/>
<path d="M82.7287 98.6513H85.5511V101.474H82.7287V98.6513Z" fill="black"/>
<path d="M96.8407 98.6513H99.6631V101.474H96.8407V98.6513Z" fill="black"/>
<path d="M110.953 98.6513H113.775V101.474H110.953V98.6513Z" fill="black"/>
<path d="M125.065 98.6513H127.887V101.474H125.065V98.6513Z" fill="black"/>
<path d="M139.177 98.6513H141.999V101.474H139.177V98.6513Z" fill="black"/>
<path d="M40.3926 112.763H43.215V115.586H40.3926V112.763Z" fill="black"/>
<path d="M54.5046 112.763H57.327V115.586H54.5046V112.763Z" fill="black"/>
<path d="M68.6167 112.763H71.4391V115.586H68.6167V112.763Z" fill="black"/>
<path d="M82.7287 112.763H85.5511V115.586H82.7287V112.763Z" fill="black"/>
<path d="M96.8407 112.763H99.6631V115.586H96.8407V112.763Z" fill="black"/>
<path d="M110.953 112.763H113.775V115.586H110.953V112.763Z" fill="black"/>
<path d="M125.065 112.763H127.887V115.586H125.065V112.763Z" fill="black"/>
<path d="M139.177 112.763H141.999V115.586H139.177V112.763Z" fill="black"/>
<path d="M40.3926 126.875H43.215V129.698H40.3926V126.875Z" fill="black"/>
<path d="M54.5046 126.875H57.327V129.698H54.5046V126.875Z" fill="black"/>
<path d="M68.6167 126.875H71.4391V129.698H68.6167V126.875Z" fill="black"/>
<path d="M82.7287 126.875H85.5511V129.698H82.7287V126.875Z" fill="black"/>
<path d="M96.8407 126.875H99.6631V129.698H96.8407V126.875Z" fill="black"/>
<path d="M110.953 126.875H113.775V129.698H110.953V126.875Z" fill="black"/>
<path d="M125.065 126.875H127.887V129.698H125.065V126.875Z" fill="black"/>
<path d="M139.177 126.875H141.999V129.698H139.177V126.875Z" fill="black"/>
<path d="M40.3926 140.987H43.215V143.81H40.3926V140.987Z" fill="black"/>
<path d="M54.5046 140.987H57.327V143.81H54.5046V140.987Z" fill="black"/>
<path d="M68.6167 140.987H71.4391V143.81H68.6167V140.987Z" fill="black"/>
<path d="M82.7287 140.987H85.5511V143.81H82.7287V140.987Z" fill="black"/>
<path d="M96.8407 140.987H99.6631V143.81H96.8407V140.987Z" fill="black"/>
<path d="M110.953 140.987H113.775V143.81H110.953V140.987Z" fill="black"/>
<path d="M125.065 140.987H127.887V143.81H125.065V140.987Z" fill="black"/>
<path d="M139.177 140.987H141.999V143.81H139.177V140.987Z" fill="black"/>
</svg>
