<svg width="20" height="20" viewBox="0 0 20 20" fill="none" xmlns="http://www.w3.org/2000/svg">
<path d="M19.5791 5.16923C19.4632 4.75403 19.2422 4.37575 18.9374 4.07094C18.6326 3.76613 18.2543 3.54511 17.8391 3.42923C16.2808 3.01173 10.0091 3.01173 10.0091 3.01173C10.0091 3.01173 3.75325 3.0034 2.17909 3.42923C1.76389 3.54511 1.3856 3.76613 1.08079 4.07094C0.775986 4.37575 0.554962 4.75403 0.439086 5.16923C0.143687 6.76466 -0.00194663 8.3842 0.00408624 10.0067C-0.000806147 11.6231 0.144822 13.2365 0.439086 14.8259C0.554962 15.2411 0.775986 15.6194 1.08079 15.9242C1.3856 16.229 1.76389 16.45 2.17909 16.5659C3.73575 16.9842 10.0091 16.9842 10.0091 16.9842C10.0091 16.9842 16.2641 16.9842 17.8391 16.5659C18.2543 16.45 18.6326 16.229 18.9374 15.9242C19.2422 15.6194 19.4632 15.2411 19.5791 14.8259C19.8672 13.2359 20.0067 11.6226 19.9958 10.0067C20.0078 8.38477 19.8683 6.76523 19.5791 5.16923ZM8.00742 12.9992V7.00506L13.2274 10.0067L8.00742 12.9992Z" fill="white"/>
</svg>
